<?xml version="1.0" standalone="no"?>
<!DOCTYPE svg PUBLIC "-//W3C//DTD SVG 1.1//EN" "http://www.w3.org/Graphics/SVG/1.1/DTD/svg11.dtd" >
<svg xmlns="http://www.w3.org/2000/svg" xmlns:xlink="http://www.w3.org/1999/xlink" version="1.1">
<metadata>
Created by FontForge 20170731 at Mon Jul  7 23:39:45 2014
 By Aleksey,,,
Copyright (c) 2014 by CAT Fonts. All rights reserved.
</metadata>
<defs>
<font id="IndiraK" horiz-adv-x="558" >
  <font-face 
    font-family="Indira K"
    font-weight="400"
    font-stretch="normal"
    units-per-em="1000"
    panose-1="0 0 0 0 0 0 0 0 0 0"
    ascent="750"
    descent="-250"
    x-height="424"
    cap-height="703"
    bbox="2 -322 1251 968"
    underline-thickness="50"
    underline-position="-150"
    unicode-range="U+0020-FB06"
  />
<missing-glyph horiz-adv-x="495" 
d="M50 0v968h394v-968h-394v0zM116 62h262v843h-262v-843v0z" />
    <glyph glyph-name=".notdef" horiz-adv-x="495" 
d="M50 0v968h394v-968h-394v0zM116 62h262v843h-262v-843v0z" />
    <glyph glyph-name=".null" horiz-adv-x="0" 
 />
    <glyph glyph-name="nonmarkingreturn" horiz-adv-x="333" 
 />
    <glyph glyph-name="space" unicode=" " horiz-adv-x="292" 
 />
    <glyph glyph-name="exclam" unicode="!" horiz-adv-x="248" 
d="M124 166q7 0 22.5 -11.5t31.5 -26.5t28 -30t12 -21q0 -7 -12 -22t-28 -30t-31.5 -26.5t-22.5 -11.5t-22.5 11.5t-31.5 26t-28 29t-12 20.5q0 11 4.5 17t12.5 13q6 6 15.5 16t21 20.5t22 18t18.5 7.5zM47 654q0 15 14.5 23.5t34 12.5t39.5 5t31 1q12 0 22 -5t10 -19
q0 -13 -2 -25t-4 -25l-46 -361q-1 -8 -5.5 -17t-14.5 -9q-12 0 -15.5 9t-5.5 19l-54 358q-2 8 -3 16.5t-1 16.5z" />
    <glyph glyph-name="quotedbl" unicode="&#x22;" horiz-adv-x="376" 
d="M43 653q0 56 56 56q28 0 43.5 -13t15.5 -42q0 -58 -14 -114t-26 -112h-35q-12 56 -26 112t-14 113zM258 428q-13 56 -26.5 112.5t-13.5 114.5q0 29 14 41.5t42 12.5t43.5 -13t15.5 -42q0 -57 -14 -114t-27 -112h-34z" />
    <glyph glyph-name="numbersign" unicode="#" horiz-adv-x="546" 
d="M21 252l-1 3q2 9 3 20t4.5 20t10 15t18.5 6q17 0 35 -1.5t35 -1.5l30 108q-26 -1 -45 -1q-17 0 -30.5 2t-13.5 9q0 10 4 20t6 19q3 12 7 14.5t17 2.5h72l45 168q4 17 8.5 26t24.5 9q4 0 12.5 0.5t16.5 0t14.5 -3t6.5 -7.5q0 -7 -2.5 -14t-4.5 -14l-44 -165h117l47 175
q4 13 8.5 21t19.5 8h10t15 -0.5t14.5 -1t8.5 -1.5l2 -4q-14 -50 -26 -99t-26 -98q11 0 21 1t21 1h10t14.5 -1t13.5 -3t6 -6q0 -11 -3.5 -20t-6.5 -19q-4 -13 -8.5 -16t-18.5 -3h-67l-30 -108l82 -1l4 -2l1 -5q-2 -10 -3.5 -20.5t-5 -19.5t-10.5 -14.5t-20 -5.5
q-17 0 -33 1.5t-33 1.5l-50 -188q-3 -13 -9 -18.5t-20 -5.5h-11.5t-15 0.5t-14 2.5t-7.5 5q0 3 3.5 17.5t9 35.5t12 44.5t12.5 45.5t11 38.5t6 22.5h-114l-50 -186q-4 -14 -10.5 -20t-20.5 -6q-10 0 -26.5 0.5t-24.5 5.5q1 7 2.5 13t3.5 13l49 180q-12 0 -24 -1t-24 -1
q-8 0 -20.5 0.5t-20.5 5.5zM204 313h115l30 108h-116z" />
    <glyph glyph-name="dollar" unicode="$" horiz-adv-x="528" 
d="M473 600q0 -4 -3.5 -19t-8 -31.5t-9.5 -30.5t-7 -17q-6 -9 -17 -9q-14 0 -15 12t-1 22q0 27 -10 48t-27 35.5t-39 23.5t-47 12v-214q44 -15 83.5 -32t69.5 -42.5t47.5 -61.5t17.5 -90q0 -48 -17 -86.5t-46.5 -66t-69.5 -44.5t-85 -22v-94q0 -19 -5 -26t-25 -7
q-8 0 -15.5 2t-7.5 13v112q-12 1 -33 5t-45 10t-48.5 14.5t-44.5 19.5t-32.5 24t-12.5 29q0 26 5.5 55.5t13.5 55.5q2 9 7.5 15t15.5 6q8 0 12 -6t5.5 -14t1.5 -16.5v-13.5q2 -31 16 -55t36 -41t48.5 -28t54.5 -16v280q-37 12 -73 25t-64 33.5t-45 50.5t-17 77
q0 36 12.5 68.5t35 57.5t53 41.5t66.5 21.5l32 4v75q0 7 6.5 10t11.5 3h8.5t11.5 -1t10.5 -3.5t4.5 -6.5v-77q16 -2 47 -8.5t61.5 -18t53 -27t22.5 -36.5zM289 31q61 7 93 39.5t32 95.5q0 31 -10 52.5t-27 35.5t-39.5 23.5t-48.5 18.5v-265zM236 650q-52 -6 -79 -28.5
t-27 -77.5q0 -23 9.5 -39t25 -27t34.5 -18t37 -13v203z" />
    <glyph glyph-name="percent" unicode="%" horiz-adv-x="832" 
d="M493 195q0 37 9.5 74.5t29.5 68t50.5 49.5t73.5 19q39 0 67 -15.5t45.5 -41t26 -58.5t8.5 -67q0 -37 -10 -74.5t-30 -67.5t-51 -49t-73 -19q-38 0 -65.5 15.5t-45.5 41t-26.5 58t-8.5 66.5zM29 467q0 37 9.5 74.5t29 68t50 49.5t73.5 19q39 0 67 -15.5t46 -41.5t26.5 -59
t8.5 -67q0 -37 -10 -74t-30.5 -67t-51 -49t-72.5 -19q-38 0 -65.5 15.5t-45.5 41t-26.5 58t-8.5 66.5zM555 263q0 -21 7.5 -55t22 -66t35.5 -55.5t48 -23.5q19 0 33 9.5t23 23.5t13.5 31.5t4.5 34.5q0 23 -7 56.5t-21.5 64t-36.5 52.5t-51 22q-18 0 -31.5 -9t-22 -22.5
t-13 -30t-4.5 -32.5zM90 534q0 -21 8 -55t22.5 -66t35.5 -55t48 -23q20 0 34 9t22.5 23.5t12.5 32t4 34.5q0 23 -7 56.5t-21.5 64t-36.5 52t-51 21.5q-18 0 -31.5 -9t-22 -22.5t-13 -30.5t-4.5 -32zM592 677l3 -2v-3q0 -3 -12 -30t-31.5 -70t-44.5 -97.5t-52 -111.5
t-53.5 -113.5t-48.5 -102.5t-37 -78.5t-20 -42.5q-7 -13 -24 -13q-8 0 -15 1t-15 1l-5 5q0 3 12 29.5t31.5 69t44 95.5t51 109.5t52.5 111.5t47.5 101t36.5 78t20 42q5 11 9.5 17t18.5 6h16t16 -2z" />
    <glyph glyph-name="ampersand" unicode="&#x26;" horiz-adv-x="914" 
d="M188 455q0 2 0.5 2.5t0.5 2.5q0 21 -10 42t-10 44q0 38 14 68t38.5 51t56.5 32.5t68 11.5q19 0 38 -5.5t37 -11.5t35 -11.5t34 -5.5q9 0 17.5 3.5t17.5 3.5q8 0 10.5 -5.5t3.5 -11.5q5 -31 3 -61t6 -61q5 -18 5 -32q0 -11 -5.5 -13.5t-14.5 -2.5q-4 0 -7.5 4t-6.5 9.5
t-5.5 11t-3.5 8.5q-10 25 -25.5 50t-36 44.5t-46 32t-55.5 12.5q-29 0 -52 -16t-23 -48q0 -22 12.5 -50.5t32.5 -60t45.5 -63t51.5 -59.5t50 -50.5t41 -36.5l107 -84l16 -12t19 -6q17 20 25.5 42t8.5 49q0 17 -3 36.5t-15 33.5t-29.5 18.5t-33 7t-27 5t-11.5 13.5
q0 12 7.5 15t17.5 3q29 0 58.5 -3t58.5 -3q17 0 34.5 3t34.5 3q7 0 13.5 -2.5t6.5 -10.5q0 -13 -8 -15.5t-16 -7.5q-11 -6 -14 -16t-5 -21q-5 -45 -18.5 -86.5t-36.5 -80.5q-2 -4 -3.5 -6t-1.5 -7q0 -6 6 -11t10 -8q13 -10 28 -22.5t31.5 -23t33.5 -17.5t35 -7
q11 0 22.5 2.5t22.5 2.5q17 0 17 -16q0 -14 -15.5 -26t-36 -20.5t-41.5 -13t-33 -4.5q-38 0 -73.5 17.5t-65.5 40.5q-6 5 -12 9.5t-14 7.5q-11 -4 -21 -10t-21 -12q-49 -26 -103 -39.5t-109 -13.5q-56 0 -112 15t-102 45.5t-74.5 77.5t-28.5 110q0 53 21.5 96.5t61.5 77.5
q16 14 36 23t35 23zM136 322q0 -56 29.5 -105t75 -86t101 -58t107.5 -21q12 0 27 2t29.5 6t27.5 10.5t22 15.5q-19 21 -45.5 36.5t-49.5 32.5q-69 51 -126 115.5t-111 130.5q-2 3 -8 10t-11 7q-16 0 -28.5 -10t-21.5 -25t-13.5 -31.5t-4.5 -29.5z" />
    <glyph glyph-name="quotesingle" unicode="'" horiz-adv-x="178" 
d="M32 653q0 56 55 56q28 0 44 -13t16 -42q0 -58 -14 -114t-27 -112h-34q-12 56 -26 112t-14 113z" />
    <glyph glyph-name="parenleft" unicode="(" horiz-adv-x="280" 
d="M13 271q0 111 43.5 206.5t113.5 178.5q4 4 11.5 13t16 18t17 15.5t13.5 6.5q8 0 13.5 -2.5t5.5 -12.5q0 -2 -7.5 -17.5t-17.5 -34.5t-18.5 -36l-11.5 -23q-32 -74 -48.5 -153t-16.5 -160q0 -44 4 -86.5t14 -84.5q14 -63 38.5 -120.5t56.5 -114.5q2 -4 4.5 -8.5t2.5 -9.5
q0 -1 -1 -3t-1 -3q-7 -9 -17 -9q-5 0 -13.5 6.5t-17 15.5t-16 17.5t-11.5 13.5q-71 83 -114 179.5t-43 207.5z" />
    <glyph glyph-name="parenright" unicode=")" horiz-adv-x="282" 
d="M268 270q0 -109 -43 -207t-115 -179q-4 -4 -11.5 -13t-15.5 -18t-16.5 -15.5t-13.5 -6.5q-8 0 -13.5 3t-5.5 12q0 5 2.5 9t4.5 9q32 54 56 113.5t38 121.5q10 42 14 85t4 86t-4 86t-14 85q-14 63 -38 121t-56 114q-3 5 -5 9.5t-2 10.5q0 5 6.5 9t11.5 4q6 0 14 -6.5
t16.5 -15.5t16 -18t11.5 -13q73 -85 115.5 -178.5t42.5 -207.5z" />
    <glyph glyph-name="asterisk" unicode="*" horiz-adv-x="498" 
d="M17 566q0 47 46 47q15 0 27.5 -7t23 -17.5t19.5 -22t18 -21.5q17 -19 39.5 -32.5t43.5 -26.5q-1 24 -2.5 49t-9.5 48q-7 19 -14 37t-7 38q0 25 11 38t37 13q48 0 48 -48q0 -21 -7 -39.5t-14 -38.5q-8 -22 -9.5 -48t-2.5 -49l44 26t39 33q7 9 17 20.5t21 22t23 18t25 7.5
q19 0 33.5 -13.5t14.5 -33.5q0 -21 -12.5 -32t-30.5 -16t-37.5 -7t-33.5 -6q-23 -6 -44.5 -18t-42.5 -23q21 -12 42.5 -23.5t44.5 -17.5q14 -4 33.5 -6t37.5 -7.5t30.5 -16t12.5 -31.5q0 -48 -47 -48q-17 0 -32 11t-29.5 26t-27.5 31t-26 25q-13 10 -27 18l-28 16
q1 -23 2.5 -48t9.5 -48q6 -19 13.5 -37t7.5 -38q0 -24 -11 -38t-37 -14q-48 0 -48 50q0 21 7 39.5t14 37.5q8 22 9.5 47.5t2.5 48.5l-19 -10q-25 -14 -46 -33t-39 -40q-12 -14 -28.5 -29t-36.5 -15q-48 0 -48 48q0 14 6.5 24t17 16t23 9t24.5 5q26 4 50.5 10.5t47.5 19.5
l31 18l-31 17q-23 13 -47.5 20t-50.5 11q-13 2 -25.5 4.5t-22.5 8.5t-16.5 15.5t-6.5 25.5z" />
    <glyph glyph-name="plus" unicode="+" horiz-adv-x="632" 
d="M278 264l-264 1q-8 4 -8 13v17v19.5t3 18.5q1 2 16.5 3t34.5 1.5t35.5 0.5h20.5q41 0 81 -1t81 -1v243q0 12 9.5 15.5t19.5 3.5h14t15.5 -1.5t13 -5.5t5.5 -12v-243l270 -3q2 -4 2 -13v-14v-20t-2 -18q-4 -3 -23 -4t-46 -1.5t-58.5 -0.5t-60.5 0.5t-51 1t-31 0.5v-243
q0 -12 -9 -15.5t-19 -3.5h-14.5t-16 1.5t-13 5.5t-5.5 12v243z" />
    <glyph glyph-name="comma" unicode="," horiz-adv-x="233" 
d="M29 -137q0 6 12 15.5t26 23.5t26 34t12 46q0 21 -11.5 35t-25 24.5t-24.5 19t-11 17.5q0 7 12.5 21.5t28.5 28.5t32 25t23 11q16 0 31 -10.5t26 -26.5t18 -33.5t7 -32.5q0 -65 -31 -109.5t-84 -78.5q-9 -6 -25.5 -15.5t-26.5 -9.5q-15 0 -15 15z" />
    <glyph glyph-name="hyphen" unicode="-" horiz-adv-x="303" 
d="M22 199q0 14 5.5 26t19.5 17l194 70q5 2 11 3t11 1q11 0 15.5 -6.5t4.5 -17.5v-30q0 -26 -10 -35t-33 -17l-167 -61q-7 -2 -17 -4.5t-18 -2.5q-11 0 -13.5 6.5t-2.5 15.5v35z" />
    <glyph glyph-name="period" unicode="." horiz-adv-x="233" 
d="M117 166q12 0 23 -11q6 -6 18 -16t23.5 -21t20.5 -22t9 -19t-12 -23t-28 -30t-31.5 -26t-22.5 -11q-6 0 -21.5 11.5t-31.5 26.5t-28.5 29.5t-12.5 20.5q0 7 12 22.5t28 30.5t31.5 26.5t22.5 11.5z" />
    <glyph glyph-name="slash" unicode="/" horiz-adv-x="292" 
d="M243 738h31q3 0 8 -1t5 -6q0 -6 -2 -12l-4 -12l-215 -706q-3 -9 -10.5 -12t-16.5 -3h-8.5t-11 0.5t-10 2.5t-4.5 6t1 7.5t2 7.5l215 708q2 7 7 13.5t13 6.5z" />
    <glyph glyph-name="zero" unicode="0" horiz-adv-x="577" 
d="M36 303q0 76 19 150.5t67 135.5q35 45 80 73t105 28q61 0 105.5 -29.5t73 -75t42.5 -101.5t14 -108q0 -58 -16.5 -126t-50.5 -126.5t-85.5 -97.5t-120.5 -39q-45 0 -87 22q-42 21 -70.5 53t-45 71t-23.5 82.5t-7 87.5zM129 419q0 -28 3.5 -66t12 -78.5t23 -80t35.5 -71
t49.5 -50.5t66.5 -19q37 0 62 19.5t40 48.5t21.5 63.5t6.5 64.5q0 114 -46 220q-10 22 -24 49t-33 50t-42.5 38.5t-51.5 15.5q-38 0 -61.5 -21t-37.5 -52t-19 -66.5t-5 -64.5z" />
    <glyph glyph-name="one" unicode="1" horiz-adv-x="383" 
d="M92 577q-15 0 -29.5 -5t-29.5 -5q-12 0 -12 13q0 4 6.5 8t14.5 7.5t16.5 6.5t11.5 4q14 5 33 11t38.5 13.5t37.5 16t31 17.5q5 4 11.5 9t13.5 5q8 0 11 -5t3 -12q0 -23 -3 -45.5t-3 -45.5v-462q0 -27 9.5 -41.5t23.5 -22t30.5 -10t30.5 -4t23.5 -5t9.5 -13.5
q0 -9 -7 -13.5t-15 -4.5q-9 0 -18.5 1t-18.5 2q-34 2 -68 2.5t-69 0.5q-28 0 -55.5 -0.5t-54.5 -3.5q-6 -1 -11.5 -1.5t-11.5 -0.5q-20 0 -20 17q0 10 11.5 15t26.5 8.5l30 7t23 10.5q6 5 9 14t4.5 19t2 20t0.5 17v14l-1 373v22t-3 22t-10.5 17t-21.5 7z" />
    <glyph glyph-name="two" unicode="2" horiz-adv-x="544" 
d="M33 10q0 11 9 22.5t16 19.5q20 23 48.5 56.5t59.5 73t61.5 82.5t55 85t39.5 80.5t15 68.5q0 51 -34 79.5t-83 28.5q-31 0 -57 -10t-45.5 -21.5t-33 -21.5t-19.5 -10t-11 5t-5 11q0 5 5 12.5t12 15t14 14t11 10.5q42 37 86.5 58t101.5 21q33 0 64 -9.5t55 -27.5
t38.5 -45.5t14.5 -63.5q0 -41 -20 -85.5t-50 -88t-65 -84.5t-65 -75t-50 -59t-20 -36q0 -6 8 -9.5t18.5 -5t20.5 -1.5h14q23 0 53.5 0.5t61 4t57.5 12.5t44 27q8 8 19.5 21.5t23.5 14.5q6 -2 10.5 -7t4.5 -11q0 -7 -5 -21t-13.5 -31.5t-19 -36.5t-20.5 -35t-19 -27t-15 -13
q-9 -3 -23 -3.5t-24 -0.5q-55 0 -109 3t-109 3q-27 0 -53.5 -3t-53.5 -3q-8 0 -13.5 4t-5.5 12z" />
    <glyph glyph-name="three" unicode="3" horiz-adv-x="520" 
d="M490 246q0 -56 -24 -103t-63 -82t-89.5 -54.5t-103.5 -19.5q-29 0 -55.5 5t-52.5 16q-8 3 -21 9.5t-25 14.5t-21 17.5t-9 20.5q0 15 16 15q5 0 19 -8.5t35 -18.5t46.5 -18.5t52.5 -8.5q40 0 73 15t57 41t37 60.5t13 73.5q0 54 -30.5 84t-84.5 30q-14 0 -28.5 -3t-28.5 -3
q-19 0 -19 17q0 13 20.5 27t44.5 33.5t44.5 46.5t20.5 66q0 20 -6 39t-18 33.5t-29 23t-39 8.5q-30 0 -53.5 -10t-41 -22.5t-30 -22.5t-20.5 -10q-5 2 -9 6t-4 9q0 11 7 22t17.5 21t22 18t19.5 14q31 20 66 31t72 11q30 0 59 -7t51.5 -22.5t36.5 -40t14 -58.5q0 -23 -8 -43
t-21 -37.5t-30 -32t-34 -27.5q38 -9 66.5 -22.5t48 -34t29.5 -49.5t10 -70z" />
    <glyph glyph-name="four" unicode="4" horiz-adv-x="555" 
d="M4 216q0 11 10 29t24 37.5t27.5 37t21.5 26.5q10 12 34.5 42.5t56.5 68.5t67.5 79.5t67.5 75.5t56.5 56t33.5 22q8 0 11.5 -9.5t4.5 -21.5t0.5 -23.5t-0.5 -16.5v-327h46q11 0 16.5 6.5t9.5 14.5t9 14.5t15 6.5q16 0 16 -19q0 -12 -1.5 -32.5t-6 -40.5t-14.5 -35t-26 -15
h-64v-210q0 -19 -7.5 -25t-24.5 -10t-35 -8t-35 -4q-6 0 -12.5 2.5t-6.5 10.5q0 25 3.5 49t3.5 49v146h-242q-6 0 -16 0.5t-19.5 3t-16.5 7t-7 13.5zM305 292l1 100v27t-0.5 42.5t-2 41t-3.5 23.5q-6 -4 -22 -21t-37 -40.5t-43.5 -51t-42 -52t-32.5 -43t-15 -24.5
q2 0 4.5 -1t4.5 -1h188z" />
    <glyph glyph-name="five" unicode="5" horiz-adv-x="505" 
d="M450 714q12 0 12 -11q0 -4 -3.5 -17t-8.5 -28l-9.5 -28.5t-6.5 -18.5q-8 -20 -16.5 -26.5t-30.5 -6.5h-197q-21 0 -25.5 -7t-7.5 -26q-5 -26 -10.5 -51.5t-5.5 -51.5q0 -8 8.5 -9.5t13.5 -1.5q25 0 49.5 2.5t49.5 2.5q43 0 80.5 -12t65.5 -36t44 -59t16 -80
q0 -57 -23 -105.5t-62 -83t-90 -54t-106 -19.5q-12 0 -40 3t-57.5 9.5t-52 17t-22.5 25.5q0 16 17 16q12 0 29 -6.5t29 -10.5q18 -6 36 -8t37 -2q36 0 70.5 12t61.5 34.5t43 53.5t16 70q0 69 -38 102.5t-105 33.5q-29 0 -57 -2.5t-57 -2.5q-8 0 -10.5 5.5t-2.5 12.5
q0 11 1.5 20t3.5 20l42 254q3 15 9 22.5t14.5 10t19.5 2t23 -0.5h175q23 0 34.5 5.5t18 12.5t11 12.5t14.5 5.5z" />
    <glyph glyph-name="six" unicode="6" 
d="M28 264q0 72 25 137.5t68.5 119t102.5 92t127 58.5q26 8 52.5 13.5t52.5 5.5q8 0 16.5 -2.5t8.5 -13.5q0 -9 -6.5 -14t-15 -8t-18 -5t-15.5 -3q-72 -17 -127 -61.5t-91 -107.5q-8 -14 -19 -35.5t-11 -37.5q0 -5 0.5 -8.5t7.5 -3.5q5 0 22 7.5t39.5 16t48.5 16t49 7.5
q43 0 77 -16t57.5 -43t36 -63.5t12.5 -77.5q0 -56 -18.5 -102t-51.5 -79t-79 -51t-101 -18q-62 0 -109 21t-78.5 58.5t-47 88t-15.5 109.5zM143 231q0 -33 10 -68.5t30 -65t49 -48t67 -18.5q31 0 52.5 12.5t35.5 33t20.5 46.5t6.5 53q0 32 -8.5 66t-26 62.5t-45 46.5
t-64.5 18q-30 0 -53.5 -11t-40 -30t-25 -44t-8.5 -53z" />
    <glyph glyph-name="seven" unicode="7" horiz-adv-x="478" 
d="M457 640q0 -37 -13 -80t-32.5 -89t-42.5 -95t-42.5 -97.5t-32.5 -96t-13 -91.5q0 -26 8.5 -51.5t8.5 -51.5q0 -15 -12.5 -22.5t-29 -11.5t-34 -4.5t-27.5 -0.5q-19 0 -29 10.5t-15 25.5t-6 32.5t-1 31.5q0 38 11.5 74.5t29 71t39.5 66.5t43 62q30 43 57 87.5t50 91.5
q5 10 12 26t7 27q0 9 -7 16t-16 7h-112.5t-112.5 -1q-27 0 -41 -15t-22.5 -32t-15.5 -31.5t-19 -14.5q-13 0 -17 8t-4 19q0 8 4 29.5t10 45.5t12 45t10 27q8 14 20.5 17t28.5 3h299q23 0 35 -6t12 -32z" />
    <glyph glyph-name="eight" unicode="8" horiz-adv-x="576" 
d="M76 498q0 48 20 84t53 60t74.5 36t84.5 12q35 0 72 -10.5t67 -30.5t49 -50.5t19 -70.5q0 -29 -9 -50.5t-24.5 -38t-37 -28t-46.5 -21.5q31 -17 57 -35t45 -41t29 -52t10 -67q0 -55 -22 -94.5t-58 -64.5t-82.5 -37t-95.5 -12q-45 0 -89 11.5t-79.5 35t-57 60.5t-21.5 88
q0 33 9 58t24.5 45t38 35.5t49.5 30.5q-36 29 -57.5 64t-21.5 83zM201 324q-44 -15 -59 -43.5t-15 -72.5q0 -39 12 -71.5t34 -56t53.5 -36.5t71.5 -13q28 0 54.5 6.5t47.5 21t33.5 36.5t12.5 54q0 30 -11.5 51.5t-30 36.5t-42.5 26t-48 20q-29 11 -56.5 20.5t-56.5 20.5z
M169 543q0 -25 18 -46.5t44 -38t55 -26t50 -9.5q44 0 65 30t21 70q0 27 -11 49.5t-30 39t-43 25.5t-50 9q-23 0 -44.5 -7t-38 -20t-26.5 -32t-10 -44z" />
    <glyph glyph-name="nine" unicode="9" 
d="M32 433q0 55 17.5 102.5t50 81.5t78.5 53.5t103 19.5q60 0 106.5 -20t78.5 -55.5t48.5 -84.5t16.5 -107q0 -94 -35 -169.5t-94.5 -130.5t-138 -89t-165.5 -46q-5 -1 -14 -1q-5 0 -11 0.5t-11 2t-9 5t-4 10.5q0 12 9.5 15t18.5 5q106 19 177.5 73.5t112.5 156.5q4 10 4 16
l-2 4l-5 2q-4 0 -7 -1.5l-7 -3.5q-34 -17 -65.5 -24t-69.5 -7q-42 0 -76 14.5t-57.5 40.5t-36.5 61t-13 76zM147 496q0 -33 7.5 -66t24 -60t43.5 -44t65 -17q32 0 56.5 11t40.5 30.5t24 46t8 56.5q0 33 -9 67.5t-27 62t-46 45.5t-66 18q-32 0 -55 -13t-37.5 -34t-21.5 -48
t-7 -55z" />
    <glyph glyph-name="colon" unicode=":" horiz-adv-x="239" 
d="M120 166q5 0 12 -3.5t11 -7.5q5 -5 17 -15t24 -22t21 -23t9 -18t-12 -22t-28 -30t-32 -26.5t-23 -11.5q-6 0 -21.5 11.5t-31.5 26.5t-28.5 29.5t-12.5 20.5q0 7 12.5 22.5t28.5 30.5t31.5 26.5t22.5 11.5zM119 427q7 0 22.5 -11t31.5 -26t28.5 -30t12.5 -22t-12 -22
t-28.5 -30t-32.5 -26.5t-23 -11.5q-5 0 -20 12t-31.5 27t-29 29.5t-12.5 19.5q0 11 6 17t13 12q6 5 15.5 15.5t20.5 21t21.5 18t17.5 7.5z" />
    <glyph glyph-name="semicolon" unicode=";" horiz-adv-x="239" 
d="M28 -136q0 6 12 14.5t26 22t26 33.5t12 48q0 19 -11.5 33.5t-25 25.5t-24.5 20t-11 16t12.5 21.5t28.5 29t32 25.5t23 11q17 0 32 -12t26 -29t17.5 -36.5t6.5 -34.5q0 -27 -10 -53t-26 -49.5t-36.5 -43t-42.5 -33.5q-4 -3 -11 -7t-14.5 -8t-14.5 -7t-12 -3q-15 0 -15 16z
M126 427q11 0 22 -11l18 -15t24 -21.5t21 -23t9 -18.5t-12 -22t-28 -30t-31.5 -26.5t-22.5 -11.5q-8 0 -13 3.5t-10 8.5t-17 15t-24 21t-21 22t-9 18t12 22.5t28 30.5t31.5 26.5t22.5 11.5z" />
    <glyph glyph-name="less" unicode="&#x3c;" horiz-adv-x="682" 
d="M3 268v73l628 269v-96l-498 -211l498 -207v-96l-628 268v0z" />
    <glyph glyph-name="equal" unicode="=" horiz-adv-x="721" 
d="M49 223q0 5 0.5 8t2.5 7q7 4 16 4l594 -2l5 -2q2 -2 2.5 -7.5t0.5 -8.5v-34q0 -13 -4 -16t-16 -3l-598 3q-2 4 -2.5 7t-0.5 8v36zM49 402q0 8 1 12q3 5 8 5.5t10 0.5l599 -3q2 -2 2.5 -8t0.5 -8v-34q0 -7 -1 -11t-7 -7q-3 0 -6 -0.5t-6 -0.5l-598 4q-3 4 -3 14v36z" />
    <glyph glyph-name="greater" unicode="&#x3e;" horiz-adv-x="682" 
d="M679 342v-73l-628 -269v96l499 211l-499 207v96l628 -268v0z" />
    <glyph glyph-name="question" unicode="?" horiz-adv-x="344" 
d="M149 166q13 0 24 -11q5 -5 17 -15.5t24 -22t21 -22.5t9 -18q0 -8 -12 -23t-28 -30t-31.5 -26t-22.5 -11t-22.5 11.5t-31.5 26t-28 29t-12 20.5q0 11 4.5 17t12.5 13q6 6 15.5 16t20.5 20.5t21.5 18t18.5 7.5zM179 696q25 0 51 -7t47 -21t34 -35.5t13 -50.5
q0 -25 -12 -49.5t-30.5 -49.5t-39.5 -50t-39 -50.5t-30 -51.5t-11 -52q0 -7 0.5 -13.5t0.5 -13.5t-2.5 -12t-10.5 -5q-9 0 -15.5 8t-11 19.5t-6.5 23t-2 18.5q0 34 12 66.5t27 65t27 65t12 65.5q0 29 -20.5 46t-48.5 17q-18 0 -30.5 -6.5t-21.5 -14t-15.5 -14t-13.5 -6.5
q-15 0 -15 15q0 22 17 39.5t41 29.5t49.5 18t43.5 6z" />
    <glyph glyph-name="at" unicode="@" horiz-adv-x="918" 
d="M368 10q-63 0 -97.5 37t-34.5 98q0 51 21.5 109.5t58 107.5t86 81.5t106.5 32.5q23 0 40.5 -4.5t32 -13.5t26.5 -22.5t24 -32.5l22 55h95l-142 -323q-5 -12 -8.5 -24.5t-3.5 -26.5t9 -21t22 -7q16 0 30 5.5t28 13.5q33 18 60.5 44.5t48 59t31.5 69t11 74.5q0 63 -27 113
t-71 85t-100 53.5t-114 18.5q-79 0 -154.5 -31.5t-134 -85.5t-94 -126t-35.5 -153q0 -74 33 -127.5t86 -88t118 -50.5t130 -16q45 0 84.5 6.5t76 19t72 31.5t72.5 44l36 -22q-81 -64 -167.5 -98t-191.5 -34q-73 0 -147.5 20.5t-135 61.5t-98.5 103t-38 145q0 95 38.5 177.5
t103 144t149.5 97t178 35.5q70 0 138 -21t122 -62t87 -100.5t33 -136.5q0 -58 -22.5 -115.5t-62 -104t-92.5 -75.5t-114 -29q-36 0 -55 14.5t-26 50.5q-34 -25 -67 -40.5t-76 -15.5zM319 115q0 -31 20 -48.5t50 -17.5q29 0 50.5 14.5t39.5 35.5q17 20 37.5 55.5t38 74.5
t29.5 77.5t12 64.5q0 29 -18 47.5t-47 18.5q-26 0 -52 -17.5t-49.5 -45.5t-44 -63.5t-35 -71.5t-23 -68.5t-8.5 -55.5z" />
    <glyph glyph-name="A" unicode="A" horiz-adv-x="814" 
d="M402 709q13 0 21 -15.5t13 -25.5l267 -574q8 -18 24 -38t36 -26q9 -2 23 -5.5t14 -16.5q0 -8 -6.5 -11t-13.5 -3q-36 0 -72 3t-72 3q-34 0 -67 -3t-67 -3q-7 0 -14 3.5t-7 11.5q0 12 11.5 16t25.5 9.5t25.5 16.5t11.5 37q0 12 -3.5 23t-8.5 22l-38 79q-11 23 -27 27
t-39 4h-140q-31 0 -48.5 -7t-28 -20.5t-18 -32.5t-17.5 -44q-4 -9 -7.5 -18.5t-3.5 -20.5q0 -27 17.5 -39.5t39 -18.5t39 -11.5t17.5 -19.5q0 -10 -6.5 -13.5t-14.5 -3.5q-29 0 -56.5 3t-56.5 3t-57.5 -3t-57.5 -3q-8 0 -16 3.5t-8 12.5q0 4 9 11.5t21 15.5t23 16t15 13
q14 16 22.5 35.5t17.5 38.5l252 538q3 7 10 19t16 12zM264 306q0 -10 11 -11.5t18 -1.5h160q6 0 11 3t5 10q0 4 -6 19t-16 36t-21.5 45t-22 45.5t-19.5 38t-12 22.5q-3 5 -10 7q-3 -2 -11.5 -17.5t-19.5 -38t-22.5 -48.5t-21.5 -49t-16.5 -39.5t-6.5 -20.5z" />
    <glyph glyph-name="B" unicode="B" horiz-adv-x="726" 
d="M690 216q0 -56 -20.5 -97.5t-55 -69t-81 -41.5t-97.5 -14q-49 0 -97.5 3.5t-97.5 3.5q-38 0 -76 -2.5t-76 -4.5q-8 -1 -14.5 3.5t-6.5 13.5q0 6 4 10t10 7.5t12 6t10 4.5q26 14 32 36t6 48v424q0 17 -2 38.5t-9 37.5q-9 19 -25 28t-32 13.5t-28 8t-12 12.5q0 11 8.5 14
t16.5 3q28 0 56 -3t56 -3q52 0 103 3t103 3q43 0 88 -7.5t82.5 -27t61.5 -53.5t24 -86q0 -51 -23 -82.5t-67 -55.5q32 -12 59 -26.5t46.5 -35t30.5 -48t11 -64.5zM273 157q0 -34 8 -56t23.5 -34.5t39.5 -17.5t56 -5q69 0 113.5 38t44.5 110q0 46 -18.5 75t-48.5 45.5
t-67.5 23t-75.5 6.5q-24 0 -39 -2.5t-23 -10.5t-10.5 -22.5t-2.5 -38.5v-111zM273 457q0 -39 15.5 -52.5t53.5 -13.5q29 0 57.5 1.5t51 11.5t36.5 31t14 59q0 34 -11.5 63t-32.5 50t-49.5 33t-62.5 12q-24 0 -38 -4.5t-21.5 -14.5t-10 -25.5t-2.5 -36.5v-114z" />
    <glyph glyph-name="C" unicode="C" horiz-adv-x="756" 
d="M34 330q0 80 29 149.5t79.5 120.5t119.5 80t149 29q47 0 93 -10.5t89 -29.5q10 -5 24.5 -12t25.5 -7q7 0 10.5 4.5t7 10t7.5 10t11 4.5q11 0 15 -10.5t5 -18.5q2 -16 2 -31.5t2 -31.5q2 -29 6.5 -58.5t4.5 -58.5q0 -8 -3.5 -14.5t-12.5 -6.5t-19.5 15.5t-26 39t-37 50.5
t-51 50.5t-68.5 39t-90 15.5q-59 0 -104 -21t-75 -57t-45.5 -84.5t-15.5 -103.5q0 -58 18.5 -116.5t53 -105t85 -76t114.5 -29.5q62 0 108.5 20.5t79.5 44.5t52.5 44.5t27.5 20.5q7 0 12 -5.5t5 -12.5t-5 -16t-12 -18t-14.5 -17t-12.5 -13q-60 -61 -131.5 -94t-157.5 -33
q-78 0 -143.5 23.5t-112.5 68t-73 108t-26 143.5z" />
    <glyph glyph-name="D" unicode="D" horiz-adv-x="839" 
d="M36 683q0 12 7.5 15.5t17.5 3.5q29 0 59 -3t59 -3q63 0 125 3.5t125 3.5q73 0 141 -20.5t120 -60.5t83 -100.5t31 -139.5q0 -42 -8.5 -81.5t-26.5 -77.5q-55 -115 -142 -172t-216 -57q-45 0 -89 3t-89 3q-34 0 -67 -3t-67 -3q-9 0 -18.5 2.5t-9.5 14.5q0 10 8 14.5
t19 9.5t22 12.5t17 22.5q5 14 6 33.5t1 34.5v404q0 22 -2.5 50t-18.5 45q-6 6 -20.5 11.5t-29 10.5t-26 10.5t-11.5 13.5zM276 172q0 -34 5 -58.5t18.5 -40t37 -22.5t60.5 -7q69 0 120.5 21t86 59t51.5 92t17 120q0 60 -18.5 115.5t-53 99t-85 71t-113.5 29.5q-12 1 -23.5 1
h-23.5q-41 0 -60 -12t-19 -57v-411z" />
    <glyph glyph-name="E" unicode="E" horiz-adv-x="690" 
d="M31 686q0 10 6.5 13t14.5 3q66 0 130.5 -3t130.5 -3q63 0 125 3t125 3q15 0 22 -8t9.5 -20t2 -25t-0.5 -23q0 -16 1 -31.5t1 -31.5q0 -9 -6.5 -15.5t-15.5 -6.5q-10 0 -15.5 10t-10 23.5t-9.5 27.5t-15 22q-9 7 -21 11.5t-25.5 7t-27.5 3t-25 0.5h-105q-24 0 -32 -10.5
t-8 -33.5v-182q0 -18 15 -22t29 -4q11 0 27.5 -0.5t34 0.5t33 3.5t24.5 7.5t18.5 17.5t18.5 25.5t17.5 23t14.5 10q11 0 14 -10.5t3 -18.5q0 -22 -3.5 -43.5t-3.5 -44.5q0 -25 3.5 -49.5t3.5 -49.5q0 -11 -4 -16.5t-15 -5.5q-14 0 -18.5 10t-8.5 24.5t-10.5 29.5t-23.5 24
q-10 5 -24 8t-30 4t-31 1h-26q-9 0 -19.5 -1t-19 -4.5t-14 -10.5t-5.5 -19q0 -45 -0.5 -90t-0.5 -91q0 -36 13 -57t54 -21q60 0 120 14t106 56q4 4 12.5 13.5t18.5 20t18.5 18.5t12.5 8q11 0 14 -8t3 -17q0 -15 -4.5 -29t-10.5 -28q-23 -53 -59.5 -78.5t-95.5 -25.5
q-46 0 -92 3t-92 3q-49 0 -98 -3t-98 -3q-8 0 -17 2.5t-9 13.5q0 10 9 14t21 9.5t23.5 16.5t16.5 35q3 15 3.5 30t0.5 30v404q0 17 -2 42t-12 39q-11 16 -29 23t-35 10.5t-29.5 7.5t-12.5 15z" />
    <glyph glyph-name="F" unicode="F" horiz-adv-x="619" 
d="M148 566q0 22 -4.5 44t-24.5 36q-6 4 -20.5 8t-30 9t-27.5 10.5t-12 12.5q0 10 6.5 13t14.5 3q66 0 131.5 -3t131.5 -3q62 0 123.5 3t124.5 3q29 0 30 -29l5 -110q1 -9 -5.5 -15.5t-15.5 -6.5q-11 0 -16.5 10t-10 23.5t-9.5 27.5t-14 22q-18 15 -47 18.5t-52 3.5h-105
q-24 0 -32.5 -10.5t-8.5 -33.5v-149q0 -26 3 -38.5t11.5 -17t24 -4t39.5 0.5h20.5t23.5 1t22.5 3.5t18.5 6.5q9 5 18.5 17.5t18.5 26t17 23.5t14 10q11 0 14.5 -7.5t3.5 -16.5q0 -23 -3.5 -45t-3.5 -45q0 -26 3.5 -52t3.5 -52q0 -9 -4 -15t-14 -6q-12 0 -17.5 8t-8.5 18
q-7 24 -15 39t-20 22.5t-29 10t-42 2.5q-12 0 -28.5 1t-32.5 -1.5t-27 -10t-11 -24.5v-157q0 -26 3 -46t12 -35.5t26 -25.5t45 -14q9 -2 21.5 -3.5t12.5 -14.5q0 -11 -8 -14.5t-17 -3.5q-41 0 -81.5 3t-81.5 3q-29 0 -58 -3t-58 -3q-8 0 -14.5 3.5t-6.5 13.5q0 6 4 10
t10 7.5t12 6t10 4.5q25 12 31.5 34t6.5 47z" />
    <glyph glyph-name="G" unicode="G" horiz-adv-x="820" 
d="M36 315q0 81 27 153t76.5 125.5t118 84.5t152.5 31q54 0 106 -12t101 -35l21 -10.5t21 -6.5q7 0 11 4.5t7.5 10.5t7.5 10.5t11 4.5q12 0 15.5 -9.5t3.5 -19.5q0 -24 -2 -47.5t-2 -47.5q0 -20 3 -40.5t3 -40.5q0 -9 -4 -17.5t-15 -8.5t-16 7.5t-9 15.5q-8 19 -15.5 37
t-18.5 35q-38 57 -100 88.5t-130 31.5q-65 0 -111 -24.5t-75 -66t-42 -95t-13 -111.5q0 -56 13.5 -114t43 -105t75.5 -76.5t112 -29.5q22 0 43 4t41 11q27 9 44 19t27 24t13.5 33.5t3.5 47.5q0 30 -2 50t-11 33t-27 20t-50 12q-9 2 -19.5 4.5t-10.5 14.5q0 11 9.5 14t17.5 3
q38 0 75 -3t75 -3q31 0 61 3t61 3q8 0 17.5 -2.5t9.5 -14.5q0 -10 -7.5 -13.5t-14.5 -5.5q-30 -11 -41 -31t-11 -52l1 -98q0 -12 -6.5 -20t-16.5 -13q-26 -14 -53.5 -25t-54.5 -21q-53 -19 -105.5 -31.5t-109.5 -12.5q-72 0 -138 27q-102 42 -149.5 117t-47.5 184z" />
    <glyph glyph-name="H" unicode="H" horiz-adv-x="936" 
d="M36 685q0 9 8.5 13t16.5 4q37 0 74 -3t74 -3q33 0 66 3t66 3q20 0 20 -17q0 -5 -4 -9.5t-9.5 -8t-11.5 -6t-10 -4.5q-25 -13 -32 -33.5t-7 -46.5l1 -128q0 -18 0.5 -29t5 -17t15 -7.5t30.5 -1.5h277q21 0 26.5 9.5t5.5 28.5v114q0 26 -2.5 46t-11.5 34.5t-26 24t-45 15.5
q-4 1 -10 2t-11.5 3t-9.5 5.5t-4 8.5q0 12 9 14.5t18 2.5q38 0 74.5 -3t74.5 -3q32 0 64 3t64 3q8 0 15 -3.5t7 -13.5q0 -12 -14 -18t-22 -10q-25 -12 -32 -33.5t-7 -46.5l1 -426q0 -25 3 -45.5t12 -35.5t25.5 -25.5t44.5 -14.5q4 -1 10.5 -1.5t11.5 -2t9 -4.5t4 -10
q0 -11 -8 -14.5t-17 -3.5q-41 0 -81.5 3t-81.5 3q-29 0 -58 -3t-58 -3q-8 0 -14.5 3.5t-6.5 13.5q0 13 11.5 17t25.5 11.5t25.5 24t11.5 53.5q0 45 -0.5 90t-0.5 90q0 14 -4.5 30t-23.5 16h-304q-18 0 -23 -9t-5 -25q0 -6 -0.5 -23t-1 -40.5t-0.5 -50t1.5 -51.5t5 -45
t8.5 -29q11 -18 29 -26t35.5 -11.5t30 -7t12.5 -13.5q0 -11 -8 -14.5t-17 -3.5q-40 0 -79 3t-79 3q-32 0 -62.5 -3t-62.5 -3q-17 0 -17 17q0 10 8.5 15t19.5 10t22 12t16 22q5 14 6 33t1 35v408q0 26 -3 46t-12 34.5t-25.5 24.5t-44.5 15q-8 1 -21.5 4t-13.5 15z" />
    <glyph glyph-name="I" unicode="I" horiz-adv-x="413" 
d="M21 685q0 13 13 15t22 2q35 0 70 -3t70 -3q32 0 64.5 3t64.5 3q8 0 14.5 -3.5t6.5 -13.5q0 -6 -5.5 -11.5t-13.5 -9.5t-16 -7.5t-12 -6.5q-19 -14 -23 -36.5t-4 -43.5v-419q0 -17 2.5 -41.5t11.5 -39.5q11 -18 29 -26t35.5 -11.5t30 -7t12.5 -13.5q0 -11 -8 -14.5
t-17 -3.5q-39 0 -78 3t-78 3q-31 0 -62 -3t-62 -3q-8 0 -14.5 4t-6.5 13q0 6 4 10t10 7.5t12 6t10 4.5q26 13 32 35.5t6 48.5v423q0 19 -2 41t-12 39q-11 18 -29 26t-35 12t-29.5 7.5t-12.5 13.5z" />
    <glyph glyph-name="J" unicode="J" horiz-adv-x="414" 
d="M71 685q0 9 8 13t16 4q37 0 74 -3t74 -3q33 0 66 3t66 3q8 0 14.5 -3.5t6.5 -13.5q0 -8 -6 -12t-11 -7q-25 -14 -37 -25t-16.5 -24t-4 -30.5t0.5 -43.5v-441q0 -72 -25.5 -129t-78.5 -105q-21 -20 -49 -37t-58 -17q-9 0 -23.5 3t-29 9t-24.5 14.5t-10 20.5q0 6 3 22.5
t7.5 34t11 30.5t14.5 13q9 0 20 -11t23 -23.5t24.5 -23.5t23.5 -11q15 0 23.5 18.5t12 43t4 48t0.5 33.5q0 128 -0.5 255.5t-0.5 255.5q0 18 -2 41t-11 39q-11 18 -28.5 25.5t-35 12t-30 8t-12.5 13.5z" />
    <glyph glyph-name="K" unicode="K" horiz-adv-x="819" 
d="M36 687q0 9 9 12t16 3q39 0 78.5 -3t79.5 -3q28 0 55.5 3t54.5 3q8 0 14 -4t6 -13q0 -6 -6.5 -11.5t-15 -10.5t-17.5 -9t-13 -8q-15 -13 -18 -33.5t-3 -38.5q0 -15 -1 -49t-1 -70t1 -65.5t4 -36.5l6 -3q4 0 19.5 13t36 32t44.5 41.5t46 43.5t38.5 37.5l23.5 23.5
q8 7 21 20t26 27t22 28.5t9 25.5q0 13 -10 18t-21.5 7t-21.5 5t-10 14q0 10 7 13t15 3q29 0 56.5 -3t56.5 -3q27 0 54 3t54 3q8 0 15 -2.5t7 -12.5q0 -8 -13 -15t-20 -9q-12 -5 -25 -9t-24 -11q-8 -5 -30 -23t-50 -42.5t-58 -52t-55.5 -51.5t-42 -42.5t-16.5 -23.5
q0 -4 16 -27t40 -55.5t53.5 -70t56.5 -72t47.5 -61t28.5 -35.5q14 -17 31 -33.5t39 -23.5q6 -2 19 -7t13 -13q0 -9 -6.5 -12.5t-14.5 -3.5q-20 0 -38.5 3t-38.5 3q-17 0 -34.5 -3t-34.5 -3q-12 0 -23.5 9t-22 21t-19.5 25t-15 22l-177 234q-5 6 -10.5 11t-13.5 5
q-19 -11 -39 -28.5t-20 -41.5v-99q0 -21 3.5 -48t18.5 -44q6 -7 20.5 -12.5t28.5 -10.5t25 -11t11 -13q0 -19 -21 -19q-40 0 -79.5 3t-79.5 3q-29 0 -58 -3t-58 -3q-8 0 -12 5t-4 13q0 5 4 9.5t9.5 7.5t11.5 5.5t10 4.5q25 13 32 32.5t7 45.5l-1 429q0 16 -1 31.5t-5.5 29.5
t-13.5 25t-26 19q-6 3 -16.5 5.5t-20.5 6t-17.5 9.5t-7.5 15z" />
    <glyph glyph-name="L" unicode="L" horiz-adv-x="668" 
d="M151 546q0 17 -2 41t-11 39q-11 17 -29 25t-35 12.5t-30 8.5t-13 13q0 10 8.5 13.5t16.5 3.5q37 0 74 -3t74 -3q33 0 65.5 3t65.5 3q8 0 14.5 -3t6.5 -13q0 -12 -13.5 -18t-22.5 -11q-26 -14 -31.5 -39.5t-5.5 -51.5q0 -112 0.5 -224t0.5 -225q0 -39 13.5 -53t53.5 -14
q53 0 108.5 10.5t99.5 42.5q20 14 35.5 32.5t31.5 37.5q3 3 5.5 5t7.5 2q9 0 13 -7t4 -15q0 -35 -13.5 -63t-35.5 -54q-23 -28 -53 -37.5t-65 -9.5q-47 0 -93.5 3t-93.5 3q-51 0 -101 -3t-101 -3q-8 0 -15 3.5t-7 12.5t8 13t18.5 9.5t21.5 13.5t18 25q3 6 4 19.5t2 28
t1 28.5v22v377z" />
    <glyph glyph-name="M" unicode="M" horiz-adv-x="1010" 
d="M158 504q0 23 -2 51t-11 50q-11 26 -29 38t-35 18t-29 10.5t-12 15.5q0 10 7.5 12.5t15.5 2.5q14 0 26 -3t26 -3q24 0 47.5 3t47.5 3q18 0 30 -7.5t20 -19t14 -26t13 -27.5q5 -12 23.5 -48.5t42.5 -85t50.5 -102.5t49.5 -99t38 -74.5t17 -30.5q1 -1 4 -1q7 2 11.5 8.5
t7.5 12.5l238 477q11 23 36 23q15 0 30 -3t30 -3q14 0 26.5 3t26.5 3q8 0 14.5 -4t6.5 -13t-9.5 -13t-22.5 -8.5t-26 -12.5t-20 -26q-3 -6 -4 -18t-1.5 -24.5t-0.5 -25v-19.5q0 -83 4 -165t7 -164q1 -26 2.5 -53t7.5 -53q8 -35 24 -49t32.5 -19.5t29 -8.5t12.5 -17
q0 -9 -9.5 -12t-16.5 -3q-37 0 -73 3t-73 3q-29 0 -56.5 -3t-56.5 -3q-9 0 -18.5 4t-9.5 15q0 8 8 12t19.5 8.5t22.5 11.5t17 22q4 10 5 25t1 26q0 87 -4 173t-7 173l-5 3l-3 -2q-55 -115 -110.5 -227.5t-112.5 -226.5q-4 -8 -9.5 -16t-15.5 -8q-9 0 -15 6.5t-10 14.5
l-223 455l-8 -11q-2 -11 -2 -22t-1 -22q-3 -60 -5.5 -119t-2.5 -119q0 -17 0.5 -35t5.5 -35q7 -27 24 -39.5t34.5 -18.5t30.5 -10.5t13 -16.5t-8.5 -16.5t-19.5 -4.5q-26 0 -51 3t-51 3q-29 0 -58 -3t-58 -3q-8 0 -15 4.5t-7 13.5q0 15 11 20t26 11t30.5 18.5t23.5 43.5
q5 20 7.5 41t3.5 42q4 79 10 157.5t6 158.5z" />
    <glyph glyph-name="N" unicode="N" horiz-adv-x="915" 
d="M155 532q0 26 -7 53t-27 46q-20 18 -37 24t-40 14q-6 2 -7.5 5.5t-1.5 9.5q0 12 9.5 15t19.5 3q18 0 35.5 -3.5t34.5 -3.5q21 0 42 3.5t42 3.5q14 0 25.5 -7t21 -16.5t17.5 -20.5t17 -20l391 -401q5 -5 13.5 -13t16.5 -8q4 0 6.5 9t3.5 21t1 23v14v239q0 18 -2 38.5
t-7 37.5q-9 31 -30 44t-42 18.5t-37 9t-16 15.5q0 11 8 14t17 3q26 0 51.5 -3t51.5 -3q31 0 62 3t62 3q8 0 19 -2t11 -13t-10.5 -15.5t-25 -11t-29 -20t-22.5 -43.5q-6 -23 -7 -48t-1 -49v-483q0 -7 -3.5 -18.5t-12.5 -11.5q-11 0 -20.5 10.5t-16.5 17.5l-511 516l-4 -1
q-3 -3 -4.5 -10t-2.5 -15t-1 -16v-12q0 -28 -1 -74t-1 -97t2 -100t8 -83q8 -44 33 -65t68 -28q8 -2 16.5 -5t8.5 -13q0 -11 -8 -14.5t-18 -3.5q-35 0 -71 3t-71 3q-23 0 -45 -3t-45 -3q-8 0 -15.5 2t-7.5 12q0 11 9.5 15t17.5 7q31 13 44 41.5t16 59.5q4 35 5.5 69t1.5 69
v263z" />
    <glyph glyph-name="O" unicode="O" horiz-adv-x="820" 
d="M36 327q0 88 28 159t79.5 120.5t123.5 76t159 26.5q73 0 138.5 -23.5t114 -67t77 -105.5t28.5 -138q0 -88 -28 -159.5t-79 -122.5t-122.5 -78.5t-159.5 -27.5q-77 0 -143 23t-114 67t-75 107t-27 143zM168 384q0 -58 12.5 -119.5t41.5 -112t76.5 -83t117.5 -32.5
q63 0 107.5 24.5t73.5 65.5t42.5 93.5t13.5 108.5q0 60 -16 119t-48.5 106t-82.5 76t-117 29q-63 0 -105.5 -22.5t-68 -60t-36.5 -87.5t-11 -105z" />
    <glyph glyph-name="P" unicode="P" horiz-adv-x="652" 
d="M33 688q0 9 10 11.5t17 2.5q35 0 70.5 -3t70.5 -3q49 0 98 3t98 3q46 0 89 -12.5t76 -38t52.5 -63t19.5 -88.5q0 -48 -19 -84.5t-51 -61t-73 -37t-85 -12.5q-10 0 -26.5 0.5t-33 4t-28.5 11.5t-12 22q0 17 19 17q12 0 24.5 -2.5t24.5 -2.5q63 0 95.5 39.5t32.5 99.5
q0 34 -11 63t-31.5 50t-49 33t-62.5 12q-26 0 -41 -6t-23 -17.5t-10 -29t-2 -39.5v-406q0 -16 1 -32t5.5 -31t14 -26.5t26.5 -18.5q5 -2 15.5 -5t20.5 -7t17.5 -9.5t7.5 -12.5q0 -11 -9 -14.5t-17 -3.5q-37 0 -73.5 3t-73.5 3q-29 0 -59 -3t-59 -3q-9 0 -15.5 3t-6.5 14
q0 6 4 10.5t10 7.5t12 5.5t10 4.5q26 13 32 35.5t6 48.5v419q0 18 -1 39t-9 37q-9 19 -25.5 27t-32.5 13t-28 10.5t-12 19.5z" />
    <glyph glyph-name="Q" unicode="Q" horiz-adv-x="817" 
d="M169 50q-66 60 -100 125.5t-34 156.5q0 89 28.5 159t80 118.5t124 74t159.5 25.5q75 0 139.5 -24t111.5 -68t74 -106t27 -139q0 -142 -72.5 -235.5t-205.5 -138.5q20 -13 42.5 -28t47 -28t49.5 -21.5t49 -8.5q12 0 23.5 4t21 9t17 9t12.5 4q16 0 16 -15q0 -8 -8.5 -17.5
t-19.5 -18.5t-23 -16.5t-18 -11.5q-24 -14 -49.5 -24t-54.5 -10q-33 0 -69 13.5t-72.5 33.5t-71.5 43t-66 43t-56 33.5t-41 13.5q-21 0 -36.5 -9.5t-26 -24t-17.5 -32.5t-11 -35q-3 -12 -5.5 -18.5t-17.5 -6.5q-5 0 -8.5 4.5t-5.5 10.5t-2.5 12t-0.5 9q0 45 18.5 76t51.5 59
zM167 392q0 -57 12.5 -120t41 -116.5t76 -88.5t116.5 -35q63 0 107 26t72.5 68t41.5 95t13 108q0 59 -16 118t-48.5 106t-82 76.5t-116.5 29.5q-61 0 -102.5 -21.5t-67 -58.5t-36.5 -85t-11 -102z" />
    <glyph glyph-name="R" unicode="R" horiz-adv-x="792" 
d="M33 687q0 11 9.5 13t17.5 2q39 0 77.5 -3t77.5 -3q51 0 100.5 3t100.5 3q42 0 81.5 -12t70.5 -35.5t50 -58.5t19 -81q0 -42 -20.5 -80.5t-57.5 -58.5q-3 -2 -9.5 -5t-13.5 -7t-12.5 -8t-5.5 -7q0 -4 8.5 -20t21 -38.5t28 -49t29.5 -50t25 -42t15 -25.5q6 -9 13.5 -22
t17.5 -24.5t21.5 -19.5t23.5 -8q8 0 15 3t15 3q15 0 15 -16q0 -14 -13.5 -24t-31.5 -16.5t-36.5 -9.5t-28.5 -3q-38 0 -68 22t-55 56.5t-45.5 75t-39.5 77t-37 64.5t-37 36q-14 6 -31 6.5t-32 0.5q-12 0 -25.5 -3t-13.5 -19v-156q0 -23 2 -41.5t9 -33t21 -25t38 -17.5
q4 -1 10.5 -2.5t12.5 -4t10.5 -6t4.5 -8.5q0 -10 -9 -12.5t-17 -2.5q-37 0 -74 3t-74 3q-29 0 -59 -3t-59 -3q-8 0 -14.5 3.5t-6.5 13.5q0 6 4 10.5t10 7.5t12 5.5t10 4.5q26 13 32 37t6 50v421q0 23 -2 42t-9.5 34t-22.5 26t-40 17q-8 2 -21 5.5t-13 15.5zM272 420
q0 -23 5 -34.5t30 -11.5q33 0 68 0.5t64 9.5t47.5 31.5t18.5 67.5q0 36 -11 66.5t-31 53.5t-49.5 36t-66.5 13q-21 0 -35.5 -2.5t-23.5 -10t-12.5 -21t-3.5 -35.5v-163z" />
    <glyph glyph-name="S" unicode="S" horiz-adv-x="550" 
d="M35 229q0 8 5 14t14 6q10 0 19 -15.5t20 -39.5t25.5 -51t36.5 -51t52.5 -39.5t73.5 -15.5q27 0 52 9t44 25.5t30.5 39.5t11.5 52q0 44 -27 70t-67.5 44.5t-87.5 35t-87.5 40.5t-67.5 61t-27 98q0 45 17 81.5t45.5 62t67 39.5t82.5 14q21 0 44 -6.5t44 -14t38.5 -14
t28.5 -6.5q17 0 28.5 7t22.5 7t13.5 -10.5t2.5 -18.5q0 -9 -1 -18t-1 -17q0 -32 6.5 -62t6.5 -62q0 -8 -3.5 -15t-13.5 -7q-11 0 -17.5 8t-9.5 17q-2 6 -4 12.5t-4 12.5q-10 30 -28 55t-42 43.5t-53 28.5t-61 10q-22 0 -43 -6t-37 -18t-26 -30.5t-10 -42.5q0 -38 27 -61
t67.5 -40.5t87.5 -34.5t87.5 -43.5t67.5 -67.5t27 -107q0 -47 -17 -87.5t-47 -70t-70.5 -46.5t-87.5 -17q-39 0 -74.5 10t-72.5 21q-15 4 -26.5 5.5t-20.5 5t-15.5 11t-11.5 25.5t-11 39t-11 42.5t-8.5 43t-3.5 39.5z" />
    <glyph glyph-name="T" unicode="T" horiz-adv-x="761" 
d="M73 702q44 0 86.5 -3t86.5 -3h268q44 0 86.5 3t86.5 3q28 0 31 -27l17 -153q1 -8 -5.5 -13t-14.5 -5q-14 0 -21 17.5t-14.5 40.5t-19.5 45t-37 30q-20 7 -47 8t-49 1q-13 0 -27 1.5t-26 -0.5t-19.5 -9.5t-7.5 -25.5t-0.5 -36t-0.5 -36l2 -403q0 -17 3.5 -40t14.5 -36
q7 -8 23.5 -13.5t33.5 -11t30 -11.5t13 -15q0 -16 -14 -16q-45 0 -88 3t-88 3q-42 0 -83.5 -3t-83.5 -3q-7 0 -11 5t-4 12t13 13t30.5 12t34 12.5t22.5 13.5q7 8 11.5 22t6 30t2 31t0.5 26v441q0 22 -13.5 28.5t-32.5 6.5h-36.5t-44 -2t-43 -7t-31.5 -14q-12 -10 -19.5 -30
t-14 -40t-14 -35t-19.5 -15q-9 0 -15 4t-6 14q0 38 6 76.5t11 76.5q2 14 9 20.5t22 6.5z" />
    <glyph glyph-name="U" unicode="U" horiz-adv-x="890" 
d="M28 686q0 11 8 13.5t16 2.5q32 0 63.5 -3t63.5 -3q35 0 69 3t69 3q9 0 16 -3t7 -14q0 -9 -7 -13t-17 -7.5t-21 -10t-18 -21.5q-3 -7 -5 -17.5t-3 -22.5t-1.5 -23t-0.5 -19v-219q0 -26 1 -53t5 -53q6 -44 25.5 -76.5t48.5 -55t66.5 -33.5t79.5 -11q72 0 118 26.5t73 70.5
t37 101t10 118v134q0 12 -0.5 31.5t-2.5 40t-6 38.5t-12 27q-9 11 -25.5 16.5t-32.5 9.5t-28 8.5t-12 14.5t6 13t14 3q26 0 51.5 -3t51.5 -3t50.5 3t50.5 3q9 0 15.5 -3t6.5 -14t-8 -14t-19 -6.5t-22.5 -12t-17.5 -29.5q-5 -18 -6.5 -49.5t-1.5 -66t1 -67t1 -54.5
q0 -89 -16 -162.5t-55 -126t-104.5 -81.5t-164.5 -29q-60 0 -121 13.5t-109 54.5q-30 26 -46.5 59t-24 70t-8.5 75t-1 75q0 66 -0.5 132.5t-0.5 132.5q0 31 -16.5 43.5t-36.5 17.5t-36.5 8.5t-16.5 17.5z" />
    <glyph glyph-name="V" unicode="V" horiz-adv-x="804" 
d="M14 685q0 11 8 14t16 3q32 0 63 -3t63 -3q35 0 70 3t70 3q8 0 14 -5t6 -13q0 -12 -10 -17t-22 -10t-22 -12.5t-10 -24.5q0 -21 9 -45t17 -43l158 -361l8 -5q5 5 8 11l6 12l125 266q15 32 30.5 71t15.5 75q0 27 -16.5 39.5t-36.5 19t-36.5 11t-16.5 16.5q0 10 8 12.5
t16 2.5q30 0 59.5 -3t59.5 -3q23 0 45.5 3t45.5 3q8 0 15.5 -3.5t7.5 -12.5t-12.5 -18.5t-19.5 -14.5q-16 -12 -29 -31.5t-24 -42t-20 -45t-18 -40.5l-226 -477q-4 -8 -11.5 -19t-18.5 -11t-18 11.5t-11 19.5l-258 558q-10 22 -18.5 35t-18.5 22t-24 16.5t-35 16.5
q-12 6 -12 19z" />
    <glyph glyph-name="W" unicode="W" horiz-adv-x="1070" 
d="M397 181l7 -4q3 1 13.5 19.5t25.5 46t31 59.5t30 61t23 50t9 26q0 7 -8.5 32.5t-20 55.5t-22 57t-14.5 38q-8 20 -22 28.5t-27 13t-22.5 8t-9.5 13.5q0 11 7.5 14t16.5 3q29 0 58 -3t58 -3t57 3t57 3q8 0 14.5 -3t6.5 -12t-8.5 -13.5t-18 -9.5t-18 -12.5t-8.5 -22.5
q0 -17 7 -36l137 -376q3 -8 5.5 -13t9.5 -11q6 1 9 11t5 15l93 254q10 28 20 60t10 61q0 33 -14.5 46.5t-31.5 19.5t-31.5 9.5t-14.5 17.5q0 11 10.5 13t18.5 2q18 0 36.5 -3t37.5 -3q27 0 54 3t54 3q16 0 16 -17q0 -3 -1.5 -7t-3.5 -6q-5 -5 -11.5 -10.5t-11.5 -10.5
q-20 -19 -32 -40.5t-22 -47.5l-207 -547q-4 -9 -10.5 -19t-17.5 -10q-12 0 -17 10.5t-9 19.5q-3 8 -14 37t-25.5 67t-31 81t-31 79t-25 60t-12.5 26h-4l-4 -3q-42 -83 -82.5 -165.5t-82.5 -165.5q-2 -5 -6 -12.5t-8.5 -15t-10 -13t-11.5 -5.5q-13 0 -20.5 15t-11.5 25
l-221 589q-8 21 -20.5 32t-24.5 17t-20.5 10t-8.5 12q0 9 6.5 12t14.5 3q31 0 61 -3t61 -3q28 0 55 3t55 3q20 0 20 -20q0 -11 -9 -15.5t-20 -8t-20 -10.5t-9 -22q0 -7 2.5 -18t6 -22l7 -22t6.5 -18l128 -350q2 -4 3.5 -7.5t3.5 -7.5z" />
    <glyph glyph-name="X" unicode="X" horiz-adv-x="812" 
d="M46 684q0 11 9 14.5t18 3.5q34 0 67.5 -3t67.5 -3q32 0 65 3t65 3q11 0 18.5 -4t7.5 -17q0 -12 -9 -16.5t-20.5 -8.5t-20.5 -10.5t-9 -20.5t16.5 -41.5t37 -56.5t39.5 -53.5t25 -31.5q4 -5 12 -7q6 3 21.5 20t33.5 38t34 41t23 28q9 11 21 28.5t12 32.5q0 17 -12 25
t-26 12.5t-26 8.5t-12 13q0 12 5.5 16t16.5 4q30 0 60 -3t60 -3q26 0 51 3t51 3q10 0 16.5 -4.5t6.5 -15.5t-9.5 -16t-17.5 -7q-30 -9 -54.5 -25t-45.5 -36t-40 -43l-38 -46q-6 -7 -22 -25t-32.5 -38t-29 -37.5t-12.5 -23.5t13 -26.5t33 -49.5t44 -61.5t46.5 -61.5
t39.5 -51.5t24 -30.5q15 -19 34.5 -38t42.5 -29q4 -2 7.5 -3.5t7.5 -3.5q11 -6 11 -17q0 -19 -21 -19q-35 0 -70.5 3t-70.5 3q-30 0 -60 -3t-60 -3q-9 0 -16.5 5.5t-7.5 15.5q0 12 9 16t20 7.5t20 9.5t9 20q0 6 -9 23t-22.5 39t-30.5 46.5t-33 46t-29 37.5t-20 21
q-6 -1 -20 -14.5t-31 -34t-35.5 -45t-33.5 -47t-25 -40.5t-10 -26q0 -20 14 -27t30.5 -10t30.5 -7t14 -17q0 -11 -7.5 -15t-16.5 -4q-30 0 -60 3t-60 3q-27 0 -54.5 -3t-54.5 -3q-8 0 -16 2t-8 13q0 10 6.5 14t14.5 7q34 13 59.5 33.5t49.5 46.5q5 6 20.5 23t35 40t41 48.5
t40 47.5t30 38t11.5 19q0 6 -13.5 27.5t-34.5 51.5t-46 64t-48.5 64.5t-41.5 53t-25 30.5q-14 16 -29 25.5t-35 16.5q-9 3 -18 8.5t-9 16.5z" />
    <glyph glyph-name="Y" unicode="Y" horiz-adv-x="719" 
d="M20 686q0 16 16 16q32 0 63.5 -3t63.5 -3q36 0 71.5 3t71.5 3q8 0 14 -4.5t6 -12.5q0 -12 -9.5 -17t-21.5 -8.5t-21.5 -8.5t-9.5 -17q0 -8 9.5 -29.5t24 -49.5t31 -59t31.5 -57t25 -44t11 -20q2 -3 5.5 -4.5t6.5 -1.5q8 0 13.5 7t8.5 13l93 166q6 11 12.5 25.5t6.5 27.5
q0 20 -15.5 31.5t-34 18t-34 11.5t-15.5 13q0 20 22 20q26 0 50.5 -3t50.5 -3q27 0 54.5 3t54.5 3q8 0 14 -3.5t6 -12.5q0 -8 -5.5 -12.5t-11.5 -7.5q-27 -14 -45 -31.5t-34 -43.5q-38 -66 -75.5 -132t-75.5 -133q-8 -15 -10 -23t-2 -25v-134q0 -32 9.5 -60t42.5 -40
q6 -2 17 -4.5t22.5 -6.5t20 -10t8.5 -13q0 -16 -15 -16q-44 0 -87.5 3t-87.5 3q-41 0 -81.5 -3t-81.5 -3q-19 0 -19 17q0 7 13 13t30.5 12t34 12.5t22.5 13.5q7 8 11.5 23t6 32t2 33.5t0.5 27.5v99q0 3 -12.5 26.5t-31.5 57.5t-41.5 73t-41.5 72.5t-33 57t-15 26.5
q-14 24 -32 39.5t-34 25.5t-28 15t-14 9q-1 2 -1 7z" />
    <glyph glyph-name="Z" unicode="Z" horiz-adv-x="661" 
d="M403 629q0 7 -3 9q-4 3 -20.5 4.5t-36.5 2t-38 1t-25 0.5q-23 0 -48 -1t-47.5 -7t-41.5 -19.5t-30 -37.5q-3 -7 -6 -15t-7 -15t-10 -11.5t-15 -4.5q-8 0 -11 7t-3 13q0 20 3.5 38t5.5 38q1 12 0.5 25t2 23t10.5 16.5t26 6.5q48 0 95.5 -3t95.5 -3q69 0 137.5 3t137.5 3
q5 0 13.5 -1t8.5 -10q0 -4 -15.5 -32t-41 -71t-58 -97t-66.5 -110t-66.5 -110.5t-58 -98t-41 -72t-15.5 -33.5q0 -7 6.5 -10.5t14.5 -5t16.5 -1.5h12.5q42 0 83.5 0.5t81.5 9.5q28 6 54.5 23.5t47.5 36t35 33t18 14.5q11 0 13.5 -8.5t2.5 -16.5q0 -31 -12.5 -58t-33.5 -47
t-48.5 -31.5t-57.5 -11.5q-60 0 -120.5 3t-120.5 3q-42 0 -82 -3t-82 -3q-7 0 -13.5 3.5t-6.5 11.5q0 6 7.5 19.5t17.5 28.5t19.5 29t13.5 21l277 470q3 4 7 11t7.5 14.5t6.5 14.5t3 12z" />
    <glyph glyph-name="bracketleft" unicode="[" horiz-adv-x="249" 
d="M81 696h135h6.5t6.5 -1l5 -4l2 -5v-25q0 -15 -15 -15.5t-33 1.5t-33 0t-15 -20v-717v-11t1 -10q1 -5 10 -6.5t20 -1.5t21 0.5t15 0.5q13 0 21.5 -2.5t8.5 -17.5q0 -14 -2 -22.5t-19 -8.5h-135q-19 0 -25 7t-6 24q0 205 0.5 407.5t0.5 407.5q0 12 10 15.5t20 3.5z" />
    <glyph glyph-name="backslash" unicode="\" horiz-adv-x="292" 
d="M5 727q2 5 4.5 8t8.5 3h31q8 0 13 -6.5t7 -13.5l215 -708q1 -4 2 -7.5t1 -7.5q0 -7 -8 -8t-13 -1q-11 0 -23.5 1t-16.5 14l-216 706q-2 5 -3.5 10t-1.5 10z" />
    <glyph glyph-name="bracketright" unicode="]" horiz-adv-x="254" 
d="M204 649v-783v-4q0 -31 -31 -31h-135q-5 0 -9 0.5t-9 4.5l-2 5v25q0 12 13 14.5t22 2.5q10 0 20 -1t20 -1q13 0 17 4.5t4 16.5v715q0 14 -3.5 22.5t-20.5 8.5q-11 0 -22 -1t-22 -1t-20 2t-9 16t1.5 23t19.5 9l148 -1q6 0 9.5 -5.5t5.5 -13t2.5 -15.5t0.5 -12z" />
    <glyph glyph-name="asciicircum" unicode="^" horiz-adv-x="467" 
d="M22 485v46q34 25 61 47.5t48.5 47.5t40 54.5t35.5 69.5h53q17 -40 35 -69.5t40 -54.5t49 -47.5t61 -47.5v-46q-59 23 -112.5 54.5t-98.5 76.5q-29 -27 -52 -46t-46 -33t-50 -26.5t-64 -25.5z" />
    <glyph glyph-name="underscore" unicode="_" horiz-adv-x="628" 
d="M576 -199v-51h-525v51h525v0z" />
    <glyph glyph-name="grave" unicode="`" horiz-adv-x="244" 
d="M15 595q0 18 14 34t33 16q13 0 21 -5t17 -13l126 -117q2 -2 3 -6t1 -7q0 -15 -16 -15q-8 0 -31 9.5t-49.5 22.5t-51 25t-35.5 17q-13 6 -22.5 14.5t-9.5 24.5z" />
    <glyph glyph-name="a" unicode="a" horiz-adv-x="498" 
d="M199 390q-25 0 -34.5 -7t-12 -18t-2 -23t-4.5 -23t-19.5 -18t-47.5 -7q-12 0 -22.5 5t-10.5 19q0 31 20.5 52.5t50.5 35t62.5 20t56.5 6.5q71 0 105 -24.5t47 -64.5t11.5 -91t-1.5 -103q0 -13 -1 -30t1.5 -32.5t10.5 -26.5t26 -11q5 0 9.5 0.5t9.5 0.5q7 0 12 -2t5 -10
q0 -9 -11 -18t-26 -16.5t-30 -12t-23 -4.5q-29 0 -47.5 18t-33.5 40q-39 -23 -79 -40.5t-87 -17.5q-49 0 -71.5 24.5t-22.5 72.5q0 46 25.5 74.5t63 45.5t80 26.5t76.5 17.5q-1 23 -3 48t-10 46t-25 34.5t-48 13.5zM285 176q0 6 -2 18t-11 12q-17 0 -37.5 -7.5t-38.5 -20
t-30 -29.5t-12 -36q0 -26 14.5 -44.5t42.5 -18.5q11 0 24 3.5t24 10t18.5 16.5t7.5 23v73z" />
    <glyph glyph-name="b" unicode="b" horiz-adv-x="534" 
d="M213 371q29 26 64.5 43.5t75.5 17.5t71 -16t52.5 -43t32.5 -61.5t11 -71.5q0 -51 -15 -97t-44.5 -80.5t-71.5 -55t-96 -20.5q-41 0 -70.5 11t-63.5 32l-11 -11t-14.5 -14t-15 -12.5t-12.5 -5.5q-13 0 -13 14q0 15 3 30t3 30l-1 550q0 19 -10.5 26.5t-23 10.5t-23 5.5
t-10.5 13.5q0 7 10.5 12.5t24.5 9t27 6t19 4.5q6 1 19.5 7.5t28 13.5t26 12.5t12.5 5.5q10 0 12.5 -13t2.5 -20v-334zM317 29q29 0 50 11t34 30t19 43t6 50q0 31 -7.5 66t-24 64t-43 48.5t-63.5 19.5q-35 0 -55 -19t-20 -55v-86t1 -86q0 -20 9.5 -36t24 -27t33 -17t36.5 -6z
" />
    <glyph glyph-name="c" unicode="c" horiz-adv-x="474" 
d="M34 188q0 55 21.5 100t57.5 77t83.5 49.5t100.5 17.5q16 0 37.5 -4.5t40.5 -14t32.5 -24.5t13.5 -35q0 -6 -10 -16.5t-22.5 -20t-25.5 -16.5t-19 -7q-8 0 -14 15t-15 33t-24.5 33t-43.5 15q-26 0 -44.5 -12t-30.5 -30.5t-18 -41.5t-6 -45q0 -34 7.5 -71.5t25 -68.5
t46 -51t69.5 -20q23 0 45.5 8.5t41 19t31.5 19.5t18 9q12 0 12 -13q0 -6 -4.5 -12.5t-10.5 -13t-12.5 -12t-10.5 -8.5q-36 -29 -80 -44.5t-90 -15.5q-45 0 -82 14.5t-63.5 41t-41.5 63.5t-15 82z" />
    <glyph glyph-name="d" unicode="d" horiz-adv-x="537" 
d="M322 50q-30 -29 -65 -46t-78 -17q-41 0 -71.5 16t-51 42t-30.5 60.5t-10 72.5q0 50 14.5 96t43 81t70 56t95.5 21q23 0 42.5 -6t40.5 -14q0 50 -0.5 99.5t-0.5 99.5q0 19 -10.5 26.5t-23 10.5t-23 5.5t-10.5 13.5q0 8 7.5 11t13.5 5q35 9 70 20.5t68 28.5q5 2 8.5 4
t8.5 2q8 0 10.5 -6.5t2.5 -13.5q0 -35 -3 -70t-3 -70l1 -482q0 -20 10.5 -28t23 -11t23 -6t10.5 -14t-10.5 -14t-18.5 -5q-13 -2 -32.5 -7.5t-40 -10.5t-38.5 -9t-28 -4q-8 0 -11.5 8t-4 18.5t0 21t0.5 15.5zM322 301q0 19 -10 35.5t-25 28.5t-33.5 18.5t-36.5 6.5
q-27 0 -47.5 -13t-34 -33t-20 -45t-6.5 -49q0 -29 7.5 -62.5t23.5 -62.5t41 -48t60 -19q32 0 56.5 16.5t24.5 51.5v175z" />
    <glyph glyph-name="e" unicode="e" horiz-adv-x="473" 
d="M149 214q0 -29 11 -58t30.5 -52.5t46 -38.5t56.5 -15q27 0 49.5 8.5t39.5 19t28 19.5t17 9q5 0 10 -4.5t5 -9.5q0 -7 -5 -14.5t-11.5 -14.5t-14 -12.5t-12.5 -9.5q-36 -26 -75 -40t-84 -14q-46 0 -83.5 15.5t-64.5 43t-42 66t-15 83.5q0 44 15 86.5t42 76t65.5 54
t86.5 20.5q33 0 68 -13t64 -35.5t47.5 -53.5t18.5 -67q0 -8 -4.5 -13t-11 -7.5t-14 -3.5t-13.5 -1h-230q-11 0 -15.5 -7t-4.5 -17zM302 276q13 0 19.5 4t6.5 18q0 18 -7 35t-19.5 29.5t-29 20t-35.5 7.5q-20 0 -36.5 -8t-28 -21t-18 -30.5t-6.5 -36.5q0 -11 4.5 -14.5
t14.5 -3.5h135z" />
    <glyph glyph-name="f" unicode="f" horiz-adv-x="370" 
d="M204 140q0 -9 0.5 -22t2 -26.5t5 -25t9.5 -17.5q5 -5 13.5 -8.5t17 -6.5t15.5 -7t10 -10v-4q0 -19 -22 -19q-23 0 -45 3t-45 3q-31 0 -61 -3t-61 -3q-8 0 -14.5 3.5t-6.5 12.5t7 13.5t16.5 8t19 7.5t15.5 13q4 6 6 17.5t3 24.5t1 25.5v20.5v181q0 17 -1.5 26t-6.5 12.5
t-14.5 3.5h-24.5q-12 0 -19.5 4t-7.5 18q0 20 10 25t22.5 6.5t24.5 4.5t16 18q2 6 2 12t1 12q4 40 17.5 88t37.5 89.5t59.5 69.5t84.5 28q7 0 17 -1.5t18.5 -5.5t14.5 -10.5t6 -16.5q0 -5 -2.5 -18t-7 -26.5t-10.5 -24t-12 -10.5q-5 0 -10 8t-12 17t-16 17t-22 8
q-20 0 -30.5 -23.5t-15.5 -54t-5.5 -60t-0.5 -42.5q0 -7 -1 -20t0.5 -25.5t5.5 -22t15 -9.5h58q9 0 18.5 9t16.5 9q5 0 6.5 -3.5t1.5 -7.5q0 -3 -2.5 -9.5t-5.5 -13.5t-6 -13.5t-4 -9.5q-5 -9 -13.5 -12.5t-18.5 -4t-20.5 0.5t-19.5 1q-23 0 -26.5 -11.5t-3.5 -31.5v-181z
" />
    <glyph glyph-name="g" unicode="g" horiz-adv-x="510" 
d="M66 54q0 36 15 57t39 45q-38 23 -59 50.5t-21 73.5q0 38 17 66.5t44 47.5t61 28.5t68 9.5q39 0 70.5 -9t66.5 -26q25 0 38.5 9.5t21 21t13 21t13.5 9.5q7 0 10 -6t3 -12q0 -19 -0.5 -35.5t-5 -30.5t-14 -26.5t-27.5 -22.5q1 -8 1.5 -17t0.5 -17q0 -41 -17.5 -69.5
t-46 -47t-64 -27t-70.5 -8.5q-15 0 -30 2t-30 2q-19 0 -25.5 -11.5t-6.5 -28.5q0 -26 24.5 -34t61 -8.5t79.5 0.5t79.5 -6.5t61 -29.5t24.5 -69q0 -46 -23.5 -76t-59 -47.5t-77 -24.5t-78.5 -7q-25 0 -57 1.5t-61 10.5t-49 28t-20 54q0 32 21 50t48 27q-17 20 -28 37.5
t-11 44.5zM125 -89q0 -24 11.5 -39t28.5 -23t38 -10.5t40 -2.5q16 0 38.5 3t43 10.5t34.5 21.5t14 36q0 21 -25.5 32t-59 15.5t-66 5t-46.5 0.5q-24 0 -37.5 -12t-13.5 -37zM147 292q0 -21 4 -42t13.5 -38t25.5 -27.5t41 -10.5q22 0 37.5 9t25.5 23t14.5 32.5t4.5 37.5
q0 22 -3 43.5t-12.5 38.5t-26 27.5t-43.5 10.5q-24 0 -39.5 -8.5t-24.5 -23t-13 -33.5t-4 -39z" />
    <glyph glyph-name="h" unicode="h" horiz-adv-x="600" 
d="M363 432q72 0 117 -54q19 -23 27 -56.5t10 -70.5t1 -73t-1 -64v-12.5t1 -12.5q2 -27 13.5 -38.5t24.5 -16t23.5 -7.5t10.5 -15q0 -10 -6 -14t-15 -4q-20 0 -39 3t-39 3q-30 0 -60 -3t-60 -3q-8 0 -15 3t-7 13t7.5 13.5t17 9.5t18 18t10.5 39q1 14 1 28.5v29.5v65t-8.5 70
t-29.5 55.5t-62 22.5q-15 0 -30 -4t-27 -12.5t-20 -21t-8 -28.5v-149q0 -8 0.5 -21.5t2 -27t5 -25t9.5 -17.5q6 -5 15.5 -8t18.5 -6.5t16 -9t7 -14.5q0 -23 -23 -23t-44.5 3t-44.5 3q-31 0 -62 -3t-62 -3q-8 0 -14 4t-6 12t6.5 12.5t16 8t19 8t15.5 12.5q4 6 6.5 15
t3.5 18.5t1 19v16.5q0 124 -0.5 245.5t-0.5 245.5q0 18 -10.5 25t-23 10.5t-23 6.5t-10.5 14q0 8 6.5 11t13.5 5q36 9 71 20.5t68 28.5q4 2 7.5 4t8.5 2q1 0 3 -1t3 -1q8 -6 8 -17q0 -35 -3.5 -71t-3.5 -72v-210q32 27 66.5 46.5t78.5 19.5z" />
    <glyph glyph-name="i" unicode="i" horiz-adv-x="295" 
d="M21 357q0 11 6 14.5t15 5.5q36 10 70 21t67 28l8 4t9 2q13 0 13 -13q0 -26 -2.5 -52t-2.5 -52v-175v-21t1.5 -26.5t5 -25.5t9.5 -18q5 -5 13.5 -8.5t17.5 -6.5t16 -7t10 -10v-4q0 -11 -6.5 -15t-16.5 -4q-23 0 -44.5 3t-44.5 3q-30 0 -59.5 -3t-59.5 -3q-8 0 -16.5 3.5
t-8.5 13.5q0 8 7 12.5t16.5 8t19 7.5t15.5 13q4 6 6 17.5t3 25t1 25.5v20q0 42 0.5 82.5t-1.5 82.5q-1 19 -11.5 26.5t-23 10.5t-22.5 5t-10 10zM73 586q0 7 9 21t21 28t24.5 25t19.5 11q6 0 18 -11t24 -25t21 -27.5t9 -19.5t-9.5 -19.5t-22 -27.5t-25.5 -24.5t-19 -10.5
q-7 0 -18.5 10t-23 23.5t-20 26.5t-8.5 20z" />
    <glyph glyph-name="j" unicode="j" horiz-adv-x="306" 
d="M75 360q0 10 8.5 12.5t16.5 4.5q35 7 68.5 19.5t65.5 29.5l8 4t9 2q1 0 3 -1t3 -1l4 -4l2 -6t1 -6q0 -10 -1 -19t-3 -19q-3 -26 -2.5 -51.5t0.5 -51.5v-180q0 -39 -3.5 -72t-14 -63t-28.5 -57.5t-47 -54.5q-18 -17 -40.5 -31t-48.5 -14q-14 0 -25.5 1.5t-20 6.5t-13 14.5
t-4.5 25.5q0 7 0.5 19t3 24t8 21t15.5 9t17.5 -9t15 -20t15 -20t17.5 -9q15 0 22.5 13.5t11.5 31.5t4.5 36.5t0.5 28.5q0 83 -0.5 165.5t-0.5 165.5q0 18 -10.5 25t-23.5 10t-23.5 6.5t-10.5 13.5zM127 586q0 6 9 20.5t21.5 28.5t25 25t18.5 11t18 -10.5t24 -25t21 -28
t9 -19.5t-9.5 -20t-22 -27.5t-25 -24t-19.5 -10.5t-18.5 10t-23 23.5t-20 26.5t-8.5 20z" />
    <glyph glyph-name="k" unicode="k" horiz-adv-x="594" 
d="M372 371q0 7 -7.5 10t-17 5.5t-17 6.5t-7.5 14q0 8 6 12.5t14 4.5q25 0 49 -3t49 -3q22 0 43 3t43 3q8 0 13.5 -4.5t5.5 -12.5q0 -13 -13 -19q-5 -2 -9 -3t-9 -2q-13 -3 -41 -14t-56.5 -26.5t-50 -32.5t-21.5 -30q0 -7 8.5 -22.5t22 -35.5t30 -42t32 -42t28.5 -35.5
t19 -22.5q12 -14 21.5 -21.5t19.5 -12.5t21.5 -9t27.5 -10q11 -4 11 -17q0 -9 -6.5 -12.5t-14.5 -3.5q-19 0 -38 3t-38 3q-16 0 -30.5 -3t-30.5 -3q-8 0 -22 13.5t-31.5 34.5t-36 46.5t-35 49.5t-29.5 43t-18 28l-39 -32v-60q0 -40 9.5 -55.5t21.5 -21t24.5 -8t18.5 -15.5
v-4q0 -11 -7 -15t-16 -4q-23 0 -45 3t-45 3q-31 0 -61.5 -3t-61.5 -3q-8 0 -14 4.5t-6 12.5q0 9 7 13t14 6q32 10 39.5 31.5t7.5 51.5q0 125 -0.5 249t-0.5 249q0 18 -10.5 25.5t-23 11t-23 5.5t-10.5 10q0 10 6 14t14 6q35 10 71 20.5t68 28.5q4 2 7.5 4t8.5 2q8 0 11 -6
t3 -13q0 -36 -3.5 -71.5t-3.5 -71.5v-341l95 76q5 4 15 11.5t19.5 16.5t17 17.5t7.5 14.5z" />
    <glyph glyph-name="l" unicode="l" horiz-adv-x="298" 
d="M90 593q0 31 -10.5 41t-23.5 13t-23.5 4.5t-10.5 15.5q0 9 7 11.5t14 4.5q35 8 71.5 19.5t66.5 29.5q4 2 7 4t8 2q9 0 11.5 -5t2.5 -13q0 -36 -2.5 -72t-2.5 -72l1 -487q0 -26 11 -36.5t24.5 -15.5t25 -8.5t11.5 -15.5q0 -19 -22 -19q-23 0 -45.5 3t-45.5 3
q-30 0 -59.5 -3t-59.5 -3q-8 0 -16 4t-8 13q0 8 7 12t16.5 8l19 8t15.5 12q8 11 9 28.5t1 30.5v483z" />
    <glyph glyph-name="m" unicode="m" horiz-adv-x="865" 
d="M40 360q0 8 6.5 11.5t13.5 5.5q35 9 70.5 19.5t67.5 29.5q4 2 7.5 4t8.5 2q6 0 8 -8.5t2 -19.5t-1 -21t-1 -14q28 26 56.5 44.5t68.5 18.5q22 0 39 -5t31.5 -14.5t26.5 -23t25 -29.5q16 15 31 28t31.5 23t35.5 15.5t42 5.5q45 0 73 -17.5t44 -46.5t22 -66.5t7.5 -76.5
t0 -77t0.5 -68q1 -24 12.5 -33t25 -13t24.5 -7t11 -14q0 -12 -8 -15.5t-18 -3.5q-20 0 -38.5 3t-38.5 3q-28 0 -55.5 -3t-55.5 -3q-16 0 -16 15q0 9 6.5 12.5t12.5 8.5q8 6 12.5 16t7 21.5t3 23t0.5 20.5v101q0 21 -1 47t-7.5 48.5t-22 38t-45.5 15.5q-35 0 -55.5 -17
t-20.5 -53q0 -53 0.5 -105.5t0.5 -105.5q0 -20 10.5 -29.5t23 -15t23 -9.5t10.5 -13q0 -12 -7 -15.5t-18 -3.5q-19 0 -38 3t-38 3q-27 0 -53.5 -3t-53.5 -3q-7 0 -12 3.5t-5 11.5q0 9 6.5 12.5t12.5 8.5q8 6 12.5 16t7 21.5t3 23t0.5 20.5v95q0 22 -0.5 49t-7.5 50.5
t-23 39.5t-47 16q-29 0 -51.5 -19.5t-22.5 -49.5v-186q0 -17 3 -32q4 -17 14.5 -26t21.5 -14t20 -9.5t9 -12.5q0 -18 -20 -18t-38.5 3t-38.5 3q-29 0 -58.5 -3t-58.5 -3q-8 0 -15 3t-7 13q0 11 6 13.5t14 6.5q22 11 27.5 33.5t5.5 44.5q0 49 0.5 98t-1.5 98
q-1 19 -11.5 26.5t-22.5 10.5t-22 6t-10 13z" />
    <glyph glyph-name="n" unicode="n" horiz-adv-x="622" 
d="M364 432q46 0 75.5 -17t46.5 -44.5t24 -63.5t9 -74.5t0.5 -75.5t-1.5 -68q0 -27 11.5 -37.5t25.5 -15.5t25.5 -9t11.5 -16q0 -9 -6.5 -13t-14.5 -4q-22 0 -43.5 3t-43.5 3q-28 0 -55.5 -3t-55.5 -3q-8 0 -15.5 3t-7.5 13t7 13.5t16 8.5t17.5 15t11.5 31q2 15 2 30v30v68
q0 24 -4 51.5t-15 50.5t-30 38t-50 15q-15 0 -30.5 -5t-28 -14.5t-20 -23t-7.5 -30.5l1 -193q0 -18 6.5 -28t16.5 -16t22.5 -10t24.5 -11q3 -6 3 -14q0 -22 -23 -22q-22 0 -44 3t-44 3q-30 0 -60 -3t-60 -3q-8 0 -16.5 3t-8.5 13q0 12 11 15.5t23.5 9.5t23.5 19.5t11 45.5
q0 44 -0.5 86.5t-0.5 85.5q0 9 -0.5 23t-2.5 22q-4 13 -14.5 17.5t-22 7t-20 5.5t-8.5 14q0 8 6.5 11t13.5 5q38 9 72 21t69 29q8 4 12 5l6 -2l2 -4q2 -15 1.5 -30t-0.5 -30q32 27 66.5 46.5t78.5 19.5z" />
    <glyph glyph-name="o" unicode="o" horiz-adv-x="543" 
d="M36 205q0 51 19 92.5t51.5 71.5t76 46.5t92.5 16.5q47 0 89.5 -15.5t74 -43.5t50 -68t18.5 -89q0 -51 -19.5 -93t-52.5 -72.5t-77 -47t-93 -16.5q-48 0 -90 15.5t-72.5 44t-48.5 68.5t-18 90zM150 260q0 -30 7 -69.5t23.5 -75.5t42 -61t63.5 -25q56 0 81.5 35.5
t25.5 86.5q0 31 -6.5 72.5t-22.5 78.5t-42.5 62.5t-66.5 25.5q-30 0 -50 -10.5t-32.5 -28.5t-17.5 -41.5t-5 -49.5z" />
    <glyph glyph-name="p" unicode="p" horiz-adv-x="546" 
d="M358 432q42 0 73.5 -16.5t52 -44t31 -63.5t10.5 -74q0 -49 -15.5 -93.5t-44 -78.5t-69.5 -54.5t-93 -20.5q-22 0 -43 4.5t-42 9.5v-61v-25.5t1 -24.5q1 -22 12.5 -33t25 -17.5t24.5 -11t11 -13.5q0 -20 -22 -20q-23 0 -44.5 3t-44.5 3q-30 0 -60 -3t-60 -3q-8 0 -16.5 3
t-8.5 13q0 9 7 13.5t16.5 8t19 8t15.5 12.5q4 6 6 17.5t3 24.5t1 25.5v19.5l-1 365q0 20 -10.5 26.5t-23 9t-23 6.5t-10.5 18q0 10 6 13t14 5q35 8 67.5 16.5t64.5 26.5q4 2 7.5 4t8.5 2q8 0 11.5 -8.5t4 -19.5t0 -21.5t-0.5 -15.5q32 30 63 47.5t76 17.5zM218 118
q0 -8 0.5 -16.5t3.5 -16.5q4 -13 16.5 -23t28.5 -17.5t32.5 -11.5t28.5 -4q30 0 50 14t32 36t17 48.5t5 51.5q0 28 -9 60t-26.5 59t-42.5 45t-57 18q-14 0 -28 -4t-25 -12.5t-18.5 -20.5t-7.5 -27v-179z" />
    <glyph glyph-name="q" unicode="q" horiz-adv-x="523" 
d="M183 -13q-43 0 -74 16t-51 43t-29.5 62.5t-9.5 74.5q0 47 15 91.5t42.5 79.5t67.5 56.5t91 21.5q40 0 77.5 -11t71.5 -31q4 4 10 11t13 14t14 12t12 5q9 0 11 -6.5t2 -13.5q0 -21 -3 -42t-3 -42v-442q0 -24 6.5 -34.5t15 -15t15 -8.5t6.5 -15q0 -10 -6 -14t-15 -4
q-23 0 -45 3t-45 3t-46 -3t-46 -3q-8 0 -18 3t-10 14q0 15 11.5 18t25.5 7.5t25.5 17.5t11.5 48v145q-33 -26 -66.5 -43.5t-76.5 -17.5zM326 307q0 19 -10.5 34t-27 26t-35.5 17t-35 6q-29 0 -49 -13t-33 -33.5t-18.5 -45.5t-5.5 -50q0 -29 8.5 -62t25 -61.5t42 -47.5
t59.5 -19q12 0 26 4t26 12t19.5 19.5t7.5 25.5v188z" />
    <glyph glyph-name="r" unicode="r" horiz-adv-x="427" 
d="M317 432q10 0 24.5 -7t28 -17.5t23.5 -22.5t10 -22q0 -7 -5.5 -20.5t-14 -27t-17.5 -23.5t-16 -10t-16 6t-19 13.5t-21.5 14t-23.5 6.5q-21 0 -32.5 -11.5t-17 -28.5t-7 -36t-1.5 -34q0 -19 -0.5 -45t3 -51.5t14 -46.5t31.5 -29q5 -2 13 -4t15.5 -5.5t13 -8t5.5 -11.5
q0 -9 -6.5 -13t-14.5 -4q-26 0 -50.5 3t-50.5 3q-30 0 -60 -3t-60 -3q-8 0 -14.5 3t-6.5 13t7.5 13.5t16.5 8.5t17.5 14.5t11.5 30.5q1 8 1 15v15v165q0 11 0.5 23t-3.5 22q-5 12 -15.5 17t-21.5 7.5t-19.5 6t-8.5 12.5t7 12t14 5q36 8 68.5 20.5t65.5 29.5q3 2 6.5 3.5
t7.5 1.5t7.5 -2t3.5 -7v-80q8 9 21 24.5t28 29.5t30 24.5t28 10.5z" />
    <glyph glyph-name="s" unicode="s" horiz-adv-x="397" 
d="M42 133q0 8 3.5 14t12.5 6q11 0 21 -19.5t24.5 -42.5t36.5 -42.5t56 -19.5q13 0 27 4t26 11.5t20 19t8 26.5q0 23 -17.5 37.5t-43 25t-56 20.5t-56 25.5t-43 39.5t-17.5 63q0 36 15.5 61t40.5 40.5t56 22.5t62 7q35 0 57.5 -2t35.5 -11.5t18 -30.5t5 -58q0 -7 -2.5 -13.5
t-11.5 -6.5t-18.5 12.5t-23 27.5t-33.5 27.5t-51 12.5q-10 0 -21.5 -2.5t-21.5 -8.5t-16.5 -15t-6.5 -21q0 -21 17.5 -33.5t43 -21.5t56 -18.5t56 -25.5t43 -42t17.5 -67q0 -35 -13.5 -62t-36 -46.5t-52 -29.5t-62.5 -10q-26 0 -51 4.5t-51 9.5q-14 3 -24 3.5t-16 3.5
t-8.5 11t-2.5 25q0 23 -1 44.5t-1 44.5z" />
    <glyph glyph-name="t" unicode="t" horiz-adv-x="351" 
d="M78 359q-5 7 -16.5 5.5t-19.5 -1.5t-14.5 3t-6.5 13q0 4 1 8.5t4 6.5q38 31 68 59t59 67q4 5 11.5 14t15.5 9t10.5 -8.5t2.5 -14.5v-78q0 -14 4.5 -19t18.5 -5h38q22 0 30.5 2t12.5 5t6.5 6.5t12.5 5.5l6 -2l4 -7q0 -9 -7 -24.5t-12 -23.5q-6 -12 -18 -15t-24 -3
t-24.5 1.5t-24.5 1.5q-5 0 -10.5 -0.5t-10.5 -3.5q0 -2 -1 -5t-1 -5v-229q0 -14 1.5 -27t7 -23t15.5 -16t27 -6q22 0 41 9.5t32 9.5q8 0 12.5 -3t4.5 -12q0 -15 -19 -27t-43.5 -21t-49 -14t-36.5 -5q-38 0 -59 12t-32 32.5t-13.5 48t-2.5 57.5z" />
    <glyph glyph-name="u" unicode="u" horiz-adv-x="617" 
d="M244 -13q-52 0 -81 15.5t-43 42.5t-17 63.5t-3 78.5q0 24 0.5 48.5t0.5 48.5v36t-2 36q-2 17 -12.5 22t-23 7t-22.5 4.5t-10 14.5q0 9 12.5 13.5t28.5 6t30.5 1.5h19.5q21 1 41.5 6t41.5 5q15 0 15 -15q0 -21 -3 -42t-3 -42v-161q0 -23 2.5 -44.5t11 -38t25 -26
t45.5 -9.5q14 0 31.5 4t32.5 12t25.5 20.5t10.5 29.5v222q0 22 -10.5 29.5t-23.5 9.5t-23.5 3.5t-10.5 12.5q0 16 12.5 18.5t24.5 2.5q32 0 63 4.5t63 8.5q2 0 5 0.5t5 0.5q7 0 12 -3t5 -11q0 -22 -3.5 -43.5t-3.5 -43.5q0 -65 0.5 -129t0.5 -129q0 -24 10.5 -30.5t23 -7.5
t23 -2t10.5 -15q0 -10 -9 -14.5t-20.5 -5.5t-23.5 0t-18 1q-12 0 -26 -2.5t-27.5 -5.5t-24.5 -5.5t-17 -2.5q-9 0 -12.5 9t-4.5 20.5t-0.5 23t0.5 16.5q-35 -34 -69.5 -51.5t-84.5 -17.5z" />
    <glyph glyph-name="v" unicode="v" horiz-adv-x="528" 
d="M17 408q0 10 8 13t16 3q23 0 45.5 -3t45.5 -3q24 0 48.5 3t48.5 3q9 0 17 -3t8 -14q0 -12 -9 -17.5t-19.5 -9t-19.5 -8t-9 -14.5q0 -7 7 -26t18 -43t24 -50.5t24 -48.5t19 -36t9 -15q5 1 15 15t22 35.5t24 46.5t22 48.5t16.5 41.5t6.5 25q0 17 -10 23t-21.5 8.5
t-21.5 6.5t-10 17q0 11 6 14.5t15 3.5q19 0 37.5 -3t37.5 -3q14 0 28 3t28 3q18 0 18 -18q0 -5 -1 -10t-5 -8q-9 -9 -16 -13.5t-12.5 -9.5t-10.5 -12t-12 -20q-40 -78 -81 -155t-82 -155q-5 -10 -13.5 -23t-21.5 -13q-5 0 -9.5 4.5t-8.5 10.5t-6.5 12.5t-4.5 10.5l-132 277
q-9 18 -22 41.5t-30 34.5q-9 5 -17.5 11t-8.5 19z" />
    <glyph glyph-name="w" unicode="w" horiz-adv-x="780" 
d="M28 408q0 9 6.5 12.5t14.5 3.5q23 0 44.5 -3t44.5 -3t44.5 3t44.5 3q8 0 14.5 -3t6.5 -13q0 -9 -7 -13t-15.5 -8t-15.5 -10t-7 -17q0 -14 4.5 -27t9.5 -25l68 -162q2 -7 9 -7q3 0 10 9.5t16.5 24.5t20 32.5t19 33.5t14 28.5t5.5 16.5q0 7 -4.5 22t-11.5 30.5t-15.5 28
t-15.5 15.5q-10 4 -21 8t-11 18q0 9 6.5 13.5t14.5 4.5q27 0 54 -3t55 -3q20 0 40.5 3t40.5 3q15 0 15 -15q0 -11 -8 -15t-18 -7.5t-18 -9.5t-8 -19q0 -7 6 -25.5t15.5 -41.5t20.5 -47.5t21 -45t18 -34t11 -13.5q7 0 7 4q8 15 21.5 41.5t27 55.5t23 55.5t9.5 41.5
q0 18 -9 25.5t-20 11t-20 7.5t-9 14t6.5 13.5t14.5 3.5q18 0 36.5 -3t36.5 -3q11 0 20.5 3t20.5 3q9 0 15.5 -4.5t6.5 -14.5t-4.5 -13.5t-12.5 -7.5q-8 -5 -16.5 -18t-16.5 -28t-15 -30.5t-11 -24.5l-125 -265q-3 -7 -11 -19t-16 -12q-11 0 -16.5 10t-8.5 18q-3 7 -10.5 25
t-17 41t-20.5 48t-21.5 46.5t-18.5 36t-11 16.5q-5 -2 -14.5 -16.5t-22 -36.5t-26.5 -48t-26.5 -49.5t-22.5 -42.5t-14 -27q-4 -7 -10 -14t-15 -7q-11 0 -15 8l-8 16l-124 296q-7 16 -12 27.5t-11 20t-15.5 16t-24.5 17.5q-12 7 -12 20z" />
    <glyph glyph-name="x" unicode="x" horiz-adv-x="589" 
d="M407 367q0 10 -7 13.5t-16 6.5t-16 6.5t-7 13.5q0 8 5.5 12.5t13.5 4.5q23 0 47 -3t47 -3q14 0 26.5 3t26.5 3q15 0 15 -14q0 -7 -11 -15t-25 -15.5t-27.5 -14.5t-19.5 -13l-116 -114l123 -152q10 -12 17.5 -19.5t15 -13t16.5 -11t22 -12.5q4 -2 6 -7t2 -10
q0 -19 -22 -19q-26 0 -51.5 3t-51.5 3q-27 0 -53.5 -3t-53.5 -3q-8 0 -14 4t-6 13t7 13.5t15.5 9t15.5 9.5t7 15q0 7 -9.5 21.5t-22 30t-25 29t-18.5 19.5q-7 -7 -21.5 -20t-29.5 -27.5t-26 -28t-11 -22.5q0 -11 7.5 -15.5t16.5 -8t16.5 -8t7.5 -15.5q0 -9 -7 -14t-15 -5
q-21 0 -42 3t-42 3q-14 0 -26.5 -3t-26.5 -3q-19 0 -19 20q0 6 8 13.5t18.5 15t21 13.5t15.5 10q36 28 66.5 60t62.5 64l-133 169q-5 6 -14.5 11.5t-19 11.5t-17 12.5t-7.5 12.5q0 13 11 15t20 2q30 0 60.5 -3t60.5 -3q21 0 42 3t42 3q8 0 14 -4t6 -13q0 -11 -8 -15
t-18 -6.5t-18 -6.5t-8 -15q0 -7 8.5 -20.5t20 -27.5t22.5 -27t17 -19q7 5 21.5 18.5t29.5 28.5t26.5 29t11.5 21z" />
    <glyph glyph-name="y" unicode="y" horiz-adv-x="528" 
d="M22 408q0 9 7.5 12.5t15.5 3.5q23 0 45 -3t45 -3q26 0 51.5 3t51.5 3q8 0 15 -2t7 -12t-9 -14.5t-19.5 -8.5t-19.5 -9.5t-9 -18.5q0 -11 14.5 -42t33.5 -67t37.5 -69t25.5 -48l7 -6l7 6q7 15 19.5 42.5t24.5 57t21 56.5t9 41q0 22 -9.5 32t-21.5 15.5t-21.5 10t-9.5 16.5
t7 16t18 4q18 0 35.5 -3t35.5 -3q17 0 32.5 3t31.5 3q17 0 17 -17q0 -12 -6 -17t-15 -10q-12 -8 -21.5 -19.5t-16.5 -25t-12.5 -28t-10.5 -27.5l-187 -442q-6 -14 -11 -21.5t-11 -11t-15.5 -4t-24.5 -0.5h-9.5t-11 1.5t-9 4.5t-3.5 8t7.5 17t19.5 27.5t25 33.5t25 35
t19.5 32.5t7.5 25.5q0 16 -9.5 31t-16.5 29l-149 291q-7 13 -17 23t-19.5 18.5t-16.5 15t-7 14.5z" />
    <glyph glyph-name="z" unicode="z" horiz-adv-x="502" 
d="M313 383l-9 6q-5 1 -10 1h-10h-99q-16 0 -30.5 -19.5t-28 -42.5t-26 -42.5t-24.5 -19.5q-7 0 -12 3t-5 11q0 22 7 43t12 42q2 10 4 20.5t6.5 19t12 14t21.5 5.5q31 0 61.5 -3t61.5 -3q48 0 94 2t94 4h10q6 0 9.5 -1.5t3.5 -8.5q0 -8 -19 -34.5t-48.5 -63.5t-63.5 -79.5
t-64 -80.5t-51 -67t-24 -40q1 -5 17.5 -8t36.5 -4.5t39 -1.5h26q13 0 32 1.5t30 7.5q7 3 18.5 14.5l24 24t23.5 22.5t17 10q13 0 13 -14q0 -11 -9 -26t-16 -24q-19 -25 -44.5 -41t-57.5 -16q-35 0 -69.5 3t-69.5 3t-68.5 -3t-68.5 -3q-6 0 -12.5 2t-6.5 10q0 4 14.5 25
t36 51.5t48 66t50 67t41.5 55.5t24 31q11 14 28.5 34.5t25.5 36.5q2 2 2.5 5t1.5 5z" />
    <glyph glyph-name="braceleft" unicode="{" horiz-adv-x="336" 
d="M124 401q0 23 -4 45t-8.5 44.5t-8.5 44.5t-4 45q0 48 19.5 78.5t50.5 50t69.5 30t77.5 18.5v-25q-60 -20 -85 -57t-25 -100q0 -38 6 -75.5t6 -75.5q0 -33 -15 -58t-38 -45t-50.5 -35.5t-52.5 -28.5q27 -15 54.5 -30t50 -34t37 -44.5t14.5 -61.5t-6 -71.5t-6 -71.5
q0 -62 25 -99t85 -56v-25q-38 7 -76.5 17.5t-70 30t-51 50t-19.5 77.5q0 23 4 45.5t8.5 44.5t8.5 44.5t4 45.5q0 24 -11 43.5t-27.5 35t-37.5 27.5t-40 20v25q21 9 41.5 21t37 27.5t27 36t10.5 46.5z" />
    <glyph glyph-name="bar" unicode="|" horiz-adv-x="163" 
d="M105 750v-1000h-54v1000h54v0z" />
    <glyph glyph-name="braceright" unicode="}" horiz-adv-x="336" 
d="M328 245q-20 -8 -40.5 -19.5t-37.5 -27.5t-28 -36t-11 -43t4 -45.5t9 -45t9 -45t4 -45.5q0 -47 -20 -77.5t-51 -49.5t-70 -29.5t-76 -17.5v25q59 14 84.5 56t25.5 99q0 38 -6.5 74t-6.5 74q0 32 15.5 57t38.5 44.5t50.5 35t51.5 28.5q-24 13 -51.5 29t-50.5 36.5
t-38.5 45.5t-15.5 57q0 38 6.5 75.5t6.5 75.5q0 62 -25 99.5t-85 56.5v25q38 -7 77 -17.5t70 -30t50.5 -50.5t19.5 -78q0 -23 -4 -46t-9 -46t-9 -46t-4 -46q0 -24 10.5 -44.5t27.5 -36t38 -27.5t41 -19v-25z" />
    <glyph glyph-name="asciitilde" unicode="~" horiz-adv-x="730" 
d="M39 238q13 22 32.5 43.5t43 38.5t49.5 27.5t53 10.5q43 0 83.5 -10.5t81 -22.5t81.5 -22.5t84 -10.5q21 0 37.5 4.5t31 13t27.5 19.5t28 24l19 -28q-13 -25 -29 -47.5t-36.5 -40t-46 -27.5t-55.5 -10q-43 0 -84 10.5t-82.5 23t-82.5 23t-84 10.5q-40 0 -73 -17.5
t-62 -42.5z" />
    <glyph glyph-name="exclamdown" unicode="&#xa1;" horiz-adv-x="249" 
d="M201 -236q0 -16 -14 -24.5t-33.5 -12.5t-39.5 -5t-31 -1t-21.5 4t-10.5 18t1.5 26.5t3.5 26.5l48 361q2 9 5.5 18t14.5 9q10 0 14 -10t6 -18q16 -83 26.5 -166t23.5 -167q2 -15 4.5 -29.5t2.5 -29.5zM126 252q-7 0 -23 11.5t-32 26.5t-28 29.5t-12 20.5q0 8 12 23.5
t27.5 30.5t31 26.5t23.5 11.5q7 0 12 -3.5t10 -8.5t17 -15t24 -21.5t21.5 -22.5t9.5 -18t-12.5 -22t-28 -30.5t-31 -27t-21.5 -11.5z" />
    <glyph glyph-name="cent" unicode="&#xa2;" horiz-adv-x="428" 
d="M222 658q20 0 23 -9t3 -26v-51q5 0 10 0.5t10 0.5q32 0 60 -9.5t50 -33.5q6 -7 11.5 -15.5t5.5 -18.5q0 -7 -9 -17.5t-21 -20t-24.5 -16.5t-19.5 -7t-13 10.5t-13.5 25t-18.5 29.5t-28 24v-324q8 -1 16.5 -2t16.5 -1q19 0 39 8t37 17.5t29 17.5t17 8t9.5 -3.5t4.5 -9.5
q0 -19 -20.5 -36.5t-48.5 -31.5t-56 -23.5t-44 -11.5v-105q0 -14 -5 -20.5t-20 -6.5q-22 0 -24.5 10t-2.5 27v93q-84 12 -131 64.5t-47 137.5q0 86 49.5 145t128.5 85q0 11 -1 21t-1 21q0 7 0.5 16.5t3.5 17.5t8.5 14t15.5 6zM196 528q-44 -20 -58.5 -51t-14.5 -77
q0 -50 16 -97.5t57 -79.5v305z" />
    <glyph glyph-name="sterling" unicode="&#xa3;" horiz-adv-x="602" 
d="M112 458q0 46 20.5 85t53.5 67t75 43.5t86 15.5q49 0 87 -24.5t62 -66.5q5 -8 8.5 -16.5t3.5 -17.5t-9 -19.5t-21.5 -20t-26 -15.5t-21.5 -6q-14 0 -21 22t-17 49t-27 49t-51 22q-26 0 -44.5 -11t-31.5 -29t-19 -40.5t-6 -44.5q0 -17 4 -37.5t9.5 -41t12.5 -40t13 -35.5
h98q13 0 25.5 -3.5t12.5 -20.5t-13 -20.5t-27 -3.5h-85q8 -21 13 -40.5t5 -42.5q0 -36 -9.5 -58t-32.5 -49q27 6 55 6q19 0 37 -7t35.5 -15t35 -15t37.5 -7q22 0 40.5 10.5t33 22.5t25.5 22.5t19 10.5t12 -5t4 -12q0 -13 -14 -32t-33.5 -37t-39.5 -33t-32 -20
q-21 -10 -48 -10t-53 7t-51.5 15t-51 15t-51.5 7q-18 0 -34 -7t-31 -15t-29.5 -15t-28.5 -7q-40 0 -40 43q0 19 10.5 28t26.5 13t35 7t35 11t26.5 24t10.5 46q0 36 -11 70.5t-22 68.5q-6 0 -25.5 -1.5t-40.5 0t-37 6.5t-16 19q0 13 13 18.5t30.5 6.5t34.5 0t25 -1
q-7 28 -13 55.5t-6 56.5z" />
    <glyph glyph-name="currency" unicode="&#xa4;" horiz-adv-x="640" 
d="M110 601l68 -64q38 20 71 31t76 11q42 0 72.5 -10.5t65.5 -31.5l68 64l66 -65l-70 -64q22 -33 31.5 -62.5t9.5 -69.5t-9.5 -66.5t-31.5 -59.5l70 -65l-66 -63l-68 62q-20 -11 -36 -19t-31.5 -13t-33 -7.5t-41.5 -2.5q-23 0 -41 2.5t-34.5 8t-33 13t-35.5 18.5l-67 -62
l-67 63l69 65q-20 33 -30 60t-10 66q0 40 10.5 68.5t29.5 63.5l-69 64zM177 342q0 -30 11 -55t30.5 -43t45.5 -28t56 -10q28 0 54.5 10.5t46 28.5t31.5 43t12 54t-12 54t-31.5 43.5t-46 29t-54.5 10.5q-29 0 -55 -10.5t-45.5 -28.5t-31 -43t-11.5 -55z" />
    <glyph glyph-name="yen" unicode="&#xa5;" horiz-adv-x="597" 
d="M363 159h107q13 0 20 -4.5t7 -18.5q0 -9 -2 -15.5t-13 -6.5h-119v-7q0 -38 15 -53t32.5 -20t32.5 -7t15 -15q0 -10 -6 -14t-15 -4q-32 0 -63.5 3t-63.5 3q-34 0 -68 -3t-68 -3q-7 0 -13 3.5t-6 11.5q0 11 10.5 15t18.5 6q20 5 32 11.5t18.5 16t9.5 23.5t5 33h-111
q-12 0 -18 8t-6 19q0 10 6.5 14t15.5 4h113v45h-111q-23 0 -23 23q0 17 10.5 19.5t23.5 2.5h100v12q0 21 -8 37l-118 248q-12 25 -22 41t-21 28t-25 24t-33 30q1 15 18 15q29 0 58 -3t58 -3q23 0 45 1t45 4q3 0 5.5 0.5t5.5 0.5q8 0 13 -4t5 -12q0 -11 -8 -15t-17 -8
t-17 -10t-8 -20t6 -29t11 -27l87 -192q3 -6 11 -6q7 0 11 6t6 11l76 167q5 10 8.5 21t3.5 22q0 25 -13 36.5t-28 17.5t-28 10.5t-13 15.5q0 9 7.5 12.5t15.5 3.5q17 0 34.5 -3t34.5 -3q27 0 53.5 3t53.5 3q5 0 8 -5.5t3 -9.5q0 -3 -9 -12t-21 -20t-23 -21.5t-14 -16.5
q-9 -15 -15.5 -30.5t-14.5 -31.5l-93 -196q-7 -14 -11 -24.5t-6 -20t-2.5 -21t-0.5 -26.5l120 -1q8 0 11.5 -6t3.5 -13q0 -8 -3 -16.5t-13 -8.5h-119v-45z" />
    <glyph glyph-name="brokenbar" unicode="&#xa6;" horiz-adv-x="158" 
d="M51 -225v449h54v-449h-54v0zM105 724v-449h-54v449h54v0z" />
    <glyph glyph-name="section" unicode="&#xa7;" horiz-adv-x="444" 
d="M71 579q0 32 12 56.5t32.5 41t47.5 24.5t57 8q24 0 49.5 -5.5t47 -17.5t35 -32t13.5 -49t-18.5 -47t-47.5 -18q-27 0 -43 14t-16 42q0 35 34 51q-25 20 -56 20q-12 0 -24 -3.5t-22 -10t-16.5 -17t-6.5 -23.5q0 -25 19.5 -47t49 -45t64 -47.5t64 -53.5t49 -63.5
t19.5 -77.5q0 -57 -29.5 -87t-83.5 -39q16 -14 29.5 -27.5t23.5 -28.5t15.5 -33t5.5 -40q0 -35 -13.5 -61t-36 -42.5t-51.5 -24.5t-61 -8q-23 0 -48.5 6t-48 19t-37 32.5t-14.5 46.5q0 28 19.5 47t47.5 19q23 0 40.5 -15t17.5 -39q0 -20 -8 -30.5t-25 -21.5
q18 -11 32.5 -16.5t35.5 -5.5q12 0 25 4t23.5 11.5t17 18t6.5 24.5q0 16 -6.5 29t-17.5 24t-23.5 20t-24.5 18q-30 21 -63.5 46t-62 55t-47.5 64.5t-19 75.5q0 56 30 84.5t81 40.5q-31 29 -52 59t-21 75zM112 347q0 -22 17.5 -48.5t43 -49.5t54 -38.5t50.5 -15.5t40.5 14
t18.5 37q0 22 -18 49.5t-44 51.5t-55 40t-51 16q-23 0 -39.5 -16.5t-16.5 -39.5z" />
    <glyph glyph-name="dieresis" unicode="&#xa8;" horiz-adv-x="395" 
d="M101 618q4 0 13.5 -7.5t20 -17t20 -18.5t12.5 -13q0 -2 0.5 -2.5t0.5 -2.5q0 -5 -8 -15.5t-19 -21.5t-21.5 -19t-15.5 -8t-15.5 7.5t-22 18t-20.5 20t-9 14.5q1 5 9.5 15.5t19 21.5t20.5 19.5t15 8.5zM289 618q4 0 15 -8t22.5 -18t20.5 -20.5t11 -14.5q-1 -5 -9.5 -15.5
t-19 -21.5t-21 -19t-15.5 -8t-16 7.5t-22.5 18t-20 20t-8.5 14.5q0 4 8.5 14.5t20 21.5t21.5 20t13 9z" />
    <glyph glyph-name="copyright" unicode="&#xa9;" horiz-adv-x="563" 
d="M35 514q0 51 19.5 94t53.5 74.5t78.5 49t94.5 17.5q49 0 94 -17.5t79 -49t54 -74.5t20 -94t-19.5 -94t-53.5 -74.5t-78.5 -49t-94.5 -17.5t-95 17.5t-78.5 48.5t-53.5 74.5t-20 94.5zM72 514q0 -44 16.5 -80.5t45 -63t66.5 -41.5t81 -15q42 0 80 15t67 42t46 63.5
t17 79.5t-17 79.5t-46 63t-67 41.5t-80 15t-80 -15t-66.5 -41.5t-45.5 -63t-17 -79.5zM395 474q-5 -52 -28.5 -76.5t-77.5 -24.5q-31 0 -55.5 11t-42 30.5t-26.5 46t-9 56.5q0 26 9.5 52.5t26 48t40 35t51.5 13.5q18 0 34.5 -8.5t33.5 -8.5q5 0 10.5 6t8.5 10h20v-106
l-20 -3q-5 14 -11 29.5t-15 28t-21.5 21t-30.5 8.5q-24 0 -37.5 -13t-21 -32.5t-9.5 -41t-2 -39.5q0 -20 2.5 -41.5t11 -39t23.5 -29t41 -11.5q39 0 53.5 22t20.5 56h21z" />
    <glyph glyph-name="ordfeminine" unicode="&#xaa;" horiz-adv-x="408" 
d="M165 659q-17 0 -24 -6t-10 -15t-4 -19t-6 -19t-17 -15t-36 -6q-23 0 -23 22q0 24 16 41t39 27.5t48.5 15.5t44.5 5q45 0 71.5 -13.5t40 -35.5t17.5 -51.5t4 -62t-1.5 -65.5t1.5 -62q2 -11 7 -16.5t17 -5.5q6 0 12.5 1.5t12.5 1.5q2 0 5 -3q0 -2 0.5 -2.5t0.5 -2.5
q0 -8 -8.5 -16t-20 -14t-23.5 -10t-19 -4q-23 0 -37 14.5t-25 31.5q-32 -19 -64 -32.5t-70 -13.5t-55.5 23t-17.5 59q0 38 19.5 61.5t48.5 37.5t63 21.5t63 12.5q0 18 -2 38.5t-9 37.5t-21 28t-38 11zM235 484q0 6 -2 18t-11 12q-8 0 -17.5 -4.5t-17.5 -7.5
q-25 -11 -40.5 -27.5t-15.5 -45.5q0 -22 11 -36.5t34 -14.5q5 0 13.5 2t17 5t15.5 7.5t10 9.5q2 5 2.5 11t0.5 11v60z" />
    <glyph glyph-name="guillemotleft" unicode="&#xab;" horiz-adv-x="420" 
d="M186 64q0 -3 -1 -6t-5 -3q-8 0 -13 4.5t-10 9.5l-133 128q-1 1 -2 4.5t-1 4.5q0 2 10 13t25.5 26t33.5 32.5t34.5 32.5t28 26t14.5 14q4 3 7 3.5t8 0.5l2 -2l2 -6q-5 -36 -21 -71.5t-28 -69.5q3 -9 11 -30t16.5 -44t15 -42.5t6.5 -24.5zM370 64q0 -3 -1 -6t-5 -3
q-8 0 -13 4.5t-10 9.5l-118 115q-5 5 -10 9.5t-8 11.5q3 6 24 28t46.5 46t48 45t27.5 26q3 3 7 3.5t8 0.5l3 -2q0 -2 0.5 -3t0.5 -3q0 -6 -7 -27t-15.5 -45t-16.5 -44.5t-9 -24.5q4 -10 12 -30.5t16 -42t14 -41t6 -27.5z" />
    <glyph glyph-name="logicalnot" unicode="&#xac;" horiz-adv-x="680" 
d="M3 437q3 3 9 5l615 -5q0 -2 0.5 -3t0.5 -3v-306l-4 -5q-5 -2 -10 -1.5t-10 0.5h-20.5t-9.5 14v251l-6 7l-562 2l-3 3q-1 5 -1 9v8v12t1 12z" />
    <glyph glyph-name="uni00AD" unicode="&#xad;" horiz-adv-x="491" 
d="M49 245q0 18 13 20.5t27 2.5l335 -1q8 0 12.5 -7t4.5 -15v-32q0 -17 -9.5 -20t-23.5 -3q-85 0 -170 0.5t-170 0.5q-9 0 -14 7t-5 15v32z" />
    <glyph glyph-name="registered" unicode="&#xae;" horiz-adv-x="563" 
d="M35 514q0 51 19.5 94t53.5 74.5t78.5 49t94.5 17.5q49 0 94 -17.5t79 -49t54 -74.5t20 -94t-19.5 -94t-53.5 -74.5t-78.5 -49t-94.5 -17.5t-95 17.5t-78.5 48.5t-53.5 74.5t-20 94.5zM72 514q0 -44 16.5 -80.5t45 -63t66.5 -41.5t81 -15q42 0 80 15t67 42t46 63.5
t17 79.5t-17 79.5t-46 63t-67 41.5t-80 15t-80 -15t-66.5 -41.5t-45.5 -63t-17 -79.5zM201 446v152q0 25 -12.5 30t-33.5 7v20h131q19 0 39.5 -1.5t37.5 -8t28 -20t11 -38.5q0 -18 -5.5 -29.5t-15.5 -18.5t-23.5 -11.5t-28.5 -7.5q18 -11 28 -27.5t16 -32.5t11 -27t13 -11
q13 0 15 13t3 22h20q0 -29 -11.5 -51t-45.5 -22q-21 0 -34 13.5t-21 33t-13 40.5t-12 36q-7 6 -17 7t-18 1h-7v-67q0 -15 1.5 -23.5t6.5 -12.5t13.5 -5.5t23.5 -2.5v-20h-146v20q23 2 34.5 9t11.5 33zM256 535h23q25 0 42 10t17 38q0 23 -10 37.5t-35 14.5q-24 0 -30.5 -8.5
t-6.5 -31.5v-60z" />
    <glyph glyph-name="macron" unicode="&#xaf;" horiz-adv-x="433" 
d="M50 591h332v-73h-332v73v0z" />
    <glyph glyph-name="degree" unicode="&#xb0;" horiz-adv-x="397" 
d="M36 536q0 34 13 62.5t35.5 48.5t52 31.5t62.5 11.5t62.5 -11.5t52 -31.5t35.5 -48.5t13 -62.5t-13 -62.5t-35.5 -49.5t-52 -32.5t-62.5 -11.5q-34 0 -63.5 11.5t-51.5 32t-35 49t-13 63.5zM109 536q0 -38 26 -62t64 -24q37 0 63.5 24t26.5 62q0 18 -7.5 33.5t-20 27
t-28.5 18t-34 6.5q-37 0 -63.5 -23.5t-26.5 -61.5z" />
    <glyph glyph-name="plusminus" unicode="&#xb1;" horiz-adv-x="653" 
d="M20 348q-4 4 -4 15v16v18.5t4 16.5q1 1 18 2t37 1.5t38 0.5h22q38 0 77 -0.5t77 -0.5v141q0 13 10 16t20 3q6 0 14 0.5t15 -1t12 -5.5t5 -13v-141l270 -3q3 -4 3 -13v-14q0 -9 -0.5 -18t-0.5 -18q-2 -3 -20.5 -5t-45.5 -2.5t-59.5 -0.5h-62t-52.5 0.5t-32 0.5v-141
q0 -12 -9 -15.5t-19 -3.5h-14.5t-16 1.5t-12.5 5.5t-5 12v141zM16 66q0 20 20 20l599 -4l2 -4q0 -3 0.5 -6t0.5 -6v-33q0 -3 -0.5 -6.5t-0.5 -6.5q-3 -5 -8.5 -6t-10.5 -1l-598 4q-2 2 -3 7.5t-1 8.5v33z" />
    <glyph glyph-name="twosuperior" unicode="&#xb2;" horiz-adv-x="404" 
d="M33 244q0 7 16 25.5t40.5 44.5t53 56t53 62t40.5 62t16 56q0 33 -22.5 53t-54.5 20q-19 0 -36.5 -7t-32 -16t-26.5 -16t-20 -7q-11 0 -11 13q0 18 19.5 35t46.5 30.5t54 21.5t42 8q22 0 44 -6.5t39 -19.5t27.5 -32t10.5 -44q0 -27 -13.5 -55.5t-34 -55.5t-44.5 -52
t-45 -45.5t-36 -36t-17 -22.5l7 -5q11 -2 23 -3t23 -1q18 0 38.5 -1t41 1.5t38 9.5t29.5 22q5 5 9 11t12 6q5 0 8 -3.5t3 -8.5t-3.5 -13.5t-8 -18t-9.5 -18.5t-7 -14q-8 -15 -19 -31.5t-31 -16.5q-32 0 -64 3t-64 3q-29 0 -57 -3t-57 -3q-6 0 -13.5 2t-7.5 10z" />
    <glyph glyph-name="threesuperior" unicode="&#xb3;" horiz-adv-x="384" 
d="M259 508q42 -11 67 -36t25 -70q0 -40 -15 -71.5t-41 -54t-60 -34.5t-72 -12q-12 0 -34.5 4t-45 11.5t-39 19t-16.5 27.5q0 13 14 13q4 0 14.5 -6.5t25 -15t33 -15t38.5 -6.5q24 0 45.5 8.5t38 23.5t26 36t9.5 45q0 29 -10.5 43.5t-27 20t-37 5.5h-41.5q-8 0 -13 3t-5 12
q0 8 16 16.5t34.5 20.5t34.5 31t16 48q0 28 -19 44.5t-46 16.5q-19 0 -35 -6t-28.5 -13.5t-22 -13.5t-15.5 -6q-10 0 -10 10q0 17 18.5 31t43.5 24.5t50 16.5t39 6q19 0 37.5 -4.5t33.5 -14.5t24 -25t9 -37q0 -32 -18 -54t-41 -42z" />
    <glyph glyph-name="acute" unicode="&#xb4;" horiz-adv-x="244" 
d="M180 645q20 0 34 -15.5t14 -35.5q0 -14 -10 -23.5t-21 -14.5t-36 -17.5t-52 -25t-50 -22t-32 -9.5q-7 0 -10.5 5.5t-3.5 11.5t18 24.5t40.5 39.5t44 39.5t27.5 24.5q8 8 17 13t20 5z" />
    <glyph glyph-name="mu" unicode="&#xb5;" horiz-adv-x="573" 
d="M277 408q-2 -8 -8 -34t-14 -60t-16.5 -72t-16 -71t-12.5 -56t-5 -26q0 -14 12.5 -22t23.5 -8q22 0 38.5 13.5t27.5 33t18.5 41.5t11.5 40l50 221h117q-2 -11 -8 -36.5t-13 -58.5t-15 -69t-14.5 -67.5t-11 -54.5t-4.5 -30q0 -14 7.5 -23.5t21.5 -9.5q10 0 19 8.5t16 20.5
t12 24.5t8 20.5l41 -12q-5 -23 -14 -47t-23 -44t-34 -32.5t-48 -12.5q-26 0 -39 13.5t-18.5 33.5t-6 42.5t-0.5 40.5q-14 -22 -28.5 -45t-32.5 -42t-40.5 -31t-52.5 -12q-17 0 -29 5.5t-24 16.5l-28 -136q-6 -28 -20.5 -47.5t-46.5 -19.5q-17 0 -30.5 10t-13.5 29q0 9 2 19
t4 19l119 527h118z" />
    <glyph glyph-name="paragraph" unicode="&#xb6;" horiz-adv-x="475" 
d="M446 704h-71v-863h-40v863h-51v-863h-40v438q-48 7 -90 24t-73.5 45t-49.5 67.5t-18 92.5q0 70 31 116t79.5 73t108.5 37.5t118 10.5h96v-41z" />
    <glyph glyph-name="periodcentered" unicode="&#xb7;" horiz-adv-x="234" 
d="M116 427q7 0 22.5 -11t31.5 -26t28.5 -30t12.5 -22t-12 -22t-28.5 -30t-32.5 -26.5t-23 -11.5q-5 0 -20 12t-31.5 27t-29 29.5t-12.5 19.5q0 11 6 17t13 12q6 5 15.5 15.5t20.5 21t21.5 18t17.5 7.5z" />
    <glyph glyph-name="cedilla" unicode="&#xb8;" horiz-adv-x="266" 
d="M154 3q-5 -14 -11 -27.5t-9 -27.5q2 -7 19 -7.5t36.5 -4t35 -15t15.5 -40.5q0 -20 -8.5 -35.5t-22.5 -27t-31.5 -17.5t-35.5 -6q-10 0 -30.5 2.5t-41.5 8.5t-36.5 15.5t-15.5 23.5q0 10 6 12t14 2q2 0 7.5 -3.5t13.5 -8t18 -8t21 -3.5q20 0 33 8t13 30q0 13 -6 19t-15 7
t-19.5 0t-19.5 -1q-4 0 -7.5 1.5t-3.5 6.5q0 3 5 16.5t11 29.5t12 30.5t8 19.5h45z" />
    <glyph glyph-name="onesuperior" unicode="&#xb9;" horiz-adv-x="269" 
d="M96 559q0 7 -0.5 15t-3.5 15t-8 12t-14 5q-8 0 -15 -3t-15 -3t-12.5 2t-4.5 11q0 7 15.5 14.5t35 14.5t38.5 14t27 12q5 4 13.5 10.5t14.5 6.5t10.5 -3.5t4.5 -10.5q0 -20 -3 -41.5t-3 -42.5l1 -280q0 -17 11 -24t24.5 -11t25 -8t11.5 -14q0 -18 -18 -18q-23 0 -47 3
t-47 3q-24 0 -48 -3t-48 -3q-18 0 -18 17q0 15 11.5 17.5t25 5t25 11.5t11.5 36v240z" />
    <glyph glyph-name="ordmasculine" unicode="&#xba;" horiz-adv-x="447" 
d="M36 505q0 41 15 75t41 58.5t61 38t75 13.5q37 0 70.5 -12.5t58.5 -35t39.5 -54t14.5 -70.5q0 -42 -15 -77t-41.5 -59.5t-62 -38.5t-76.5 -14q-39 0 -72 13t-57 36t-37.5 55.5t-13.5 71.5zM126 551q0 -25 5.5 -58t19 -62t35.5 -49.5t54 -20.5q24 0 40 8.5t25 23.5t12.5 34
t3.5 40q0 25 -6 58t-19.5 63t-35 50.5t-53.5 20.5q-22 0 -37.5 -10t-25 -25.5t-14 -34.5t-4.5 -38z" />
    <glyph glyph-name="guillemotright" unicode="&#xbb;" horiz-adv-x="420" 
d="M50 346q0 8 8 8t12 -4.5t9 -9.5q8 -8 29.5 -28t44.5 -42t41.5 -40.5t20.5 -24.5q-1 -3 -12 -15.5t-27.5 -29t-36 -35t-36.5 -34.5t-29.5 -26t-14.5 -10t-2.5 0.5t-2.5 0.5l-3 3q0 2 -0.5 2.5t-0.5 2.5q0 8 6 27.5t14 41t16 42t12 30.5q-4 10 -12 30.5t-16 42t-14 41
t-6 27.5zM234 346q0 8 8 8q4 0 15.5 -9.5t27.5 -23.5t33.5 -31.5l33 -33t27.5 -28t17 -16.5q3 -3 3 -6t-10.5 -15t-27 -28.5l-35.5 -35.5t-36.5 -35t-30 -26.5t-15.5 -10.5q-2 0 -2.5 0.5t-2.5 0.5l-3 3l-2 5q0 9 6 28t14.5 41t16.5 42l12 30q-4 10 -12 30.5t-16.5 42
t-14.5 41t-6 27.5z" />
    <glyph glyph-name="onequarter" unicode="&#xbc;" horiz-adv-x="830" 
d="M438 131q0 9 18.5 36t47 62t63 73.5t65.5 70.5t54.5 53t30.5 21q8 0 10 -7.5t2 -13.5v-240h27q7 0 11 4.5t7 10.5t7 10.5t11 4.5q8 0 9.5 -4.5t1.5 -10.5q0 -14 -2.5 -26.5t-5.5 -25.5q-3 -15 -9 -22t-14.5 -9.5t-19 -2t-23.5 0.5q0 -19 1 -37t1 -37q0 -24 -10 -31
t-32 -12q-7 -2 -16 -4t-16 -2q-8 0 -10.5 4.5t-2.5 12.5q0 14 2.5 29t2.5 29v48l-187 1q-7 0 -15.5 2.5t-8.5 11.5zM75 606q-8 0 -15 -3t-15 -3t-12 2.5t-4 10.5q0 6 6.5 10.5t15 7.5t17 5.5t13.5 3.5q13 3 23.5 6.5t19.5 8t17.5 11t19.5 14.5q5 5 13 5q7 0 10.5 -6t3.5 -12
q0 -20 -3 -40t-3 -40l1 -280q0 -18 11 -25t24.5 -10.5t24.5 -7t11 -14.5q0 -18 -17 -18q-23 0 -47 3t-47 3q-24 0 -48.5 -3t-48.5 -3q-17 0 -17 17q0 15 11.5 17.5t25 5t25 11.5t11.5 36v222q0 7 -0.5 18t-3 21.5t-8 18t-15.5 7.5zM608 690l6 -4v-1q0 -2 -15 -30.5t-40 -74
t-57 -103.5t-66 -119t-67.5 -121t-61 -109.5t-46.5 -84t-25 -44.5q-7 -13 -22 -13q-8 0 -19 0.5t-13 9.5q2 3 3 6.5t3 6.5l370 669q8 13 25 13q7 0 13 -0.5t12 -0.5zM649 186v143l-2 4q-8 -3 -28 -23t-42 -44.5t-40 -47t-20 -30.5q6 -2 10 -2h122z" />
    <glyph glyph-name="onehalf" unicode="&#xbd;" horiz-adv-x="830" 
d="M464 7q0 6 16.5 24.5t40.5 44t53 56.5t53 63t40.5 62.5t16.5 55.5q0 32 -24 51t-54 19q-18 0 -35.5 -7t-32.5 -15.5t-26.5 -15.5t-15.5 -7q-8 0 -12 2.5t-4 10.5q0 5 3.5 10t6.5 9q29 34 68.5 54.5t84.5 20.5q22 0 44 -7t38.5 -20t27 -32t10.5 -44q0 -36 -21.5 -71.5
t-51.5 -68.5t-62.5 -63.5t-53.5 -56.5l-1 -4q4 -4 12 -6t16.5 -2.5t17 -0.5h14.5h39.5t39.5 2q24 1 37 9t20 16.5t11.5 15.5t12.5 7q5 0 8 -4t3 -9q0 -10 -8 -28.5t-19.5 -37t-24.5 -32.5t-24 -14q-32 0 -63.5 3t-63.5 3q-30 0 -59.5 -3t-59.5 -3q-6 0 -12 2.5t-6 10.5z
M103 550v4q0 7 -0.5 15.5t-3.5 16t-8.5 13t-14.5 5.5q-8 0 -16.5 -3t-16.5 -3q-13 0 -13 13q0 5 6.5 9.5t15.5 8t17.5 6t12.5 3.5q15 4 24.5 7.5t17.5 7.5t16.5 10t20.5 14q3 2 6.5 3.5t6.5 1.5q8 0 11 -5t3 -12q0 -20 -3 -40.5t-3 -40.5l1 -278q0 -18 11 -25t24.5 -10.5
t25 -7t11.5 -14.5q0 -18 -19 -18q-23 0 -46 3t-46 3q-24 0 -48 -3t-48 -3q-18 0 -18 17q0 15 11.5 17.5t25 5t25 12t11.5 39.5v228zM591 687l7 -4q-2 -3 -3 -6.5t-3 -6.5l-371 -671q-8 -14 -26 -14h-18t-10 11q2 3 3 6.5t3 6.5l369 666q8 13 26 13q6 0 11.5 -0.5t11.5 -0.5z
" />
    <glyph glyph-name="threequarters" unicode="&#xbe;" horiz-adv-x="811" 
d="M418 132q0 11 15.5 33.5t39.5 51.5t53 61t56.5 61t50 51.5t32.5 33.5q7 8 15 14.5t19 6.5q6 0 7.5 -8t1.5 -13v-239h26q7 0 11 4.5t7.5 10.5t8 10.5t12.5 4.5q5 0 7 -5.5t2 -9.5q0 -13 -2.5 -26.5t-5.5 -25.5q-3 -15 -9.5 -22t-14.5 -9t-19 -1.5t-23 0.5v-80
q0 -14 -3.5 -22.5t-17.5 -11.5q-13 -3 -27 -6t-28 -3q-6 0 -8 4.5t-2 9.5q0 16 3 30.5t3 30.5v48l-186 1q-8 0 -16 2t-8 13zM251 506q42 -11 66.5 -36t24.5 -70q0 -39 -15 -71t-41 -54t-60 -34t-71 -12q-12 0 -34 4t-44.5 12t-39 19.5t-16.5 26.5q0 13 14 13q4 0 14.5 -6.5
t25 -15t32.5 -15t38 -6.5q24 0 45.5 8.5t37.5 23.5t25.5 35.5t9.5 45.5q0 30 -11 44.5t-28.5 19.5t-39 4.5t-42.5 -0.5q-6 0 -9 5t-3 10q0 9 15.5 17t34.5 20t34.5 30.5t15.5 48.5q0 27 -19 43.5t-45 16.5q-18 0 -34 -6t-29 -13t-22.5 -13t-15.5 -6q-9 0 -9 9q0 17 18.5 31
t43.5 24.5t50 16.5t39 6q19 0 37.5 -4.5t33 -14t23.5 -24.5t9 -37q0 -32 -18 -54t-41 -42zM633 687l7 -4q-1 -4 -2.5 -7t-3.5 -6l-371 -671q-7 -13 -21 -13q-6 0 -19.5 0.5t-13.5 9.5q2 3 3 6.5t3 6.5l367 666q5 8 12.5 10.5t15.5 2.5q6 0 11.5 -0.5t11.5 -0.5zM625 185v143
l-2 4l-9 -2q-6 -8 -25.5 -29t-40.5 -44.5t-37.5 -44t-16.5 -25.5q8 -2 12 -2h119z" />
    <glyph glyph-name="questiondown" unicode="&#xbf;" horiz-adv-x="344" 
d="M166 -278q-26 0 -52 7t-46.5 21t-33.5 35.5t-13 51.5q0 28 19 60.5t44 65t50 63.5t38 58q6 12 8 22t2.5 19t-0.5 19t-1 23q0 16 14 16q9 0 15.5 -8.5t11 -19.5t6.5 -22.5t2 -18.5q0 -35 -12 -67.5t-27 -65t-27 -65t-12 -66.5q0 -26 18 -43t44 -17q20 0 34 6.5t23.5 14
t17 14t14.5 6.5t10 -4.5t3 -10.5q0 -1 -1.5 -4.5t-1.5 -5.5q-6 -21 -22.5 -37t-37.5 -26.5t-44 -15.5t-43 -5zM196 251q-6 0 -21.5 11.5t-31.5 26t-28 28.5t-12 20q0 13 3.5 18.5t12.5 13.5q6 5 16 15.5t21 20.5t22 17.5t18 7.5q8 0 12.5 -3.5t9.5 -8.5t17 -15t24 -21.5
t21.5 -22.5t9.5 -17q0 -11 -5.5 -16.5l-12.5 -12.5q-6 -5 -15.5 -15.5t-21 -21t-22 -18t-17.5 -7.5z" />
    <glyph glyph-name="Agrave" unicode="&#xc0;" horiz-adv-x="814" 
d="M403 709q6 0 11 -4.5t9.5 -11.5t8 -14l5.5 -11l268 -574q8 -18 23.5 -38t35.5 -26q9 -2 23 -5.5t14 -16.5q0 -8 -6.5 -11t-13.5 -3q-36 0 -72 3t-72 3q-34 0 -67 -3t-67 -3q-7 0 -14 3.5t-7 11.5q0 12 11.5 16t25.5 9.5t25.5 16.5t11.5 37q0 12 -3.5 23t-8.5 22l-38 79
q-11 23 -27 27t-39 4h-140q-30 0 -47.5 -7t-29 -20.5t-19.5 -32.5t-17 -44q-4 -9 -7 -19t-3 -20q0 -27 17.5 -39.5t39 -18.5t39 -11.5t17.5 -19.5q0 -10 -6.5 -13.5t-14.5 -3.5q-29 0 -56.5 3t-56.5 3t-57.5 -3t-57.5 -3q-8 0 -16 3.5t-8 12.5q0 4 9 11.5t20.5 16t22.5 16
t15 12.5q14 16 23 35t18 39l252 538q3 7 10 19t16 12zM265 306q0 -10 11 -11.5t18 -1.5h160q6 0 11 3t5 10q0 4 -6 19t-16 36t-21.5 45t-22 45.5t-19.5 38t-12 22.5q-3 5 -10 7q-3 -2 -11.5 -17.5t-19.5 -38t-22.5 -48.5t-21.5 -49t-16.5 -39.5t-6.5 -20.5zM278 873
q0 18 13.5 34t32.5 16q13 0 21 -5t17 -13l127 -117q2 -2 3 -6.5t1 -7.5q0 -8 -5 -11t-12 -3t-30.5 9.5t-50.5 22t-51.5 24.5t-34.5 17q-12 6 -21.5 16t-9.5 24z" />
    <glyph glyph-name="Aacute" unicode="&#xc1;" horiz-adv-x="815" 
d="M403 709q6 0 11 -4.5t9.5 -11.5t8 -14l5.5 -11l267 -574q4 -9 10.5 -19t14 -19t16.5 -16t18 -10q9 -2 23.5 -5.5t14.5 -16.5q0 -9 -7 -11.5t-14 -2.5q-35 0 -71 3t-72 3q-34 0 -67 -3t-67 -3q-8 0 -14.5 3t-6.5 12q0 12 11.5 16t25 9.5t25 16.5t11.5 37q0 23 -11 45
l-38 79q-11 23 -27.5 27t-39.5 4h-139q-31 0 -48.5 -7t-28.5 -20.5t-18.5 -32.5t-17.5 -44q-4 -9 -7 -18.5t-3 -20.5q0 -27 17.5 -39.5t39 -18.5t39 -11.5t17.5 -19.5q0 -10 -7 -13.5t-15 -3.5q-28 0 -56 3t-56 3q-29 0 -57.5 -3t-57.5 -3q-8 0 -16.5 3t-8.5 13q0 4 9 11.5
t21 15.5t23 16t15 13q14 16 23 35.5t18 38.5l251 538q3 7 10.5 19t16.5 12zM264 306q0 -10 11.5 -11.5t17.5 -1.5h161q6 0 10.5 3t4.5 10q0 3 -6.5 18.5t-16 37t-21.5 46t-22.5 46.5t-18.5 38t-11 20q-4 5 -10 7q-3 -2 -11.5 -17.5t-19.5 -38t-23 -48.5t-22 -49t-16.5 -39.5
t-6.5 -20.5zM445 923q20 0 34 -16t14 -35q0 -14 -10.5 -24t-21.5 -15q-10 -5 -35 -17t-52 -24.5t-50.5 -22t-31.5 -9.5q-15 0 -15 16q0 6 18 24.5t41 40t44.5 40t27.5 24.5q8 8 17 13t20 5z" />
    <glyph glyph-name="Acircumflex" unicode="&#xc2;" horiz-adv-x="818" 
d="M405 709q6 0 11 -4.5t9.5 -11.5t8 -14l5.5 -11l268 -574q8 -18 23.5 -38t35.5 -26q9 -2 23 -5.5t14 -16.5q0 -8 -6.5 -11t-13.5 -3q-36 0 -72 3t-72 3q-34 0 -67 -3t-67 -3q-7 0 -14 3.5t-7 11.5q0 12 11.5 16t25.5 9.5t25.5 16.5t11.5 37q0 12 -3.5 23t-8.5 22l-38 79
q-11 23 -27 27t-39 4h-140q-30 0 -47.5 -7t-29 -20.5t-19.5 -32.5t-17 -44q-4 -9 -7 -19t-3 -20q0 -27 17.5 -39.5t39 -18.5t39 -11.5t17.5 -19.5q0 -10 -6.5 -13.5t-14.5 -3.5q-29 0 -56.5 3t-56.5 3t-57.5 -3t-57.5 -3q-8 0 -16 3.5t-8 12.5q0 4 9 11.5t20.5 15.5t22.5 16
t15 13q14 17 23 35.5t18 38.5l252 538q3 7 10 19t16 12zM267 306q0 -10 11 -11.5t18 -1.5h160q6 0 11 3t5 10q0 4 -6 19t-16 36t-21.5 45t-22 45.5t-19.5 38t-12 22.5q-4 6 -9 7l-7 -5q-3 -6 -11 -22.5t-18.5 -38.5t-21.5 -46.5t-20 -45.5t-15 -36.5t-6 -18.5zM282 758
q-16 0 -16 17q0 5 9.5 22t22.5 36t24.5 36t16.5 23q9 11 19.5 19.5t26.5 8.5q11 0 21 -2.5t18 -10.5q6 -6 20 -25t28.5 -40.5t26 -41t11.5 -25.5q0 -17 -16 -17q-5 0 -20 10t-32.5 23t-33 25t-20.5 17q-7 -5 -22 -17.5t-31.5 -25.5t-31.5 -22.5t-21 -9.5z" />
    <glyph glyph-name="Atilde" unicode="&#xc3;" horiz-adv-x="815" 
d="M403 709q6 0 11 -4.5t9.5 -11.5t8 -14l5.5 -11l267 -574q8 -18 23.5 -38t35.5 -26q4 -2 10.5 -3t12.5 -3t10.5 -5.5t4.5 -10.5q0 -9 -7 -11.5t-14 -2.5q-35 0 -71 3t-72 3q-34 0 -67 -3t-67 -3q-8 0 -14.5 3t-6.5 12q0 12 11.5 16t25 9.5t25 16.5t11.5 37q0 11 -3 23
t-8 22l-38 79q-11 23 -27.5 27t-39.5 4h-139q-31 0 -48.5 -7t-28.5 -20.5t-18.5 -32.5t-17.5 -44q-4 -9 -7 -18.5t-3 -20.5q0 -27 17.5 -39.5t39 -18.5t39 -11.5t17.5 -19.5q0 -10 -7 -13.5t-15 -3.5q-28 0 -56 3t-56 3q-29 0 -57.5 -3t-57.5 -3q-8 0 -16.5 3t-8.5 13
q0 4 9 11.5t21 15.5t23 16t15 13q14 16 23 35.5t18 38.5l251 538q3 7 10.5 19t16.5 12zM264 306q0 -10 11.5 -11.5t17.5 -1.5h161q6 0 10.5 3t4.5 10q0 3 -6.5 18.5t-16 37t-21.5 46t-22.5 46.5t-18.5 38t-11 20q-4 5 -10 7q-3 -2 -11.5 -17.5t-19.5 -38t-23 -48.5t-22 -49
t-16.5 -39.5t-6.5 -20.5zM242 766q0 14 11.5 30.5t28 30.5t34.5 23.5t32 9.5q16 0 30 -5.5t27 -12t26 -12t28 -5.5t25 5.5t18 11.5t16.5 11.5t20.5 5.5q8 0 11.5 -6t3.5 -13q0 -15 -11.5 -31t-28 -30t-34.5 -23t-32 -9q-16 0 -32 5.5t-31 12.5t-29.5 12.5t-27.5 5.5
q-10 0 -18.5 -5.5t-16.5 -12.5t-16 -12.5t-16 -5.5q-19 0 -19 19z" />
    <glyph glyph-name="Adieresis" unicode="&#xc4;" horiz-adv-x="816" 
d="M404 709q6 0 11 -4.5t9.5 -11.5t8 -14l5.5 -11l268 -574q8 -18 23.5 -38t35.5 -26q9 -2 23 -5.5t14 -16.5q0 -8 -6.5 -11t-13.5 -3q-36 0 -72 3t-72 3q-34 0 -67 -3t-67 -3q-7 0 -14 3.5t-7 11.5q0 12 11.5 16t25.5 9.5t25.5 16.5t11.5 37q0 12 -3.5 23t-8.5 22l-38 79
q-11 23 -27 27t-39 4h-140q-30 0 -47.5 -7t-29 -20.5t-19.5 -32.5t-17 -44q-4 -9 -7 -19t-3 -20q0 -27 17.5 -39.5t39 -18.5t39 -11.5t17.5 -19.5q0 -10 -6.5 -13.5t-14.5 -3.5q-29 0 -56.5 3t-56.5 3t-57.5 -3t-57.5 -3q-8 0 -16 3.5t-8 12.5q0 4 9 11.5t20.5 16t22.5 16
t15 12.5q14 16 23 35t18 39l252 538q3 7 10 19t16 12zM266 306q0 -10 11 -11.5t18 -1.5h160q6 0 11 3t5 10q0 4 -6 19t-16 36t-21.5 45t-22 45.5t-19.5 38t-12 22.5q-3 5 -10 7q-3 -2 -11.5 -17.5t-19.5 -38t-22.5 -48.5t-21.5 -49t-16.5 -39.5t-6.5 -20.5zM290 896
q3 0 14 -8t22.5 -18.5t21 -20.5t10.5 -14q-1 -5 -9.5 -16t-19 -21.5t-21 -18.5t-15.5 -8t-15.5 7.5t-22 18t-20.5 20t-9 14.5q1 4 10 15t19.5 22t20.5 19.5t14 8.5zM478 896q4 0 15 -8t22.5 -18.5t20.5 -21t11 -14.5q-1 -5 -9.5 -15.5t-19 -21t-21 -18.5t-15.5 -8t-16 7.5
t-22.5 18t-20 20t-8.5 14.5q0 4 8.5 14.5t20 21.5t21.5 20t13 9z" />
    <glyph glyph-name="Aring" unicode="&#xc5;" horiz-adv-x="818" 
d="M406 709q6 0 11 -5t9.5 -11.5t7.5 -13.5t5 -11l268 -574q8 -18 23.5 -38t35.5 -26q9 -2 23 -5.5t14 -16.5q0 -8 -6.5 -11t-13.5 -3q-36 0 -72 3t-72 3q-34 0 -67 -3t-67 -3q-7 0 -14 3.5t-7 11.5q0 12 11.5 16t25.5 9.5t25.5 16.5t11.5 37q0 12 -3.5 23t-8.5 22l-37 79
q-11 23 -27.5 27t-39.5 4h-140q-30 0 -47.5 -7t-29 -20.5t-19.5 -32.5t-17 -44q-4 -9 -7 -19t-3 -20q0 -27 17.5 -39.5t39 -18.5t39 -11.5t17.5 -19.5q0 -10 -6.5 -13.5t-14.5 -3.5q-29 0 -56.5 3t-56.5 3t-57.5 -3t-57.5 -3q-8 0 -16 3.5t-8 12.5q0 4 9 11.5t20.5 15.5
t22.5 16t15 13q14 17 23 35.5t18 38.5l252 538q4 8 10.5 19.5t16.5 11.5zM267 306q0 -10 11 -11.5t18 -1.5h160q6 0 11 3t5 10q0 4 -6 19t-16 36t-21.5 45t-22 45.5t-19.5 38t-12 22.5q-4 6 -9 7l-7 -5q-3 -6 -11 -22.5t-18.5 -38.5t-21.5 -46.5t-20 -45.5t-15 -36.5
t-6 -18.5zM277 862q0 23 9 42.5t24 33.5t35 22t43 8q21 0 41 -8t35.5 -22t25 -33t9.5 -41q0 -23 -9 -42t-24 -33.5t-35 -22.5t-42 -8q-23 0 -43 7.5t-35.5 21t-24.5 33t-9 42.5zM339 862q0 -20 15 -32.5t35 -12.5q19 0 33.5 13.5t14.5 33.5q0 19 -15.5 32t-33.5 13
q-20 0 -34.5 -13.5t-14.5 -33.5z" />
    <glyph glyph-name="AE" unicode="&#xc6;" horiz-adv-x="1097" 
d="M531 625q0 12 -15 19.5t-33 13.5t-33 12t-15 16q0 8 7 10.5t14 2.5q69 0 137 -3t137 -3q59 0 117 3t118 3q29 0 31 -29l5 -109q1 -9 -6 -15.5t-16 -6.5q-11 0 -17 10t-10 24t-8 27.5t-13 21.5q-19 16 -47.5 19t-51.5 3h-105q-24 0 -32.5 -10.5t-8.5 -33.5v-149
q0 -13 0.5 -24t4 -18.5t11.5 -12t23 -4.5h27.5t36 1t35 3t25.5 7q11 6 20 18.5t17.5 25t15.5 22.5t14 10q11 0 14.5 -7t3.5 -16q0 -23 -3.5 -44.5t-3.5 -44.5q0 -26 3.5 -52t3.5 -52q0 -9 -4.5 -15t-14.5 -6q-12 0 -17.5 10.5t-10 25t-11.5 29.5t-23 24q-14 8 -33.5 9.5
t-34.5 1.5q-11 0 -28 1t-33 -1.5t-27 -10t-11 -23.5l1 -191q0 -37 13 -52t51 -15q43 0 79 5.5t68.5 18.5t61.5 35t58 55q5 5 9 10t12 5q9 0 12.5 -7t3.5 -15q0 -36 -13 -65.5t-35.5 -51.5t-53.5 -34t-66 -12q-50 0 -99 3t-99 3q-46 0 -91.5 -3t-91.5 -3q-8 0 -16 3t-8 14
q0 9 7 13t14 6q17 6 27 16.5t15.5 24t7.5 28.5t2 31v77q0 27 -8 31.5t-33 4.5h-171q-18 0 -33 -4t-26 -19l-78 -100q-5 -7 -14.5 -20.5t-9.5 -21.5q0 -19 16.5 -28.5t37 -15t37 -10.5t16.5 -14q0 -10 -8 -13t-16 -3q-30 0 -60.5 3t-60.5 3q-28 0 -55 -3t-55 -3q-18 0 -18 16
q0 8 6 12.5t12 7.5q33 17 60.5 44.5t50.5 56.5l380 478q2 2 4 8t2 8zM355 303q0 -4 4.5 -6t10 -3t11 -1h7.5q15 0 37.5 -0.5t46.5 -1t45 0t33 3.5q4 4 4.5 10t0.5 11v200v11.5t-1 11.5l-6 7q-6 -5 -22.5 -24t-38 -45.5t-45 -56.5t-43 -55.5t-32 -43t-12.5 -18.5z" />
    <glyph glyph-name="Ccedilla" unicode="&#xc7;" horiz-adv-x="738" 
d="M27 330q0 80 29 149t79.5 120t119.5 80.5t149 29.5q48 0 93 -10.5t89 -29.5q10 -4 25 -11.5t25 -7.5q7 0 10.5 4.5t7 10t7.5 10t11 4.5q11 0 15 -10.5t5 -18.5q2 -16 2.5 -31.5t1.5 -31.5q2 -29 7 -58.5t5 -58.5q0 -8 -4 -14.5t-13 -6.5q-11 0 -16.5 9t-10.5 17
q-21 38 -47.5 71.5t-59.5 58.5t-72.5 39.5t-85.5 14.5q-59 0 -104 -21t-75 -57t-45.5 -84.5t-15.5 -103.5q0 -59 18.5 -117t53 -105t85 -76t115.5 -29q60 0 107 20.5t80.5 44.5t53.5 44.5t26 20.5q7 0 12 -5.5t5 -12.5t-5 -16t-12 -18t-14.5 -17t-12.5 -13
q-35 -35 -70 -59.5t-73 -39.5t-80.5 -21.5t-91.5 -5.5q-4 -10 -8 -19.5t-6 -20.5q3 -7 19.5 -7.5t36 -4t35 -15t15.5 -40.5q0 -20 -8.5 -35.5t-22.5 -27t-31.5 -17.5t-35.5 -6q-10 0 -30.5 2.5t-41.5 8.5t-36.5 15.5t-15.5 23.5q0 9 6 11.5t14 2.5q2 0 7.5 -3.5t13.5 -8
t18 -8t21 -3.5q20 0 33 8t13 30q0 13 -6 19t-15 7t-19.5 0t-19.5 -1q-4 0 -7.5 1.5t-3.5 6.5q0 3 4.5 15t10 26t10.5 26.5l7 17.5q-67 10 -120 38.5t-90 73t-56.5 102t-19.5 124.5z" />
    <glyph glyph-name="Egrave" unicode="&#xc8;" horiz-adv-x="661" 
d="M19 686q0 9 6 12.5t14 3.5q66 0 131 -3t131 -3q63 0 124.5 3t124.5 3q15 0 22.5 -9t9.5 -22t1.5 -26.5t-0.5 -23.5q0 -14 1 -29t1 -29q0 -22 -22 -22q-10 0 -15 10t-9.5 23.5t-9.5 27.5t-15 22q-9 7 -21 11.5t-25.5 7t-27.5 3t-25 0.5h-105q-24 0 -32 -10.5t-8 -33.5
v-182q0 -18 15 -22t29 -4q11 0 27.5 -0.5t34 0.5t33 3.5t24.5 7.5t18.5 17.5t18.5 25.5t17 23t14 10q11 0 14.5 -10.5t3.5 -18.5q0 -22 -3.5 -43.5t-3.5 -44.5q0 -25 3.5 -49.5t3.5 -49.5q0 -11 -4 -16.5t-15 -5.5q-14 0 -18.5 10t-8.5 24.5t-11 29.5t-24 24q-10 5 -24 8
t-30 4t-31 1h-26q-9 0 -19 -1t-18.5 -4.5t-14 -10.5t-5.5 -19q0 -45 -0.5 -90.5t-0.5 -90.5q0 -35 12.5 -56.5t53.5 -21.5q60 0 120.5 13.5t106.5 56.5q4 4 12.5 13.5t18 20t18 18.5t13.5 8q11 0 13.5 -8t2.5 -17q0 -15 -4 -29t-10 -28q-23 -52 -60 -78t-95 -26q-46 0 -92 3
t-92 3q-50 0 -98.5 -3t-98.5 -3q-8 0 -16.5 3t-8.5 13t9 14t20.5 9.5t23 16.5t16.5 35q4 23 4 51v413q0 17 -1.5 42t-11.5 39q-11 16 -29 23t-35 10.5t-29.5 7.5t-12.5 15zM219 873q0 18 14 34t33 16q12 0 21 -5t17 -13q7 -7 28.5 -26t44.5 -40t40.5 -39.5t17.5 -25.5
q0 -8 -5 -11t-12 -3t-30.5 9.5t-50.5 22t-52 24.5t-35 17q-12 6 -21.5 16t-9.5 24z" />
    <glyph glyph-name="Eacute" unicode="&#xc9;" horiz-adv-x="663" 
d="M18 686q0 10 6.5 13t14.5 3q66 0 131 -3t131 -3q63 0 124.5 3t124.5 3q15 0 22.5 -9t9.5 -22t1.5 -26.5t-0.5 -23.5q0 -14 1 -29t1 -29q0 -9 -6.5 -15.5t-15.5 -6.5q-10 0 -15 10t-9.5 23.5t-10 27.5t-15.5 22q-18 15 -47 18.5t-52 3.5h-104q-24 0 -32 -10.5t-8 -33.5
v-182q0 -18 14.5 -22t28.5 -4h27.5t34 0.5t33.5 3t25 7.5t18.5 17.5t18.5 25.5t17 23t14 10q11 0 14.5 -10.5t3.5 -18.5q0 -23 -4 -44t-4 -44q0 -25 4 -49.5t4 -49.5q0 -22 -20 -22q-14 0 -18.5 10t-8.5 24.5t-10.5 29.5t-23.5 24q-10 5 -24 8t-30 4t-31 1h-26
q-9 0 -19.5 -1t-18.5 -4.5t-13.5 -10.5t-5.5 -19q0 -46 -0.5 -91.5t-0.5 -91.5q0 -35 13 -55.5t53 -20.5q60 0 120.5 14t106.5 56q4 4 12.5 13.5t18 20t18 18.5t12.5 8q11 0 14 -8t3 -17q0 -15 -4.5 -29t-10.5 -28q-23 -53 -60 -78.5t-95 -25.5q-46 0 -92 3t-92 3
q-49 0 -98 -3t-98 -3q-8 0 -17 3t-9 13t9 14t21 9.5t23.5 16.5t16.5 35q3 15 3.5 30t0.5 30v404q0 17 -2 42t-12 39q-11 16 -29 23t-35 10.5t-29.5 7.5t-12.5 15zM387 923q20 0 33.5 -16t13.5 -35q0 -14 -10 -24t-21 -15t-35.5 -17t-52 -24.5t-51 -22t-31.5 -9.5
q-7 0 -10.5 5t-3.5 11t18 24.5t40.5 39.5t44 40t27.5 25q8 8 17.5 13t20.5 5z" />
    <glyph glyph-name="Ecircumflex" unicode="&#xca;" horiz-adv-x="665" 
d="M19 686q0 10 6.5 13t14.5 3q66 0 131 -3t131 -3q63 0 124.5 3t124.5 3q15 0 22.5 -9t9.5 -22t1.5 -26.5t-0.5 -23.5q0 -14 1 -29t1 -29q0 -9 -6.5 -15.5t-15.5 -6.5q-10 0 -15 10t-9.5 23.5t-10 27.5t-15.5 22q-18 15 -47 18.5t-52 3.5h-104q-24 0 -32 -10.5t-8 -33.5
v-182q0 -18 15 -22t29 -4h27.5t34 0.5t33 3t24.5 7.5t18.5 17.5t18.5 25.5t17 23t14 10q11 0 14.5 -10.5t3.5 -18.5q0 -23 -4 -44t-4 -44q0 -25 4 -49.5t4 -49.5q0 -22 -20 -22q-14 0 -18.5 10t-8.5 24.5t-10.5 29.5t-23.5 24q-10 5 -24 8t-30 4t-31 1h-26q-9 0 -19.5 -1
t-18.5 -4.5t-13.5 -10.5t-5.5 -19q0 -46 -0.5 -91.5t-0.5 -91.5q0 -35 13 -55.5t53 -20.5q61 0 120 13.5t106 56.5q4 4 13 13.5t18.5 20t18 18.5t12.5 8q11 0 14 -8t3 -17q0 -15 -4.5 -29t-10.5 -28q-23 -53 -60 -78.5t-95 -25.5q-46 0 -92 3t-92 3q-49 0 -98 -3t-98 -3
q-8 0 -17 3t-9 13t9 14t21 9.5t23.5 16.5t16.5 35q3 15 3.5 30t0.5 30v404q0 17 -2 42t-12 39q-11 16 -29 23t-35 10.5t-29.5 7.5t-12.5 15zM222 758q-16 0 -16 17q0 5 9.5 21.5t22.5 36t24.5 36.5t16.5 23q9 11 20 19.5t27 8.5q11 0 21 -2.5t18 -10.5q5 -5 19 -24.5
t28.5 -41.5t26 -41t11.5 -25q0 -17 -16 -17q-5 0 -20 10t-32.5 23t-33 25t-20.5 17q-7 -5 -22 -17.5t-31.5 -25.5t-31.5 -22.5t-21 -9.5z" />
    <glyph glyph-name="Edieresis" unicode="&#xcb;" horiz-adv-x="666" 
d="M20 686q0 10 6.5 13t14.5 3q66 0 131 -3t131 -3q63 0 124.5 3t124.5 3q15 0 22 -8t9.5 -20t2 -25t-0.5 -23q0 -16 1 -31.5t1 -31.5q0 -9 -6.5 -15.5t-15.5 -6.5q-10 0 -15.5 10t-10 23.5t-10 27.5t-14.5 22q-9 7 -21 11.5t-25.5 7t-27 3t-24.5 0.5h-105q-25 0 -33 -11.5
t-8 -34.5v-180q0 -18 15 -22t29 -4h28t34.5 0.5t33 3t24.5 7.5t18.5 17.5t18.5 25.5t17 23t14 10q11 0 14.5 -10.5t3.5 -18.5q0 -23 -4 -44t-4 -44q0 -25 4 -49.5t4 -49.5q0 -22 -20 -22q-14 0 -18.5 10t-8.5 24.5t-10.5 29.5t-23.5 24q-10 5 -24 8t-30 4t-31 1h-26
q-9 0 -19.5 -1t-19 -4.5t-14 -10.5t-5.5 -19q0 -45 -0.5 -90t-0.5 -91q0 -36 13 -57t54 -21q61 0 120 13.5t106 56.5q4 4 13 13.5t18.5 20t18 18.5t12.5 8q11 0 14 -8t3 -17q0 -15 -4.5 -29t-10.5 -28q-23 -53 -59.5 -78.5t-95.5 -25.5q-46 0 -92 3t-92 3q-49 0 -98 -3
t-98 -3q-8 0 -17 3t-9 13t9 14t21 9.5t23.5 16.5t16.5 35q3 15 3.5 30t0.5 30v404q0 18 -1.5 42t-12.5 39q-12 16 -30 23t-35 10.5t-29 7.5t-12 15zM232 896q4 0 14.5 -8t22 -18.5t21 -20.5t10.5 -14q-1 -5 -9 -16t-18.5 -21.5t-21 -18.5t-15.5 -8t-16 7.5t-22.5 18
t-20.5 20t-9 14.5q1 4 10 15t19.5 22t20.5 19.5t14 8.5zM420 896q6 -1 16.5 -9t22 -18t20.5 -20t11 -15q-1 -5 -9.5 -15.5t-19 -21t-21 -18.5t-15.5 -8t-16 7.5t-22.5 18t-20 20t-8.5 14.5q0 4 8.5 14t19 21t20.5 19.5t14 10.5z" />
    <glyph glyph-name="Igrave" unicode="&#xcc;" horiz-adv-x="398" 
d="M13 685q0 13 13 15t22 2q35 0 70 -3t70 -3q32 0 64.5 3t64.5 3q8 0 14.5 -3.5t6.5 -13.5q0 -6 -5.5 -11.5t-13 -9.5t-15.5 -7.5t-12 -6.5q-19 -13 -23 -34.5t-4 -42.5v-422q0 -17 2 -41.5t11 -39.5q11 -18 29 -26t35.5 -11.5t30 -7t12.5 -13.5q0 -11 -8 -14.5t-17 -3.5
q-39 0 -78 3t-78 3q-31 0 -61.5 -3t-61.5 -3q-8 0 -14.5 3.5t-6.5 13.5q0 11 13.5 17.5t21.5 10.5q25 12 32 34t7 47l-1 426q0 18 -2 41t-11 39q-11 18 -29 25.5t-35 12t-30 8t-13 13.5zM91 873q0 18 13.5 34t32.5 16q12 0 21 -5t18 -13q7 -7 28.5 -26t44.5 -40t40.5 -39.5
t17.5 -25.5t-5.5 -10.5t-11.5 -3.5q-7 0 -30.5 9.5t-50.5 22t-51.5 24.5t-34.5 17q-13 6 -22.5 15.5t-9.5 24.5z" />
    <glyph glyph-name="Iacute" unicode="&#xcd;" horiz-adv-x="398" 
d="M11 685q0 13 13 15t22 2q35 0 70 -3t70 -3q32 0 64.5 3t64.5 3q8 0 14.5 -3.5t6.5 -13.5q0 -6 -5.5 -11.5t-13 -9.5t-15.5 -7.5t-12 -6.5q-19 -14 -23 -35t-4 -42v-422q0 -17 2 -41.5t11 -39.5q11 -18 29 -26t35.5 -11.5t30 -7t12.5 -13.5q0 -11 -8 -14.5t-17 -3.5
q-39 0 -78 3t-78 3q-31 0 -61.5 -3t-61.5 -3q-8 0 -14.5 3.5t-6.5 13.5q0 11 13.5 17.5t21.5 10.5q25 13 32 34t7 47l-1 426q0 18 -2 41t-11 39q-11 18 -29 25.5t-35 12t-30 8t-13 13.5zM257 923q20 0 34 -16t14 -35q0 -14 -10.5 -24t-21.5 -15q-10 -5 -35 -17t-52 -24.5
t-51 -22t-31 -9.5q-15 0 -15 16q0 6 18 24.5t40.5 39.5t44 40t27.5 25q8 8 17.5 13t20.5 5z" />
    <glyph glyph-name="Icircumflex" unicode="&#xce;" horiz-adv-x="404" 
d="M15 685q0 13 13 15t22 2q35 0 70 -3t70 -3q32 0 64.5 3t64.5 3q8 0 14.5 -3.5t6.5 -13.5q0 -6 -5.5 -11.5t-13 -9.5t-15.5 -7.5t-12 -6.5q-19 -13 -23 -34.5t-4 -42.5v-422q0 -17 2 -41.5t11 -39.5q11 -18 29 -26t35.5 -11.5t30 -7t12.5 -13.5q0 -11 -8 -14.5t-17 -3.5
q-39 0 -78 3t-78 3q-31 0 -61.5 -3t-61.5 -3q-8 0 -14.5 3.5t-6.5 13.5q0 11 13.5 17.5t21.5 10.5q25 12 32 34t7 47l-1 426q0 18 -2 41t-11 39q-11 18 -29 25.5t-35 12t-30 8t-13 13.5zM95 758q-16 0 -16 17q0 5 9.5 21.5t22.5 36t24.5 36.5t16.5 23q9 11 20 19.5t27 8.5
q11 0 21 -2.5t18 -10.5q6 -6 20 -25t28.5 -40.5t26 -41t11.5 -25.5q0 -17 -16 -17q-5 0 -20.5 10t-32.5 22.5t-32.5 25t-21.5 17.5q-7 -5 -22 -17.5t-31.5 -25.5t-31.5 -22.5t-21 -9.5z" />
    <glyph glyph-name="Idieresis" unicode="&#xcf;" horiz-adv-x="409" 
d="M18 685q0 13 12.5 15t21.5 2q35 0 70 -3t70 -3q32 0 64.5 3t64.5 3q8 0 14.5 -3.5t6.5 -13.5q0 -6 -5.5 -11.5t-13 -9.5t-15.5 -7.5t-12 -6.5q-19 -13 -23 -34.5t-4 -42.5v-422q0 -19 2 -41.5t12 -39.5q11 -19 29 -26.5t35 -11t29.5 -7t12.5 -13.5q0 -11 -8 -14.5
t-17 -3.5q-39 0 -78 3t-78 3q-31 0 -62 -3t-62 -3q-8 0 -14 4t-6 13q0 6 4 10t10 7.5t12 6t10 4.5q25 12 31.5 34t6.5 47l-1 426q0 18 -2 41t-11 39q-11 18 -28.5 25.5t-35 12t-30 8t-12.5 13.5zM106 896q4 0 14.5 -8t22 -18.5t21 -20.5t10.5 -14q-1 -5 -9 -16t-18.5 -21.5
t-21 -18.5t-15.5 -8t-16 7.5t-22.5 18t-20.5 20t-9 14.5q1 4 10 15t19.5 22t20.5 19.5t14 8.5zM294 896q6 -1 16.5 -9t21.5 -18t20 -20t11 -15q-1 -5 -9.5 -15.5t-19 -21t-20.5 -18.5t-15 -8t-16 7.5t-22.5 18t-20 20t-8.5 14.5q0 4 8.5 14t19 21t20.5 19.5t14 10.5z" />
    <glyph glyph-name="Eth" unicode="&#xd0;" horiz-adv-x="838" 
d="M144 540q0 10 -0.5 23t-2.5 26.5t-6 25t-11 19.5q-6 6 -20 11.5t-28.5 11t-26 11t-11.5 12.5q0 13 6.5 16t17.5 3q29 0 59 -3t59 -3q62 0 122.5 3.5t122.5 3.5q73 0 141 -20t120.5 -60t84 -100t31.5 -140q0 -41 -8.5 -81t-25.5 -77q-54 -114 -141 -171.5t-215 -57.5
q-45 0 -89.5 3.5t-89.5 3.5q-35 0 -68.5 -3t-68.5 -3q-8 0 -16.5 3t-8.5 14q0 13 11.5 17t25 11.5t25 23.5t11.5 52v212q-17 0 -32.5 -1.5t-32.5 -1.5q-12 0 -18 5t-8.5 12.5t-2 17.5t0.5 19q0 18 18 18h75v144zM276 172q0 -34 5 -58.5t18.5 -40t36.5 -22.5t60 -7
q68 0 119.5 20.5t86 58.5t52 91.5t17.5 119.5q0 61 -18.5 116.5t-53 98t-84.5 69.5t-114 30q-11 1 -22.5 1h-22.5q-20 0 -35 -2t-25 -9.5t-15 -21t-5 -35.5v-185l120 -1q4 0 6 -4t3 -9.5t1 -11v-7.5q0 -17 -1.5 -26.5t-23.5 -9.5h-105v-155z" />
    <glyph glyph-name="Ntilde" unicode="&#xd1;" horiz-adv-x="892" 
d="M144 532q0 27 -8 53t-28 46q-10 9 -18.5 14.5t-17.5 9.5t-18.5 7t-21.5 7q-6 2 -7.5 5.5t-1.5 9.5q0 12 10 15t19 3q17 0 34.5 -3.5t35.5 -3.5q21 0 42 3.5t42 3.5q14 0 25 -7t21 -16.5t18.5 -20.5t17.5 -20l390 -401q5 -5 14 -13t17 -8q4 0 6.5 9t3.5 21t1 23v14v210
q0 26 -1 53t-9 52q-9 31 -30 44t-42 18.5t-37 9t-16 15.5q0 11 8 14t17 3q26 0 51 -3t51 -3q31 0 62 3t62 3q8 0 19.5 -2t11.5 -13t-10.5 -15.5t-25 -11t-29 -20t-22.5 -43.5q-6 -23 -7 -48t-1 -49v-483q0 -8 -3 -19t-13 -11q-11 0 -20 10.5t-16 17.5l-512 516l-3 -1
q-3 -3 -5 -10.5t-3 -15.5t-1 -16v-12q0 -28 -1 -74t-1 -96.5t2 -99.5t8 -83q8 -45 33.5 -65t68.5 -28q8 -2 16.5 -5t8.5 -13q0 -12 -9 -15t-18 -3q-35 0 -71 3t-71 3q-23 0 -45 -3t-45 -3q-8 0 -15.5 2t-7.5 12q0 11 9.5 15t17.5 7q32 13 44 41.5t16 59.5q4 35 6 69t2 69
v263zM298 808q0 13 11.5 29.5t28 31t35 24t31.5 9.5q16 0 30 -5.5t27.5 -12t26.5 -12t28 -5.5t24.5 5.5t18 11.5t16.5 11.5t20 5.5q8 0 11 -6t3 -13q0 -15 -11 -31t-27.5 -30t-34.5 -23t-32 -9q-16 0 -32 5.5t-31 12.5t-29.5 12.5t-27.5 5.5q-10 0 -18.5 -5.5t-16.5 -12.5
t-16 -12.5t-16 -5.5q-19 0 -19 19z" />
    <glyph glyph-name="Ograve" unicode="&#xd2;" horiz-adv-x="799" 
d="M26 327q0 88 28 159t79.5 120.5t123.5 76t159 26.5q73 0 138.5 -23.5t114 -67t77 -105.5t28.5 -138q0 -88 -28 -159.5t-79 -122.5t-123 -78.5t-159 -27.5q-77 0 -143 23t-114 67t-75 107t-27 143zM158 384q0 -59 12.5 -120.5t41.5 -111.5t76.5 -82.5t117.5 -32.5
q63 0 107.5 24.5t73.5 65.5t42.5 93.5t13.5 108.5q0 59 -16 118t-49 106t-82.5 76.5t-116.5 29.5q-63 0 -105.5 -22.5t-68 -60t-36.5 -87.5t-11 -105zM292 873q0 18 13.5 34t32.5 16q12 0 21 -5t18 -13l126 -117q2 -2 3 -6.5t1 -7.5q0 -14 -16 -14q-7 0 -30.5 9.5t-50.5 22
t-51.5 24.5t-34.5 17q-13 6 -22.5 15.5t-9.5 24.5z" />
    <glyph glyph-name="Oacute" unicode="&#xd3;" horiz-adv-x="799" 
d="M25 327q0 88 28 159t79.5 120.5t123.5 76t159 26.5q73 0 138.5 -23.5t114 -67t77 -105.5t28.5 -138q0 -88 -28 -159.5t-79 -122.5t-123 -78.5t-159 -27.5q-77 0 -143 23t-114 67t-75 107t-27 143zM157 384q0 -59 12.5 -120.5t41.5 -111.5t76.5 -82.5t117.5 -32.5
q63 0 107.5 24.5t73.5 65.5t42.5 93.5t13.5 108.5q0 59 -16 118t-49 106t-82.5 76.5t-116.5 29.5q-63 0 -105.5 -22.5t-68 -60t-36.5 -87.5t-11 -105zM459 923q20 0 33.5 -16t13.5 -35q0 -14 -10 -23.5t-21 -15.5q-11 -5 -35.5 -17t-51.5 -24.5t-50.5 -22t-31.5 -9.5
q-15 0 -15 16q0 6 18 24.5t40.5 39.5t44 40t27.5 25q8 8 17.5 13t20.5 5z" />
    <glyph glyph-name="Ocircumflex" unicode="&#xd4;" horiz-adv-x="800" 
d="M26 327q0 88 28 159t79.5 120.5t123.5 76t159 26.5q73 0 138.5 -23.5t114 -67t77 -105.5t28.5 -138q0 -88 -28 -159.5t-79 -122.5t-123 -78.5t-159 -27.5q-77 0 -143 23t-114 67t-75 107t-27 143zM157 384q0 -39 5.5 -80t17.5 -79.5t31.5 -72.5t47 -59.5t64 -40.5
t83.5 -15q63 0 107.5 25t73 65.5t42 93t13.5 108.5q0 60 -16 119t-48.5 106t-82.5 76t-117 29q-63 0 -105.5 -22.5t-68 -60t-36.5 -87.5t-11 -105zM294 758q-17 0 -17 17q0 6 9.5 22.5t22.5 35t25 35.5t17 24q8 12 19 20t27 8q11 0 21 -2.5t18 -10.5q6 -6 20 -25t28.5 -40.5
t26 -41t11.5 -25.5q0 -17 -16 -17q-5 0 -20 10t-32.5 23t-33 25t-21.5 17l-21 -17.5t-31.5 -25.5t-31.5 -22.5t-21 -9.5z" />
    <glyph glyph-name="Otilde" unicode="&#xd5;" horiz-adv-x="801" 
d="M27 327q0 88 28 159t79.5 120.5t123.5 76t159 26.5q73 0 138.5 -23.5t114 -67t77 -105.5t28.5 -138q0 -88 -28 -159.5t-79 -122.5t-123 -78.5t-159 -27.5q-77 0 -143 23t-114 67t-75 107t-27 143zM158 384q0 -39 5.5 -80t17.5 -79.5t31.5 -72.5t47 -59.5t64 -40.5
t83.5 -15q63 0 107.5 25t73 65.5t42 93t13.5 108.5q0 60 -16 119t-48.5 106t-82.5 76t-117 29q-63 0 -105.5 -22.5t-68 -60t-36.5 -87.5t-11 -105zM245 808q0 14 11.5 30.5t28 30.5t34.5 23.5t32 9.5q16 0 30 -5.5t27.5 -12t26.5 -12t28 -5.5t24.5 5.5t18 11.5t16.5 11.5
t20 5.5q8 0 11.5 -6t3.5 -13q0 -15 -11 -31.5t-27.5 -30t-35 -22.5t-32.5 -9q-16 0 -31.5 5.5t-30.5 12.5t-29.5 12.5t-28.5 5.5q-10 0 -18.5 -5.5t-16.5 -12.5t-15.5 -12.5t-16.5 -5.5q-19 0 -19 19z" />
    <glyph glyph-name="Odieresis" unicode="&#xd6;" horiz-adv-x="803" 
d="M28 327q0 88 28 159t79.5 120.5t123.5 76t159 26.5q74 0 139 -23.5t114 -67t77 -105.5t28 -138q0 -88 -28 -159.5t-79 -122.5t-123 -78.5t-159 -27.5q-77 0 -143 23t-114 67t-75 107t-27 143zM160 384q0 -59 12.5 -120.5t41.5 -111.5t76.5 -82.5t117.5 -32.5
q63 0 107.5 24.5t73.5 65.5t42.5 93.5t13.5 108.5q0 59 -16 118t-49 106t-82.5 76.5t-116.5 29.5q-63 0 -105.5 -22t-68 -60t-36.5 -88t-11 -105zM305 896q4 0 14.5 -8t22 -18.5t21 -20.5t10.5 -14q-1 -5 -9 -16t-18.5 -21.5t-21 -18.5t-15.5 -8t-16 8t-22 18t-20 20t-9 14
q0 2 0.5 2.5t0.5 2.5q3 4 11.5 14t18 20t19 18t13.5 8zM493 896q4 0 15.5 -8.5t23.5 -19t21 -20.5t9 -14t-8.5 -14.5t-19 -21t-21.5 -19t-15 -8.5q-5 0 -16 7.5t-22.5 18t-20 20t-8.5 14.5q0 4 8.5 14.5t19.5 21.5t21 20t13 9z" />
    <glyph glyph-name="multiply" unicode="&#xd7;" horiz-adv-x="659" 
d="M46 522q0 4 5.5 11.5t12.5 15t14.5 12.5t12.5 5q4 0 7.5 -3t6.5 -5l224 -213l225 213q8 8 15 8q4 0 10.5 -5t12.5 -11.5t11.5 -13t8.5 -9.5q0 -1 0.5 -2t0.5 -2q0 -5 -4.5 -9.5l-7.5 -7.5l-222 -209l222 -209l7.5 -7.5t4.5 -9.5q0 -2 -0.5 -2.5t-0.5 -2.5
q-2 -3 -7.5 -9.5t-12 -13t-13 -11.5t-9.5 -5l-2 1q-5 0 -8 2.5t-6 5.5l-225 213l-224 -213l-8 -6t-9 -3q-3 0 -10 5.5t-14 13t-12.5 15t-5.5 10.5q0 5 4.5 9.5l7.5 7.5l222 209l-222 209q-3 3 -7.5 7t-4.5 9z" />
    <glyph glyph-name="Oslash" unicode="&#xd8;" horiz-adv-x="825" 
d="M39 326q0 88 28 158.5t79 120t123 75.5t159 26q36 0 64 -2.5t52.5 -10t49.5 -20t55 -32.5q19 21 28.5 33.5t19 19.5t24 9t44.5 2h11.5t10.5 -4q-5 -10 -16.5 -23.5t-25 -28t-26.5 -27.5l-22 -22q24 -26 40 -51.5t26.5 -53t15 -57.5t4.5 -65q0 -88 -28.5 -159.5
t-80 -121.5t-123.5 -77.5t-159 -27.5q-63 0 -112.5 15t-103.5 47l-1 -2q-18 -21 -27.5 -33t-19.5 -18t-25 -7.5t-43 -1.5q-1 0 -9 2.5t-10 3.5q17 27 41.5 50.5t47.5 46.5q-51 47 -71 108t-20 128zM212 177l366 388q-34 45 -83.5 68t-105.5 23q-62 0 -104.5 -23t-68 -61
t-36.5 -88.5t-11 -104.5q0 -55 9 -103.5t34 -98.5zM249 127h-2q32 -39 76 -64.5t97 -25.5q47 0 91 21q41 19 68 47.5t43.5 63t23.5 74.5t7 82q0 48 -11 94.5t-28 91.5z" />
    <glyph glyph-name="Ugrave" unicode="&#xd9;" horiz-adv-x="873" 
d="M20 686q0 11 8 13.5t16 2.5q32 0 64 -3t64 -3q35 0 68.5 3t68.5 3q9 0 16.5 -3t7.5 -14q0 -9 -7 -13t-17.5 -7.5t-21.5 -10t-18 -21.5q-3 -7 -5 -17.5t-3 -22.5t-1.5 -23t-0.5 -19v-219q0 -26 1 -53t5 -53q6 -44 25.5 -76.5t48.5 -55t66.5 -33.5t79.5 -11
q72 0 118.5 26.5t73 70.5t37 101t10.5 118v134q0 12 -0.5 31.5t-2.5 40t-6 38.5t-12 27q-10 11 -26.5 16.5t-32.5 9.5t-28 8.5t-12 14.5t6.5 13t14.5 3q26 0 51 -3t51 -3t51 3t51 3q8 0 14.5 -3.5t6.5 -13.5q0 -11 -8 -14t-19 -6.5t-22.5 -12t-17.5 -29.5q-6 -19 -7.5 -48
t-1 -60.5t2 -62t1.5 -51.5q0 -28 -1 -56t-4 -56q-30 -302 -336 -302q-60 0 -121 14t-109 54q-30 26 -46.5 59t-24 70t-8.5 75.5t-1 74.5q0 66 -0.5 132.5t-0.5 132.5q0 31 -16.5 43.5t-36.5 17.5t-36.5 8.5t-16.5 17.5zM337 873q0 18 13.5 34t32.5 16q13 0 21 -5t17 -13
q7 -7 28.5 -26t44.5 -40t40.5 -39.5t17.5 -25.5q0 -8 -5 -11t-12 -3t-30.5 9.5t-50.5 22t-51.5 24.5t-34.5 17q-12 6 -21.5 16t-9.5 24z" />
    <glyph glyph-name="Uacute" unicode="&#xda;" horiz-adv-x="873" 
d="M20 686q0 11 8 13.5t16 2.5q32 0 63.5 -3t63.5 -3q35 0 69 3t69 3q9 0 16 -3t7 -14q0 -9 -7 -13t-17 -7.5t-21 -10t-18 -21.5q-3 -7 -5 -17.5t-3 -22.5t-1.5 -23t-0.5 -19v-219q0 -26 1 -53t5 -53q6 -44 25.5 -76.5t48.5 -55t66.5 -33.5t79.5 -11q72 0 118.5 26.5
t73 70.5t37 101t10.5 118v134q0 12 -0.5 31.5t-2.5 40t-6.5 38.5t-12.5 27q-9 11 -25.5 16.5t-32.5 9.5t-28 8.5t-12 14.5t6 13t14 3q26 0 51.5 -3t51.5 -3t50.5 3t50.5 3q8 0 15 -3.5t7 -13.5q0 -11 -8 -14t-19.5 -6.5t-23 -12t-17.5 -29.5q-5 -17 -6.5 -47.5t-1 -64
t1.5 -65.5t1 -53q0 -26 -1 -52t-3 -52q-30 -302 -336 -302q-60 0 -121 13.5t-109 54.5q-31 26 -47 59t-23.5 69.5t-8.5 75t-1 75.5v132.5t-1 132.5q0 31 -17 43.5t-36.5 17.5t-36 8.5t-16.5 17.5zM504 923q20 0 34 -16t14 -35q0 -14 -10 -24t-21 -15q-10 -5 -35 -17
t-52.5 -24.5t-51 -22t-31.5 -9.5q-15 0 -15 16q0 6 18 24.5t40.5 39.5t44 40t27.5 25q8 7 17.5 12.5t20.5 5.5z" />
    <glyph glyph-name="Ucircumflex" unicode="&#xdb;" horiz-adv-x="875" 
d="M21 686q0 11 8 13.5t16 2.5q32 0 63.5 -3t63.5 -3q35 0 69 3t69 3q9 0 16 -3t7 -14q0 -9 -7 -13t-17 -7.5t-21 -10t-18 -21.5q-3 -7 -5 -17.5t-3 -22.5t-1.5 -23t-0.5 -19v-219q0 -26 1 -53t5 -53q6 -44 25.5 -76.5t48.5 -55t66.5 -33.5t79.5 -11q72 0 118.5 26.5
t73 70.5t37 101t10.5 118v134q0 12 -0.5 31.5t-2.5 40.5t-6.5 39t-11.5 26q-9 11 -26 16.5t-33.5 9.5t-28.5 8.5t-12 14.5t6.5 13t14.5 3q26 0 51.5 -3t51.5 -3t50.5 3t50.5 3q8 0 15 -3.5t7 -13.5q0 -11 -8 -14t-19.5 -6.5t-23 -12t-17.5 -29.5q-5 -17 -6.5 -47t-1 -64
t1.5 -66.5t1 -52.5q0 -26 -1 -52t-3 -52q-14 -152 -99 -227t-237 -75q-60 0 -121 13.5t-109 54.5q-31 26 -47 59t-23.5 69.5t-8.5 75t-1 75.5v132.5t-1 132.5q0 31 -17 43.5t-36.5 17.5t-36 8.5t-16.5 17.5zM339 758q-16 0 -16 17q0 5 9.5 21.5t22.5 36t24.5 36.5t16.5 23
q9 11 20 19.5t27 8.5q11 0 21 -2.5t18 -10.5q6 -6 20 -25t28.5 -40.5t25.5 -41t11 -25.5q0 -17 -15 -17q-5 0 -20.5 10t-32.5 22.5t-32.5 25t-21.5 17.5l-21 -17.5t-32 -25.5t-32 -22.5t-21 -9.5z" />
    <glyph glyph-name="Udieresis" unicode="&#xdc;" horiz-adv-x="877" 
d="M21 686q0 11 8.5 13.5t16.5 2.5q32 0 63.5 -3t63.5 -3q35 0 69 3t69 3q9 0 16 -3t7 -14q0 -9 -7 -13t-17 -7.5t-21 -10t-18 -21.5q-3 -7 -5 -17.5t-3 -22.5t-1.5 -23t-0.5 -19v-219q0 -26 1 -53t5 -53q6 -44 25.5 -76.5t48.5 -55t66.5 -33.5t79.5 -11q72 0 118.5 26.5
t73 70.5t37 101t10.5 118v134q0 12 -0.5 31.5t-2.5 40.5t-6.5 39t-11.5 26q-9 11 -26 16.5t-33.5 9.5t-28.5 8.5t-12 14.5t6.5 13t14.5 3q26 0 51.5 -3t51.5 -3t50.5 3t50.5 3q8 0 15 -3.5t7 -13.5q0 -11 -8.5 -14t-19.5 -6.5t-22.5 -12t-17.5 -29.5q-5 -16 -6 -46.5t-1 -65
t1 -67t1 -51.5q0 -26 -1 -52t-3 -52q-14 -152 -99 -227t-237 -75q-60 0 -121.5 13.5t-109.5 54.5q-30 26 -46.5 59t-23.5 70t-8 75.5t-1 74.5v132.5t-1 132.5q0 21 -8 33t-20 18.5t-26 9.5t-25.5 6t-19.5 7t-8 13zM349 896q4 0 14.5 -8t22 -18.5t21 -20.5t10.5 -14
q-1 -5 -9 -16t-18.5 -21.5t-21 -18.5t-15.5 -8t-16 8t-22 18t-20 20t-9 14q0 2 0.5 2.5t0.5 2.5q3 4 11.5 14t18 20t19 18t13.5 8zM537 896q6 -1 16.5 -9t22 -18t20 -20t10.5 -15q-1 -5 -9.5 -15.5t-19 -21t-20.5 -18.5t-15 -8t-16 7.5t-22.5 18t-20 20t-8.5 14.5
q0 4 8.5 14t19 21t20.5 19.5t14 10.5z" />
    <glyph glyph-name="Yacute" unicode="&#xdd;" horiz-adv-x="697" 
d="M9 686q0 16 16 16q32 0 63.5 -3t63.5 -3q36 0 72 3t72 3q8 0 13.5 -4.5t5.5 -12.5q0 -13 -9.5 -17.5t-21 -8t-21 -8t-9.5 -17.5q0 -8 9.5 -30t23.5 -50t30.5 -58.5t31 -56.5t25 -44t11.5 -20q2 -2 6 -4t7 -2q8 0 13 7t8 13l94 166q6 11 12.5 25.5t6.5 27.5
q0 20 -15.5 31.5t-34 18t-34 11.5t-15.5 13q0 20 22 20q26 0 50.5 -3t50.5 -3q27 0 54.5 3t54.5 3q8 0 14 -3.5t6 -12.5q0 -8 -6 -12.5t-12 -7.5q-27 -14 -45 -31.5t-33 -43.5q-38 -66 -75.5 -132.5t-75.5 -132.5q-5 -8 -7.5 -13t-3.5 -9.5t-1.5 -10.5t-0.5 -15v-133
q0 -32 9.5 -60.5t43.5 -40.5q6 -2 17 -4.5t22 -6.5t19.5 -10t8.5 -13q0 -16 -14 -16q-45 0 -88 3t-88 3q-41 0 -81 -3t-81 -3q-19 0 -19 17q0 7 13 13t30 12.5t33.5 12.5t22.5 13q8 8 12 23t6 32t2.5 33.5t0.5 27.5v99q0 3 -12.5 26.5t-31.5 57.5t-41.5 73t-41.5 72.5
t-33 57t-15 26.5q-14 25 -32 40.5t-34.5 25t-28.5 14.5t-14 9q-1 1 -1 3v4zM411 923q20 0 33.5 -16t13.5 -35q0 -14 -10 -24t-21 -15t-35.5 -17t-52 -24.5t-51 -22t-31.5 -9.5q-7 0 -10.5 5t-3.5 11t18 24.5t40.5 39.5t44 40t27.5 25q8 8 17.5 13t20.5 5z" />
    <glyph glyph-name="Thorn" unicode="&#xde;" horiz-adv-x="657" 
d="M381 562q49 0 96.5 -10t84 -33.5t59 -62.5t22.5 -96q0 -47 -18.5 -82.5t-49.5 -60.5t-71 -37.5t-83 -12.5q-9 0 -27 0.5t-35 4t-30 11t-13 21.5q0 17 19 17q12 0 23.5 -2.5t23.5 -2.5q63 0 96 39t33 99q0 34 -11 63t-31 50t-48 33t-63 12q-31 0 -52.5 -13t-21.5 -48v-308
q0 -31 6.5 -57t38.5 -40q5 -2 15.5 -5t20.5 -7.5t17.5 -9.5t7.5 -12q0 -11 -9 -14.5t-17 -3.5q-37 0 -73.5 3t-73.5 3q-29 0 -58.5 -3t-58.5 -3q-9 0 -15 3.5t-6 13.5q0 11 11.5 16t25 13.5t25 24.5t11.5 50v425q0 17 -2 39.5t-11 37.5q-12 20 -30 28.5t-35.5 13t-29.5 8
t-12 13.5q0 12 9.5 15.5t18.5 3.5q36 0 71.5 -3t71.5 -3q33 0 66 3t66 3q20 0 20 -17q0 -11 -13 -17.5l-21 -10.5q-16 -8 -23.5 -18.5t-10.5 -23t-3 -26.5v-29q24 2 48.5 3.5t48.5 1.5z" />
    <glyph glyph-name="germandbls" unicode="&#xdf;" horiz-adv-x="643" 
d="M33 390q0 13 4.5 19t11.5 8t16.5 1t18.5 -1q8 0 9.5 4t2.5 10q5 33 8.5 65.5t17.5 64.5q10 25 34 55.5t54 56.5t62.5 44t61.5 18q30 0 54.5 -10.5t42 -29.5t27 -44t9.5 -54q0 -21 -9 -44t-22 -46t-28 -43.5t-27 -36.5q32 -22 73 -52t77 -66t60.5 -76.5t24.5 -84.5
q0 -34 -10.5 -63.5t-30 -51t-48 -34t-63.5 -12.5q-26 0 -50.5 9t-44.5 9q-8 0 -17.5 -9.5t-13.5 -9.5q-1 0 -2 0.5t-2 0.5q-9 3 -11 13t-3 18q-1 11 -1 21t-1 21q-2 20 -10 39t-8 40q0 15 16 15q12 0 23.5 -19.5t26.5 -43t35.5 -43t50.5 -19.5q33 0 52.5 22t19.5 54
q0 28 -17 58t-43 58.5t-55.5 55t-55.5 47t-43 35t-17 19.5q0 4 13 24t28 47t28 57t13 55q0 17 -5.5 34.5t-16 32t-25.5 24t-34 9.5q-30 0 -47 -21t-25.5 -51t-10 -61.5t-1.5 -52.5q0 -98 0.5 -195t0.5 -195q0 -25 11.5 -37t25 -18t25 -10t11.5 -12q0 -9 -7.5 -11.5
t-14.5 -2.5q-27 0 -54 3t-54 3q-26 0 -50.5 -3t-50.5 -3q-7 0 -15.5 2.5t-8.5 11.5q0 12 10.5 14.5t23.5 7t23.5 16.5t10.5 43v273q-9 0 -17.5 -1t-17.5 -1q-29 0 -29 30z" />
    <glyph glyph-name="agrave" unicode="&#xe0;" horiz-adv-x="480" 
d="M192 390q-25 0 -34.5 -7t-12 -18t-2 -23t-4.5 -23t-19.5 -18t-47.5 -7q-13 0 -22.5 4.5t-9.5 19.5q0 31 20.5 52.5t49.5 35t62 20t57 6.5q71 0 105 -24.5t47 -64.5t11.5 -91t-1.5 -103q0 -13 -1 -30t1.5 -32.5t10.5 -26.5t26 -11q5 0 9.5 0.5t9.5 0.5q7 0 12 -2t5 -10
q0 -9 -11 -18t-26 -16.5t-30 -12t-23 -4.5q-29 0 -47.5 18t-33.5 40q-39 -23 -79 -40.5t-87 -17.5q-94 0 -94 97q0 46 25.5 74.5t63 45.5t80 26.5t76.5 17.5q-1 23 -3 48t-10 46t-25 34.5t-48 13.5zM278 176q0 6 -2 18t-11 12q-17 0 -37.5 -7.5t-38.5 -20t-30 -29.5t-12 -36
q0 -26 14.5 -44.5t42.5 -18.5q11 0 24 3.5t24 10t18.5 16.5t7.5 23v73zM122 595q0 17 13 33.5t32 16.5q13 0 21.5 -5t17.5 -13q7 -6 28.5 -25t44 -40t40.5 -40t18 -25q0 -8 -5 -11.5t-12 -3.5q-8 0 -31 9.5t-49.5 22.5t-51 25t-35.5 17q-13 6 -22 14.5t-9 24.5z" />
    <glyph glyph-name="aacute" unicode="&#xe1;" horiz-adv-x="478" 
d="M185 390q-25 0 -34.5 -7t-12 -18t-2 -23t-4.5 -23t-20 -18t-48 -7q-12 0 -22 5t-10 19q0 31 20.5 52.5t50.5 35t62.5 20t56.5 6.5q72 0 106.5 -25t46.5 -66t10.5 -92.5t-1.5 -104.5q0 -12 -1 -28.5t1.5 -31.5t10.5 -25t26 -10q5 0 9.5 0.5t9.5 0.5q7 0 12 -2t5 -10
q0 -9 -11 -18t-26 -16.5t-30 -12t-23 -4.5q-29 0 -47.5 18t-33.5 40q-39 -23 -79 -40.5t-87 -17.5q-95 0 -95 97q0 46 25.5 74.5t63 45.5t80.5 26.5t77 17.5q-1 23 -3 48t-10 46t-25 34.5t-48 13.5zM271 176q0 7 -2 18.5t-12 11.5q-17 0 -37.5 -7.5t-38 -20.5t-29.5 -29.5
t-12 -35.5q0 -26 14.5 -44.5t42.5 -18.5q11 0 24 3.5t24 10t18.5 16.5t7.5 23v73zM282 645q20 0 34 -16t14 -35q0 -14 -10.5 -23.5t-21.5 -14.5t-35.5 -17.5t-51 -25t-50 -22t-32.5 -9.5q-8 0 -11.5 5t-3.5 12q0 6 18 24.5t41 39.5t44.5 39.5t27.5 24.5q8 8 17 13t20 5z" />
    <glyph glyph-name="acircumflex" unicode="&#xe2;" horiz-adv-x="482" 
d="M190 390q-25 0 -34.5 -7t-12 -18t-1.5 -23t-4 -23t-20 -18t-48 -7q-12 0 -22 5t-10 19q0 31 20.5 52.5t49.5 35t62 20t57 6.5q73 0 108 -26.5t47 -69t10 -96t-2 -106.5q0 -12 -0.5 -27t2 -27.5t10 -21.5t24.5 -9q5 0 9.5 0.5t9.5 0.5q7 0 12 -2t5 -10q0 -9 -11 -18
t-26 -16.5t-30 -12t-23 -4.5q-29 0 -47.5 18.5t-33.5 39.5q-38 -23 -78.5 -40.5t-86.5 -17.5q-95 0 -95 97q0 46 25.5 74.5t63 45.5t80 26.5t76.5 17.5q-1 23 -2.5 48t-10 46t-25.5 34.5t-48 13.5zM122 480q-17 0 -17 17q0 6 9.5 22.5t22.5 35t25 35.5t17 24q8 12 19.5 20.5
t27.5 8.5q11 0 21 -3t18 -11q6 -5 20 -24t28.5 -41t25.5 -41.5t11 -25.5q0 -17 -16 -17q-5 0 -20 10t-32.5 23t-33 25t-20.5 17q-7 -5 -22 -17.5t-31.5 -25.5t-31.5 -22.5t-21 -9.5zM276 176q0 6 -2 18t-11 12q-17 0 -37.5 -7.5t-38 -20.5t-29.5 -29.5t-12 -35.5
q0 -26 14.5 -44.5t42.5 -18.5q11 0 24 3.5t24 10t18 16.5t7 23v73z" />
    <glyph glyph-name="atilde" unicode="&#xe3;" horiz-adv-x="496" 
d="M197 390q-25 0 -34.5 -7t-12 -18t-2 -23t-4.5 -23t-19.5 -18t-47.5 -7q-12 0 -22.5 5t-10.5 19q0 31 20.5 52.5t50.5 35t62.5 20t56.5 6.5q71 0 105 -24.5t47 -64.5t11.5 -91t-1.5 -103q0 -13 -1 -30t1.5 -32.5t10.5 -26.5t26 -11q5 0 9.5 0.5t9.5 0.5q7 0 12 -2t5 -10
q0 -9 -11 -18t-26 -16.5t-30 -12t-23 -4.5q-29 0 -47.5 18t-33.5 40q-39 -23 -79 -40.5t-87 -17.5q-49 0 -71.5 24.5t-22.5 72.5q0 46 25.5 74.5t63 45.5t80 26.5t76.5 17.5q-1 23 -3 48t-10 46t-25 34.5t-48 13.5zM79 530q0 14 11.5 30.5t28 31t34.5 24t32 9.5
q16 0 30 -5.5t27 -12.5t26.5 -12.5t28.5 -5.5t24.5 5.5t17.5 12t16.5 12t20.5 5.5q8 0 11.5 -6.5t3.5 -13.5q0 -15 -11 -31.5t-27.5 -30t-35 -22.5t-32.5 -9q-16 0 -31.5 5.5t-30.5 12.5t-29.5 12.5t-28.5 5.5q-10 0 -18.5 -5.5t-16.5 -12.5t-15.5 -12.5t-16.5 -5.5
q-19 0 -19 19zM283 176q0 6 -2 18t-11 12q-17 0 -37.5 -7.5t-38.5 -20t-30 -29.5t-12 -36q0 -26 14.5 -44.5t42.5 -18.5q11 0 24 3.5t24 10t18.5 16.5t7.5 23v73z" />
    <glyph glyph-name="adieresis" unicode="&#xe4;" horiz-adv-x="498" 
d="M198 390q-25 0 -34.5 -7t-12 -18t-2 -23t-4 -23t-19 -18t-47.5 -7q-12 0 -22.5 4.5t-10.5 19.5q0 31 20.5 52.5t49.5 35t62 20t57 6.5q73 0 108 -26.5t47 -69t10 -96t-2 -106.5q0 -25 -0.5 -41t4 -25.5t16.5 -13.5t36 -4q7 0 12 -2t5 -10q0 -9 -11.5 -18t-26.5 -16.5
t-30.5 -12t-22.5 -4.5q-29 0 -47.5 18.5t-33.5 39.5q-39 -23 -78.5 -40.5t-86.5 -17.5q-49 0 -71.5 24.5t-22.5 72.5q0 46 25.5 74.5t63 45.5t80 26.5t76.5 17.5q-1 23 -3 48t-10 46t-25.5 34.5t-48.5 13.5zM285 176q0 7 -2 18.5t-12 11.5q-17 0 -37.5 -7.5t-38 -20.5
t-29.5 -29.5t-12 -35.5q0 -26 14.5 -44.5t42.5 -18.5q11 0 24 3.5t24 10t18.5 16.5t7.5 23v73zM139 618q4 0 14.5 -8t22 -18.5t21 -20.5t10.5 -14q-1 -5 -9 -16t-18.5 -21.5t-21 -18.5t-15.5 -8t-16 7.5t-22.5 18t-20.5 20t-9 14.5q1 4 10 15t19.5 22t20.5 19.5t14 8.5z
M327 618q4 0 15 -8t22.5 -18t20.5 -20.5t11 -14.5q-1 -5 -9.5 -15.5t-19 -21.5t-20.5 -19t-15 -8t-16 7.5t-22.5 18t-20 20t-8.5 14.5q0 4 8.5 14.5t19.5 21.5t21 20t13 9z" />
    <glyph glyph-name="aring" unicode="&#xe5;" horiz-adv-x="484" 
d="M191 390q-25 0 -34.5 -7t-12 -18t-2 -23t-4.5 -23t-19.5 -18t-47.5 -7q-13 0 -22.5 4.5t-9.5 19.5q0 31 20.5 52.5t49.5 35t62 20t57 6.5q71 0 105 -24.5t47 -64.5t11.5 -91t-1.5 -103q0 -13 -1 -30t1.5 -32.5t10.5 -26.5t26 -11q5 0 9.5 0.5t9.5 0.5q7 0 12 -2t5 -10
q0 -9 -11 -18t-26 -16.5t-30 -12t-23 -4.5q-29 0 -47.5 18t-33.5 40q-39 -23 -79 -40.5t-87 -17.5q-94 0 -94 97q0 46 25.5 74.5t63 45.5t80 26.5t76.5 17.5q-1 23 -3 48t-10 46t-25 34.5t-48 13.5zM118 584q0 23 8.5 42.5t23.5 33.5t35 22t43 8q22 0 42 -8t35.5 -21.5
t24.5 -33t9 -41.5q0 -23 -9 -42t-24 -33.5t-35 -22.5t-42 -8q-23 0 -43 7.5t-35 21t-24 33t-9 42.5zM277 176q0 6 -2 18t-11 12q-17 0 -37.5 -7.5t-38.5 -20t-30 -29.5t-12 -36q0 -26 14.5 -44.5t42.5 -18.5q11 0 24 3.5t24 10t18.5 16.5t7.5 23v73zM180 584q0 -20 15 -32.5
t34 -12.5t33.5 13.5t14.5 33.5t-15 32.5t-34 12.5q-20 0 -34 -13.5t-14 -33.5z" />
    <glyph glyph-name="ae" unicode="&#xe6;" horiz-adv-x="742" 
d="M202 389q-26 0 -35.5 -7t-12 -18t-2 -23t-4.5 -23t-20.5 -18t-48.5 -7q-13 0 -21 5.5t-8 19.5q0 30 23 51t55 34.5t67 20t58 6.5t41.5 -2.5t34.5 -8.5t31 -16t33 -25q16 13 27.5 23t23.5 16.5t26.5 9.5t36.5 3q30 0 60 -10t55.5 -27.5t44.5 -42t29 -53.5q2 -8 5 -17.5
t3 -17.5q0 -17 -16 -21t-29 -4h-211q-12 0 -15.5 -7.5t-3.5 -17.5q0 -9 2 -17t4 -17q7 -25 15 -48t21 -41t33 -28.5t51 -10.5q27 0 49 8.5t38.5 19t27.5 19t17 8.5q5 0 11 -4t6 -9q0 -13 -14 -27t-32.5 -26.5t-38 -22t-29.5 -13.5q-21 -8 -42.5 -12t-44.5 -4q-30 0 -50.5 5
t-37 14.5t-32 24.5t-35.5 35q-22 -15 -47.5 -29.5t-53 -25.5t-56 -17.5t-55.5 -6.5q-48 0 -70.5 25.5t-22.5 72.5q0 46 28 75.5t68.5 47.5t85.5 28t80 16q-1 24 -6 48.5t-17 44t-31.5 32t-48.5 12.5zM305 180q0 7 -2 18.5t-12 11.5q-17 0 -40 -7.5t-44 -20.5t-35.5 -30.5
t-14.5 -36.5q0 -24 12 -44.5t40 -20.5q11 0 27.5 3t31.5 9.5t26 17t11 24.5v76zM564 275q13 0 19 4t6 18q0 18 -7 35t-19.5 29.5t-29 20t-34.5 7.5q-17 0 -30.5 -7.5t-23 -20t-14.5 -28t-5 -31.5q0 -11 3.5 -19t16.5 -8h118z" />
    <glyph glyph-name="ccedilla" unicode="&#xe7;" horiz-adv-x="460" 
d="M24 188q0 55 21.5 100t57.5 77t83.5 49.5t100.5 17.5q16 0 37.5 -4.5t40.5 -14t32 -24.5t13 -35q0 -6 -9.5 -16.5t-22.5 -20t-25.5 -16.5t-18.5 -7q-9 0 -14.5 15t-15 33t-25 33t-43.5 15q-26 0 -44.5 -12t-30.5 -30.5t-17.5 -41.5t-5.5 -45q0 -34 7.5 -71.5t24.5 -68.5
t45.5 -51t69.5 -20q23 0 45.5 8.5t41 19t31.5 19.5t18 9q12 0 12 -13q0 -6 -4.5 -12.5t-10.5 -13t-12.5 -12t-10.5 -8.5q-61 -49 -138 -58q-5 -10 -8.5 -20t-5.5 -21q2 -7 19 -7.5t36 -4t34.5 -15t15.5 -40.5q0 -20 -8.5 -35.5t-22.5 -27t-31.5 -17.5t-35.5 -6
q-10 0 -30.5 2.5t-41.5 8.5t-36.5 15.5t-15.5 23.5q0 9 5.5 11.5t13.5 2.5q3 0 8.5 -3.5t13.5 -8t18 -8t21 -3.5q20 0 33 8t13 30q0 13 -6 19t-15 7t-19.5 0t-19.5 -1q-4 0 -7.5 1.5t-3.5 6.5q0 3 4 14t9.5 24.5t10 26t6.5 16.5q-42 2 -76.5 18t-59 42.5t-38 62t-13.5 77.5z
" />
    <glyph glyph-name="egrave" unicode="&#xe8;" horiz-adv-x="455" 
d="M143 214q0 -29 11 -58t30.5 -52.5t46 -38.5t56.5 -15q27 0 49.5 8.5t39 19t28 19.5t17.5 9q5 0 10 -4.5t5 -9.5q0 -7 -5 -14.5t-11.5 -14.5t-14 -12.5t-12.5 -9.5q-36 -26 -75 -40t-84 -14q-46 0 -84 15.5t-65 43t-41.5 65.5t-14.5 84q0 45 15 87.5t42 75.5t65.5 53.5
t86.5 20.5q33 0 68 -13t64 -35.5t47.5 -53.5t18.5 -67q0 -8 -4.5 -13t-11 -7.5t-14 -3.5t-13.5 -1h-230q-11 0 -15.5 -7t-4.5 -17zM296 276q13 0 19 4t6 18q0 18 -7 35t-19 29.5t-28.5 20t-35.5 7.5q-41 0 -65 -28.5t-24 -67.5q0 -11 4 -14.5t15 -3.5h135zM119 595
q0 18 13.5 34t32.5 16q13 0 21 -5t17 -13q7 -6 28.5 -25t44 -40t40.5 -40t18 -25q0 -8 -5 -11.5t-12 -3.5q-8 0 -31 9.5t-49.5 22.5t-51 25t-35.5 17q-13 6 -22 14.5t-9 24.5z" />
    <glyph glyph-name="eacute" unicode="&#xe9;" horiz-adv-x="456" 
d="M137 214q0 -29 11 -58t30.5 -52.5t46 -38.5t56.5 -15q27 0 49.5 8.5t39.5 19t28 19.5t17 9q5 0 10 -4.5t5 -9.5q0 -7 -5 -14.5t-11.5 -14.5t-14 -12.5t-12.5 -9.5q-36 -26 -75 -40t-84 -14q-46 0 -83.5 15.5t-64.5 43t-42 66t-15 83.5q0 44 15 86.5t42 76t65.5 54
t86.5 20.5q33 0 68 -13t64 -35.5t47.5 -53.5t18.5 -67q0 -8 -4.5 -13t-11 -7.5t-14 -3.5t-13.5 -1h-230q-11 0 -15.5 -7t-4.5 -17zM291 276q13 0 19 4t6 18q0 18 -7 35t-19.5 29.5t-29 20t-34.5 7.5q-41 0 -65.5 -28.5t-24.5 -67.5q0 -11 4.5 -14.5t14.5 -3.5h136zM280 645
q20 0 34 -15.5t14 -35.5q0 -14 -10 -23.5t-21 -14.5t-36 -17.5t-52 -25t-50.5 -22t-31.5 -9.5t-11 5t-3 12q0 4 8.5 13.5t21.5 22.5t28.5 27.5t30 27.5t26 23t15.5 14q8 8 17 13t20 5z" />
    <glyph glyph-name="ecircumflex" unicode="&#xea;" horiz-adv-x="458" 
d="M142 214q0 -29 11 -58t30 -52.5t45.5 -38.5t56.5 -15q27 0 49.5 8.5t39.5 19t28 19.5t17 9q5 0 10 -4.5t5 -9.5q0 -7 -5 -14.5t-11.5 -14.5t-14 -12.5t-12.5 -9.5q-36 -27 -75 -40.5t-84 -13.5q-46 0 -83.5 15.5t-64.5 43t-42 66t-15 83.5q0 44 15 86.5t42 76t65.5 54
t86.5 20.5q33 0 68 -13t64 -35.5t47.5 -53.5t18.5 -67q0 -8 -4.5 -13t-11 -7.5t-14 -3.5t-13.5 -1h-229q-11 0 -15.5 -7t-4.5 -17zM119 480q-16 0 -16 17q0 5 9.5 22t22.5 36t24.5 36t16.5 23q9 11 20 20t27 9q11 0 20.5 -3t17.5 -11q6 -6 20 -25t29 -40.5t26 -40.5t11 -26
q0 -17 -16 -17q-5 0 -20 10t-32.5 23t-33 25t-20.5 17q-7 -5 -22 -17.5t-31.5 -25.5t-31.5 -22.5t-21 -9.5zM295 276q13 0 19 4t6 18q0 18 -7 35t-19.5 29.5t-29 20t-35.5 7.5q-20 0 -36.5 -8t-28 -21t-17.5 -30.5t-6 -36.5q0 -18 18 -18h136z" />
    <glyph glyph-name="edieresis" unicode="&#xeb;" horiz-adv-x="474" 
d="M149 214q0 -29 11 -58t30.5 -52.5t46 -38.5t56.5 -15q28 0 50 8.5t39 19t28.5 19.5t17.5 9q5 0 9.5 -4.5t4.5 -9.5q0 -7 -5 -14.5t-11.5 -14.5t-14 -12.5t-12.5 -9.5q-36 -27 -75 -40.5t-84 -13.5q-46 0 -83.5 15.5t-64.5 43t-42 66t-15 83.5t15 87.5t42.5 75.5t66 53.5
t86.5 20.5q33 0 68 -13t63.5 -36t47 -53.5t18.5 -66.5q0 -17 -15 -21t-28 -4h-230q-11 0 -15.5 -7t-4.5 -17zM303 276q13 0 19 4t6 18q0 18 -7 35t-19.5 29.5t-29 20t-34.5 7.5q-41 0 -65.5 -28.5t-24.5 -67.5q0 -11 4.5 -14.5t14.5 -3.5h136zM136 618q3 0 14 -8t22.5 -18.5
t21 -20.5t10.5 -14q-1 -5 -9 -16t-19 -21.5t-21.5 -18.5t-15.5 -8t-15.5 7.5t-22 18t-20.5 20t-9 14.5q1 4 10 15t19.5 22t20.5 19.5t14 8.5zM324 618q4 0 15 -8t22.5 -18t20.5 -20.5t11 -14.5q-1 -5 -9.5 -15.5t-19 -21.5t-21 -19t-14.5 -8q-5 0 -16 7.5t-22.5 18t-20.5 20
t-9 14.5q0 4 8.5 14.5t20 21.5t21.5 20t13 9z" />
    <glyph glyph-name="igrave" unicode="&#xec;" horiz-adv-x="302" 
d="M31 358q0 8 7 11.5t14 5.5q35 8 70.5 20t67.5 29q4 2 7.5 4t8.5 2q14 0 14 -13q0 -11 -1.5 -21t-2.5 -21q-2 -24 -2 -48.5v-48.5v-138v-21t1.5 -26.5t5 -25.5t9.5 -18q4 -4 13.5 -7.5t19.5 -7.5t17 -9t7 -12q0 -19 -22 -19q-23 0 -45 3t-45 3q-29 0 -58.5 -3t-58.5 -3
q-8 0 -17.5 3.5t-9.5 13.5q0 7 7.5 12t17 9.5l19 9t14.5 10.5q4 6 6 17.5t3 25t1 26v19.5q0 42 0.5 82.5t-1.5 81.5q-1 19 -11.5 26t-23 10t-22.5 5.5t-10 12.5zM51 595q0 18 14 34t33 16q13 0 21 -5t17 -13q7 -6 28.5 -25t44 -40t40.5 -40t18 -25q0 -8 -5 -11.5t-12 -3.5
q-8 0 -31 9.5t-49.5 22.5t-51 25t-35.5 17q-13 6 -22.5 15t-9.5 24z" />
    <glyph glyph-name="iacute" unicode="&#xed;" horiz-adv-x="302" 
d="M17 358q0 8 7 11.5t14 5.5q35 8 70.5 20t67.5 29q4 2 7.5 4t8.5 2q14 0 14 -13q0 -11 -1.5 -21t-2.5 -21q-2 -24 -2 -48.5v-48.5v-138v-21t1.5 -26.5t5 -25.5t9.5 -18q4 -4 13.5 -7.5t19.5 -7.5t17 -9t7 -12q0 -19 -22 -19q-23 0 -45 3t-45 3q-29 0 -58.5 -3t-58.5 -3
q-8 0 -17.5 3.5t-9.5 13.5q0 7 7.5 12t17 9.5l19 9t14.5 10.5q4 6 6 17.5t3 25t1 26v19.5q0 42 0.5 82.5t-1.5 81.5q-1 19 -11.5 26t-23 10t-22.5 5.5t-10 12.5zM205 645q20 0 34 -16t14 -35q0 -14 -10 -23.5t-21 -14.5t-36 -17.5t-52 -25t-50 -22t-32 -9.5q-8 0 -11.5 5
t-3.5 12q0 6 18 24.5t41 39.5t44.5 39.5t27.5 24.5q8 8 17 13t20 5z" />
    <glyph glyph-name="icircumflex" unicode="&#xee;" horiz-adv-x="307" 
d="M26 358q0 8 7 11.5t14 5.5q35 8 70.5 20t67.5 29q4 2 7.5 4t8.5 2q14 0 14 -13q0 -11 -1.5 -21t-2.5 -21q-2 -24 -2 -48.5v-48.5v-138v-21t1.5 -26.5t5 -25.5t9.5 -18q4 -4 13.5 -7.5t19.5 -7.5t17 -9t7 -12q0 -19 -22 -19q-23 0 -45 3t-45 3q-29 0 -58.5 -3t-58.5 -3
q-8 0 -17.5 3.5t-9.5 13.5q0 7 7.5 12t17 9.5l19 9t14.5 10.5q4 6 6 17.5t3 25t1 26v19.5q0 42 0.5 82.5t-1.5 81.5q-1 19 -11.5 26t-23 10t-22.5 5.5t-10 12.5zM48 480q-16 0 -16 17q0 5 9.5 21.5t22.5 35.5t24.5 36.5t16.5 23.5q9 11 19.5 20t26.5 9q12 0 21.5 -2.5
t17.5 -11.5q6 -6 20 -25t29 -40.5t26 -40.5t11 -26q0 -17 -16 -17q-5 0 -20 10t-32.5 23t-33 25t-21.5 17l-21 -17.5t-31.5 -25.5t-31.5 -22.5t-21 -9.5z" />
    <glyph glyph-name="idieresis" unicode="&#xef;" horiz-adv-x="380" 
d="M62 358q0 8 7 11.5t14 5.5q35 8 70.5 20t67.5 29q4 2 7.5 4t8.5 2q14 0 14 -13q0 -11 -1.5 -21t-2.5 -21q-2 -24 -2 -48.5v-48.5v-138v-21t1.5 -26.5t5 -25.5t9.5 -18q4 -4 13.5 -7.5t19.5 -7.5t17 -9t7 -12q0 -19 -22 -19q-23 0 -45 3t-45 3q-29 0 -58.5 -3t-58.5 -3
q-8 0 -17.5 3.5t-9.5 13.5q0 7 7.5 12t17 9.5l19 9t14.5 10.5q4 6 6 17.5t3 25t1 26v19.5q0 42 0.5 82.5t-1.5 81.5q-1 19 -11.5 26t-23 10t-22.5 5.5t-10 12.5zM94 618q3 0 14 -8t22.5 -18.5t21 -20.5t10.5 -14q-1 -5 -9.5 -16t-19 -21.5t-21 -18.5t-15.5 -8t-15.5 7.5
t-22 18t-20.5 20t-9 14.5q1 5 10 15.5t19.5 21.5t20.5 19.5t14 8.5zM282 618q4 0 15 -8t22.5 -18t20.5 -20.5t11 -14.5q-1 -5 -9.5 -15.5t-19 -21.5t-21 -19t-15.5 -8t-16 7.5t-22.5 18t-20 20t-8.5 14.5q0 4 8.5 14.5t20 21.5t21.5 20t13 9z" />
    <glyph glyph-name="eth" unicode="&#xf0;" horiz-adv-x="525" 
d="M261 540q-5 -4 -17 -12.5t-25.5 -17.5t-25.5 -16t-16 -7q-2 0 -2.5 0.5t-2.5 0.5q-5 4 -14 14t-9 17q0 6 10 15.5t23 19t25.5 17.5t18.5 12q-4 4 -17 16.5t-27.5 26.5t-25.5 26t-11 15q0 6 5.5 14t13 15.5t15.5 12.5t14 5q8 0 22.5 -11t30.5 -25t29.5 -28t19.5 -21
q4 3 15.5 11.5t24.5 17.5t24 16t15 7t9 -4t10 -9.5t8.5 -11.5t3.5 -10t-9.5 -12.5t-22 -17.5t-24.5 -17t-16 -11q31 -39 60.5 -80.5t52 -86.5t36 -93t13.5 -100q0 -53 -18 -97.5t-50.5 -76.5t-77 -49.5t-97.5 -17.5q-48 0 -89 15.5t-71.5 44t-48 68.5t-17.5 89q0 46 18 87
t49 72t72 49t87 18q19 0 37.5 -3t36.5 -7q-13 32 -28.5 62t-36.5 58zM140 258q0 -29 7 -68.5t23 -75t41.5 -60.5t62.5 -25q56 0 81.5 34.5t25.5 86.5q0 30 -7 71t-22.5 78.5t-42 63.5t-65.5 26q-30 0 -50 -11t-32 -29t-17 -41.5t-5 -49.5z" />
    <glyph glyph-name="ntilde" unicode="&#xf1;" horiz-adv-x="610" 
d="M356 432q46 0 75 -17t46 -45t24.5 -64t9.5 -74t0.5 -75.5t-1.5 -67.5q0 -27 11.5 -37.5t25 -15.5t25 -9t11.5 -16q0 -9 -6.5 -13t-14.5 -4q-22 0 -43.5 3t-43.5 3q-28 0 -55.5 -3t-55.5 -3q-8 0 -15.5 3t-7.5 13t7 13.5t16 8.5t17.5 14.5t11.5 31.5q2 9 2 18v18
q0 28 1 70t-6.5 81.5t-28.5 67.5t-65 28q-15 0 -30.5 -5t-28 -14.5t-20 -23t-7.5 -30.5l2 -193q0 -19 6 -28.5t16 -15t22 -10t25 -11.5q3 -4 3 -14q0 -22 -23 -22q-22 0 -44 3t-44 3q-30 0 -60 -3t-60 -3q-8 0 -16.5 3t-8.5 13q0 12 11 16t24 10t24 19t11 44q0 44 -1 86.5
t-1 86.5v22.5t-3 22.5q-4 13 -14.5 17.5t-22 7t-20 5.5t-8.5 14q0 8 7 11t14 5q37 9 71.5 21t68.5 29q8 4 13 5l5 -2q2 -3 3 -11.5t1 -19t-0.5 -20t-0.5 -13.5q32 27 66.5 46.5t79.5 19.5zM152 530q0 13 11.5 30t28 31t35 24t31.5 10q16 0 30.5 -5.5t27.5 -12.5t26 -12.5
t28 -5.5t25 5.5t18 12t16.5 12t20.5 5.5q8 0 11 -7t3 -13q0 -15 -11 -31.5t-27.5 -30t-35 -22.5t-32.5 -9q-16 0 -31.5 5.5t-30.5 12.5t-29.5 12.5t-28.5 5.5q-10 0 -18.5 -5.5t-16.5 -12.5t-15.5 -12.5t-16.5 -5.5q-19 0 -19 19z" />
    <glyph glyph-name="ograve" unicode="&#xf2;" horiz-adv-x="519" 
d="M27 205q0 51 19 92.5t51.5 71.5t76 46.5t92.5 16.5q47 0 89 -15.5t73.5 -43.5t50 -68t18.5 -89q0 -51 -19.5 -93t-52.5 -72.5t-77 -47t-93 -16.5q-48 0 -89.5 15.5t-72.5 44t-48.5 69t-17.5 89.5zM141 260q0 -29 7 -69t22.5 -76t41.5 -61t64 -25q56 0 81.5 35t25.5 87
q0 31 -6.5 72.5t-22.5 78.5t-42.5 62.5t-66.5 25.5q-30 0 -50 -10.5t-32 -28.5t-17 -41.5t-5 -49.5zM150 595q0 18 13.5 34t32.5 16q12 0 21 -5t18 -13q7 -6 28.5 -25t44 -40t40.5 -40t18 -25q0 -8 -5 -11.5t-12 -3.5q-8 0 -31 9.5t-49.5 22.5t-51 25t-35.5 17
q-13 6 -22.5 14.5t-9.5 24.5z" />
    <glyph glyph-name="oacute" unicode="&#xf3;" horiz-adv-x="520" 
d="M20 205q0 50 19 92t51 72t75.5 46.5t92.5 16.5q47 0 89.5 -15.5t74 -43.5t50 -68t18.5 -89q0 -51 -19.5 -93t-52.5 -72.5t-77 -47t-93 -16.5q-48 0 -89.5 15.5t-72.5 44t-48.5 69t-17.5 89.5zM134 260q0 -29 7 -69t22.5 -76t41.5 -61t64 -25q56 0 81.5 35t25.5 87
q0 31 -6.5 72.5t-22.5 78.5t-42.5 62.5t-66.5 25.5q-30 0 -50 -10.5t-32 -28.5t-17 -41.5t-5 -49.5zM350 645q20 0 33.5 -16t13.5 -35q0 -14 -10 -23.5t-21 -14.5t-36 -17.5t-52 -25t-50 -22t-32 -9.5q-7 0 -10.5 5.5t-3.5 11.5t18 24.5t41 39.5t44 39.5t27 24.5
q8 8 17.5 13t20.5 5z" />
    <glyph glyph-name="ocircumflex" unicode="&#xf4;" horiz-adv-x="523" 
d="M25 205q0 51 19 93t51.5 71.5t76 46t93.5 16.5q47 0 89 -15.5t73.5 -43.5t50 -68t18.5 -89q0 -51 -19.5 -93t-52.5 -72.5t-77 -47t-93 -16.5q-48 0 -90 15.5t-72.5 44t-48.5 69t-18 89.5zM140 260q0 -29 7 -69t22.5 -76t41.5 -61t64 -25q56 0 81.5 35t25.5 87
q0 31 -6.5 72.5t-22.5 78.5t-42.5 62.5t-66.5 25.5q-30 0 -50 -10.5t-32 -28.5t-17 -41.5t-5 -49.5zM166 480q-17 0 -17 17q0 6 9.5 22.5t22.5 35t25 35.5t17 24q9 12 19.5 20.5t26.5 8.5q11 0 21 -3t18 -11q6 -6 20 -25t29 -40.5t26 -41t11 -25.5q0 -17 -16 -17
q-5 0 -20.5 10t-32.5 22.5t-32.5 25t-21.5 17.5l-21 -17.5t-31.5 -25.5t-31.5 -22.5t-21 -9.5z" />
    <glyph glyph-name="otilde" unicode="&#xf5;" horiz-adv-x="533" 
d="M29 205q0 51 19 92.5t51.5 71.5t76 46.5t92.5 16.5q47 0 89.5 -15.5t74 -43.5t50 -68t18.5 -89q0 -51 -19.5 -93.5t-52.5 -72.5t-77 -46.5t-94 -16.5q-48 0 -89.5 15.5t-72.5 44t-48.5 69t-17.5 89.5zM144 260q0 -29 6.5 -69t22.5 -76t41.5 -61t63.5 -25q56 0 81.5 35
t25.5 87q0 31 -6.5 72t-22 78t-42 63t-66.5 26q-30 0 -50 -10.5t-32 -28.5t-17 -41.5t-5 -49.5zM131 530q0 14 11.5 30.5t28 31t34.5 24t32 9.5q16 0 30 -5.5t27 -12.5t26.5 -12.5t28.5 -5.5t24.5 5.5t17.5 12t16.5 12t20.5 5.5q8 0 11 -6.5t3 -13.5q0 -15 -11 -31
t-27.5 -30t-34.5 -23t-32 -9q-16 0 -32 5.5t-31 12.5t-29.5 12.5t-27.5 5.5q-11 0 -19.5 -5.5t-16.5 -12.5t-15.5 -12.5t-16.5 -5.5q-18 0 -18 19z" />
    <glyph glyph-name="odieresis" unicode="&#xf6;" horiz-adv-x="533" 
d="M30 205q0 51 19 92.5t51.5 71.5t76 46.5t92.5 16.5q47 0 89 -15.5t73.5 -43.5t50 -68t18.5 -89q0 -51 -19 -93.5t-52 -72.5t-77 -46.5t-94 -16.5q-48 0 -89.5 15.5t-72.5 44t-48.5 69t-17.5 89.5zM144 260q0 -29 7 -69t22.5 -76t41.5 -61t64 -25q56 0 81.5 35t25.5 87
q0 31 -6.5 72.5t-22.5 78.5t-42.5 62.5t-66.5 25.5q-30 0 -50 -10.5t-32 -28.5t-17 -41.5t-5 -49.5zM186 618q3 0 14 -8t22.5 -18.5t21 -20.5t10.5 -14q-1 -5 -9.5 -16t-19 -21.5t-21 -18.5t-15.5 -8t-15.5 7.5t-22 18t-20.5 20t-9 14.5q1 4 10 15t19.5 22t20.5 19.5t14 8.5
zM374 618q4 0 15 -8t22.5 -18t20.5 -20.5t11 -14.5q-1 -5 -9.5 -15.5t-19 -21.5t-21 -19t-15.5 -8t-16 7.5t-22.5 18t-20 20t-8.5 14.5q0 4 8.5 14.5t20 21.5t21.5 20t13 9z" />
    <glyph glyph-name="divide" unicode="&#xf7;" horiz-adv-x="634" 
d="M7 316q0 3 1 8.5t3 7.5q5 1 8 1.5t8 0.5l597 -2l2 -3q0 -3 0.5 -6.5t0.5 -6.5v-34q0 -3 -0.5 -6t-0.5 -6l-2 -3l-5 -3q-3 0 -5.5 -0.5t-5.5 -0.5l-593 1q-5 4 -6.5 8t-1.5 10v34zM250 481q0 28 20 46t47 18q26 0 46.5 -18.5t20.5 -45.5q0 -28 -20 -46t-47 -18
q-28 0 -47.5 17.5t-19.5 46.5zM250 117q0 26 19 44.5t45 18.5q27 0 48.5 -17t21.5 -46q0 -28 -20 -46t-47 -18q-28 0 -47.5 17.5t-19.5 46.5z" />
    <glyph glyph-name="oslash" unicode="&#xf8;" horiz-adv-x="545" 
d="M38 205q0 50 19 91.5t51.5 71t76 46t91.5 16.5q38 0 68 -8.5t64 -25.5q11 13 21 22.5t28 9.5q3 0 10.5 0.5t16 0t14.5 -2.5t6 -6q0 -2 -7 -11t-16 -19t-17.5 -19.5t-11.5 -12.5q29 -32 42 -67t13 -79q0 -50 -20 -91.5t-53.5 -71t-77.5 -46t-92 -16.5q-36 0 -63.5 6.5
t-58.5 26.5q-11 -12 -20.5 -23t-27.5 -11h-11.5h-15.5t-14.5 1.5t-8.5 4.5q0 3 7 12t16 18.5t17.5 18.5t11.5 12q-29 36 -43.5 70.5t-14.5 81.5zM172 135l176 194q-15 28 -38.5 44t-55.5 16q-31 0 -51 -11.5t-31.5 -30.5t-16 -44t-4.5 -51q0 -30 5 -59.5t16 -57.5zM198 81
q14 -23 38.5 -37.5t51.5 -14.5q30 0 50 10t32 27.5t17.5 41t5.5 49.5q0 29 -6.5 57.5t-14.5 56.5z" />
    <glyph glyph-name="ugrave" unicode="&#xf9;" horiz-adv-x="594" 
d="M236 -13q-52 0 -81 15.5t-43 42.5t-17 63.5t-3 78.5q0 24 0.5 48.5t0.5 48.5v36t-2 36q-2 17 -12.5 22t-23 7t-22.5 4.5t-10 14.5q0 9 12.5 13.5t28.5 6t30.5 1.5h19.5q21 1 41.5 6t41.5 5q15 0 15 -15q0 -21 -3 -42t-3 -42v-161q0 -23 2.5 -44.5t11 -38t25 -26
t45.5 -9.5q14 0 31.5 4t33 12t26 20.5t10.5 29.5v219q0 25 -11 32.5t-23.5 9t-23.5 3t-11 13.5q0 16 12.5 18.5t24.5 2.5q32 0 63 4.5t63 8.5q2 0 5.5 0.5t5.5 0.5q16 0 16 -14q0 -22 -3.5 -43.5t-3.5 -43.5q0 -65 0.5 -129t0.5 -129q0 -24 10.5 -30.5t23 -7.5t23 -2
t10.5 -15q0 -10 -9 -14.5t-20.5 -5.5t-23.5 0t-18 1q-11 0 -25.5 -2.5t-28 -5.5t-24.5 -5.5t-16 -2.5q-9 0 -13 8.5t-5 20t0 23t1 17.5q-35 -34 -70 -51.5t-85 -17.5zM192 595q0 18 13.5 34t32.5 16q13 0 21 -5t17 -13q7 -6 28.5 -25t44 -40t40.5 -40t18 -25q0 -8 -5 -11.5
t-12 -3.5q-8 0 -31 9.5t-49.5 22.5t-51 25t-35.5 17q-13 6 -22 15t-9 24z" />
    <glyph glyph-name="uacute" unicode="&#xfa;" horiz-adv-x="593" 
d="M232 -13q-52 0 -81 15.5t-43.5 42.5t-17.5 63.5t-3 78.5q0 26 0.5 51t0.5 51v33.5t-2 33.5t-12.5 22t-22.5 7t-22 4.5t-10 14.5q0 6 3 9q5 5 19.5 7.5t21.5 2.5l46 2q21 1 41.5 6t41.5 5q16 0 16 -15q0 -21 -3 -42t-3 -42v-161q0 -23 2.5 -44.5t11 -38t25 -26t45.5 -9.5
q14 0 31.5 4t32.5 12t25.5 20.5t10.5 29.5v222q0 22 -10.5 29.5t-23.5 9.5t-23.5 3.5t-10.5 12.5q0 16 12 18.5t24 2.5q32 0 63.5 4t63.5 9q2 0 5 0.5t5 0.5q16 0 16 -14q0 -22 -3.5 -43.5t-3.5 -43.5l1 -258q0 -24 10.5 -30.5t23 -7t23 -2t10.5 -15.5q0 -10 -8.5 -14.5
t-20.5 -5.5t-23.5 0t-17.5 1q-12 0 -26 -2.5t-27.5 -5.5t-24.5 -5.5t-17 -2.5q-9 0 -13 8.5t-5 20t0 23t1 17.5q-35 -34 -69.5 -51.5t-84.5 -17.5zM355 645q20 0 34 -16t14 -35q0 -14 -10 -23.5t-21 -14.5t-36 -17.5t-52 -25t-50 -22t-32 -9.5q-8 0 -11.5 5t-3.5 12
q0 6 18 24.5t41 39.5t44.5 39.5t27.5 24.5q8 8 17 13t20 5z" />
    <glyph glyph-name="ucircumflex" unicode="&#xfb;" horiz-adv-x="595" 
d="M234 -13q-52 0 -81 15.5t-43 42.5t-17 63.5t-3 78.5q0 24 0.5 48.5t0.5 48.5v36t-2 36q-2 17 -12.5 22t-23 7t-22.5 4.5t-10 14.5q0 9 12.5 13.5t28.5 6t30.5 1.5h19.5q21 1 41.5 6t41.5 5q15 0 15 -15q0 -21 -3 -42t-3 -42v-161q0 -23 2.5 -44.5t11 -38t25 -26
t45.5 -9.5q14 0 31.5 4t33 12t26 20.5t10.5 29.5v219q0 25 -11 32.5t-23.5 9t-23.5 3t-11 13.5q0 16 12.5 18.5t24.5 2.5q32 0 63 4.5t63 8.5q2 0 5.5 0.5t5.5 0.5q16 0 16 -14q0 -22 -3.5 -43.5t-3.5 -43.5q0 -65 0.5 -129t0.5 -129q0 -24 10.5 -30.5t23 -7.5t23 -2
t10.5 -15q0 -10 -9 -14.5t-20.5 -5.5t-23.5 0t-18 1q-12 0 -26 -2.5t-27.5 -5.5t-24.5 -5.5t-17 -2.5q-9 0 -12.5 9t-4 20.5t0 23t0.5 16.5q-35 -34 -70 -51.5t-85 -17.5zM192 480q-16 0 -16 17q0 5 9.5 22t22.5 36t24.5 36t16.5 23q9 11 20 20t27 9q11 0 21 -3t18 -11
q6 -6 20 -25t28.5 -40.5t25.5 -41t11 -25.5q0 -17 -16 -17q-5 0 -20 10t-32.5 23t-33 25t-20.5 17l-21 -17.5t-32 -25.5t-32 -22.5t-21 -9.5z" />
    <glyph glyph-name="udieresis" unicode="&#xfc;" horiz-adv-x="604" 
d="M239 -13q-52 0 -81 15.5t-43 42.5t-17 63.5t-3 78.5q0 24 0.5 48.5t0.5 48.5v36t-2 36q-2 17 -12.5 22t-23 7t-22.5 4.5t-10 14.5q0 9 12.5 13t28.5 5.5t30.5 2t19.5 0.5q21 1 41.5 6t41.5 5q15 0 15 -15q0 -21 -3 -42t-3 -42v-161q0 -23 2.5 -44.5t11 -38t25 -26
t45.5 -9.5q14 0 31.5 4t33 12t26 20.5t10.5 29.5v222q0 22 -10.5 29.5t-23.5 9t-23.5 3t-10.5 13.5q0 16 12 18.5t24 2.5q32 0 63.5 4t63.5 9q2 0 5 0.5t5 0.5q16 0 16 -14q0 -22 -3.5 -43.5t-3.5 -43.5l1 -258q0 -24 10.5 -30.5t23 -7t23 -2t10.5 -15.5q0 -10 -9 -14.5
t-20.5 -5.5t-23.5 0t-18 1q-11 0 -25.5 -2.5t-28 -5.5t-24.5 -5.5t-16 -2.5q-9 0 -13 8.5t-5 20t0 23t1 17.5q-35 -34 -70 -51.5t-85 -17.5zM206 618q4 0 14.5 -8t22 -18.5t21 -20.5t10.5 -14q-1 -6 -9.5 -16.5t-19 -21t-20.5 -18.5t-16 -8q-4 0 -15 8t-22 18.5t-20 20
t-9 13.5q0 2 0.5 2.5t0.5 2.5q3 4 11.5 14t18 20t19 18t13.5 8zM394 618q5 -1 16 -9t22 -17.5t20 -19.5t11 -15q-1 -5 -9.5 -15.5t-19 -21.5t-20.5 -19t-15 -8t-16 7.5t-22.5 18t-20 20t-8.5 14.5q0 4 8.5 14t19 21t20.5 19.5t14 10.5z" />
    <glyph glyph-name="yacute" unicode="&#xfd;" horiz-adv-x="514" 
d="M9 408q0 9 7.5 12.5t15.5 3.5q23 0 45 -3t45 -3q26 0 51.5 3t51.5 3q8 0 15 -2.5t7 -11.5q0 -10 -9 -14.5t-20 -8.5t-20 -9.5t-9 -18.5q0 -6 7 -23t18 -39t24 -47.5t25.5 -48.5t22.5 -41.5t15 -26.5l7 -6q7 7 21 35.5t27 62.5t23 64.5t10 40.5q0 22 -9.5 32t-21.5 15.5
t-21.5 10t-9.5 16.5q0 13 7 16.5t18 3.5q18 0 35.5 -3t35.5 -3q16 0 31.5 3t31.5 3q17 0 17 -17q0 -13 -6 -17.5t-15 -9.5q-11 -7 -20 -19t-16.5 -26t-13.5 -28.5t-11 -26.5l-187 -442q-6 -14 -10.5 -21.5t-11 -11t-15.5 -4t-24 -0.5h-9.5t-11 1.5t-9 4.5t-3.5 8t7.5 17
t19.5 27.5t25 33.5t25 35t19.5 32.5t7.5 25.5q0 16 -9.5 31t-16.5 29l-149 291q-7 13 -17 23t-19.5 18.5t-16.5 15t-7 14.5zM355 645q20 0 33.5 -16t13.5 -35q0 -14 -10 -23.5t-21 -14.5t-35.5 -17.5t-51.5 -25t-50 -22t-32 -9.5q-8 0 -11.5 5t-3.5 12q0 6 18 24.5t41 39.5
t44 39.5t27 24.5q8 8 17.5 13t20.5 5z" />
    <glyph glyph-name="thorn" unicode="&#xfe;" horiz-adv-x="529" 
d="M355 430q42 0 73 -16.5t52 -44t31.5 -63t10.5 -73.5q0 -48 -15.5 -92.5t-44 -78.5t-69.5 -54.5t-92 -20.5q-22 0 -43 4.5t-42 9.5v-61v-24.5t1 -24.5q1 -23 12.5 -34t25 -17t24 -10.5t10.5 -13.5q0 -20 -22 -20q-25 0 -49.5 3t-49.5 3q-27 0 -54.5 -3t-54.5 -3
q-8 0 -16.5 3t-8.5 13q0 8 7 12.5t16.5 8t19 8.5t15.5 13q4 6 6 17.5t3 24t1.5 25t0.5 19.5l-1 668q0 20 -10.5 26.5t-23.5 9.5t-23.5 6.5t-10.5 17.5q0 9 6 13t14 6q35 10 66.5 18.5t64.5 23.5q2 2 8 4t8 2q5 0 8 -4t4.5 -9t2 -10.5t0.5 -9.5v-336q32 29 63 46.5t76 17.5z
M216 118q0 -10 0.5 -19.5t5.5 -18.5q6 -12 18.5 -21t27 -16t30 -10.5t28.5 -3.5q28 0 48 13.5t32 34.5t17.5 46.5t5.5 49.5q0 28 -8.5 61t-25.5 60.5t-42.5 46t-58.5 18.5q-13 0 -27 -4t-25 -12t-18.5 -19.5t-7.5 -26.5v-179z" />
    <glyph glyph-name="ydieresis" unicode="&#xff;" horiz-adv-x="521" 
d="M14 408q0 10 8 13t16 3q23 0 44.5 -3t44.5 -3q26 0 51.5 3t51.5 3q8 0 15 -2t7 -12t-9 -14.5t-19.5 -8.5t-19.5 -9.5t-9 -18.5q0 -5 7.5 -23t19.5 -42l26 -52t27 -52t23.5 -41.5t14.5 -21.5l7 6q7 13 19.5 41t24.5 58t21 57.5t9 40.5q0 22 -9.5 32t-21.5 15.5t-21.5 10
t-9.5 16.5t7 16t18 4q18 0 36 -3t36 -3q16 0 31.5 3t31.5 3q17 0 17 -17q0 -13 -6 -17.5t-15 -9.5q-11 -7 -20 -19t-16.5 -26t-13.5 -28.5t-11 -26.5l-187 -442q-6 -14 -11 -21.5t-11 -11t-15.5 -4t-24.5 -0.5h-9.5t-10.5 1.5t-8.5 4.5t-3.5 8t7.5 17t19.5 27.5t25 33.5
t25 35t19.5 32.5t7.5 25.5q0 14 -9.5 30.5t-16.5 29.5l-150 291q-8 14 -18 24t-19.5 18t-16 14.5t-6.5 14.5zM183 618q4 0 14.5 -8t22 -18.5t21 -20.5t10.5 -14q-1 -5 -9 -16t-18.5 -21.5t-21 -18.5t-15.5 -8t-16 8t-22 18t-20 20t-9 14q0 2 0.5 2.5t0.5 2.5q3 4 11.5 14
t18 20t19 18t13.5 8zM371 618q4 0 15 -8t22.5 -18t21 -20.5t10.5 -14.5q-1 -5 -9.5 -15.5t-19 -21.5t-20.5 -19t-15 -8t-16 7.5t-22.5 18t-20 20t-8.5 14.5q0 4 8.5 14.5t19.5 21.5t21 20t13 9z" />
    <glyph glyph-name="Amacron" unicode="&#x100;" horiz-adv-x="806" 
d="M398 709q6 0 11 -4.5t9.5 -11.5t8 -14l5.5 -11l267 -574q8 -18 23.5 -38t35.5 -26q9 -2 23.5 -5.5t14.5 -16.5q0 -9 -7 -11.5t-14 -2.5q-35 0 -71 3t-72 3q-34 0 -67 -3t-67 -3q-8 0 -14.5 3t-6.5 12q0 12 11.5 16t25 9.5t25 16.5t11.5 37q0 11 -3 23t-8 22l-38 79
q-11 23 -27.5 27t-39.5 4h-139q-31 0 -48.5 -7t-28.5 -20.5t-18.5 -32.5t-17.5 -44q-4 -9 -7 -18.5t-3 -20.5q0 -27 17.5 -39.5t39 -18.5t39 -11.5t17.5 -19.5q0 -10 -7 -13.5t-15 -3.5q-28 0 -56 3t-56 3q-29 0 -58 -3t-58 -3q-8 0 -16 3.5t-8 12.5q0 4 9 11.5t21 15.5
t23 16t15 13q14 16 23 35.5t18 38.5l251 538q3 7 10.5 19t16.5 12zM259 306q0 -10 11 -11.5t18 -1.5h161q6 0 10.5 3t4.5 10q0 3 -6.5 18.5t-16 37t-21.5 46t-22.5 46.5t-18.5 38t-11 20q-4 5 -10 7q-3 -2 -11.5 -17.5t-19.5 -38t-23 -48.5t-22 -49t-16.5 -39.5t-6.5 -20.5z
M214 869h332v-73h-332v73z" />
    <glyph glyph-name="amacron" unicode="&#x101;" horiz-adv-x="488" 
d="M193 390q-25 0 -34.5 -7t-12 -18t-2 -23t-4.5 -23t-19.5 -18t-47.5 -7q-13 0 -22.5 4.5t-9.5 19.5q0 30 20.5 52t49.5 35.5t61.5 20t56.5 6.5q71 0 105.5 -24.5t47 -64t11.5 -90.5t-1 -104q0 -13 -1 -30t1.5 -32.5t10.5 -26.5t26 -11q5 0 9.5 0.5t9.5 0.5q7 0 12 -2
t5 -10q0 -9 -11 -18t-26 -16.5t-30 -12t-23 -4.5q-29 0 -47.5 18t-33.5 40q-39 -23 -79 -40.5t-87 -17.5q-94 0 -94 97q0 46 25.5 74.5t63 45.5t80 26.5t76.5 17.5q-1 23 -3 48t-10 46t-25 34.5t-48 13.5zM64 591h332v-73h-332v73zM279 176q0 6 -2 18t-11 12
q-17 0 -37.5 -7.5t-38.5 -20t-30 -29.5t-12 -36q0 -26 14.5 -44.5t42.5 -18.5q11 0 24 3.5t24 10t18.5 16.5t7.5 23v73z" />
    <glyph glyph-name="Abreve" unicode="&#x102;" horiz-adv-x="822" 
d="M407 709q6 0 11 -4.5t9.5 -11.5t8 -14l5.5 -11l267 -574q8 -18 24 -38t36 -26q9 -2 23 -5.5t14 -16.5q0 -8 -7 -11t-14 -3q-35 0 -71 3t-72 3q-34 0 -67 -3t-67 -3q-8 0 -14.5 3t-6.5 12q0 12 11.5 16t25.5 9.5t25.5 16.5t11.5 37q0 12 -3.5 23t-8.5 22l-38 79
q-11 23 -27.5 27t-39.5 4h-139q-30 0 -48 -7t-29 -20.5t-18.5 -33t-17.5 -43.5q-4 -9 -7 -18.5t-3 -20.5q0 -27 17.5 -39.5t39 -18.5t39 -11.5t17.5 -19.5q0 -10 -7 -13.5t-15 -3.5q-28 0 -56 3t-56 3q-29 0 -58 -3t-58 -3q-8 0 -15.5 3.5t-7.5 12.5q0 4 9 11.5t20.5 15.5
t22.5 16t15 13q14 16 23 35.5t18 38.5l251 538q3 7 10.5 19t16.5 12zM268 306q0 -10 11.5 -11.5t17.5 -1.5h161q6 0 10.5 3t4.5 10q0 3 -6.5 18.5t-16 37t-21 46t-22 46.5t-19 38t-11.5 20q-4 5 -10 7q-3 -2 -11.5 -17.5t-19.5 -38t-23 -48.5t-22 -49t-16.5 -39.5
t-6.5 -20.5zM281 919q10 0 17 -13.5t17 -30t27 -30t48 -13.5q33 0 50.5 13.5t27 30t16 30t18.5 13.5q5 0 8.5 -4.5t5.5 -10.5t3 -12t1 -9q0 -58 -36.5 -91.5t-93.5 -33.5q-26 0 -49.5 8.5t-41 24t-28 37.5t-10.5 49q0 5 0.5 12.5t2 14t5.5 11t12 4.5z" />
    <glyph glyph-name="abreve" unicode="&#x103;" horiz-adv-x="493" 
d="M196 390q-25 0 -34.5 -7t-12 -18t-2 -23t-4.5 -23t-19.5 -18t-47.5 -7q-12 0 -22.5 5t-10.5 19q0 31 20.5 52.5t50.5 35t62.5 20t56.5 6.5q71 0 105 -24.5t47 -64.5t11.5 -91t-1.5 -103q0 -13 -1 -30t1.5 -32.5t10.5 -26.5t26 -11q5 0 9.5 0.5t9.5 0.5q7 0 12 -2t5 -10
q0 -9 -11 -18t-26 -16.5t-30 -12t-23 -4.5q-29 0 -47.5 18t-33.5 40q-39 -23 -79 -40.5t-87 -17.5q-49 0 -71.5 24.5t-22.5 72.5q0 46 25.5 74.5t63 45.5t80 26.5t76.5 17.5q-1 23 -3 48t-10 46t-25 34.5t-48 13.5zM125 642q10 0 17 -14t17 -30.5t27 -30t48 -13.5
q34 0 51 13.5t26.5 30t16 30.5t18.5 14q11 -5 14.5 -15.5t3.5 -21.5q0 -58 -36.5 -91.5t-93.5 -33.5q-26 0 -49.5 8.5t-41 24t-28 37.5t-10.5 49q0 5 0.5 12.5t2 14t5.5 11.5t12 5zM282 176q0 6 -2 18t-11 12q-17 0 -37.5 -7.5t-38.5 -20t-30 -29.5t-12 -36
q0 -26 14.5 -44.5t42.5 -18.5q11 0 24 3.5t24 10t18.5 16.5t7.5 23v73z" />
    <glyph glyph-name="Aogonek" unicode="&#x104;" horiz-adv-x="808" 
d="M394 709q6 0 11 -4.5t9.5 -11.5t8 -14l5.5 -11l267 -574q8 -18 24 -38t36 -26q9 -2 23 -5.5t14 -16.5q0 -9 -7 -11.5t-14 -2.5q-18 0 -40 3t-40.5 1t-31 -13.5t-12.5 -40.5q0 -21 13.5 -31t33.5 -10q22 0 42 7.5t41 7.5q6 0 10.5 -3t4.5 -10q0 -5 -5.5 -10.5t-12.5 -10.5
t-14.5 -9.5t-11.5 -6.5q-50 -27 -104 -27q-15 0 -30 4t-28 12t-21 20.5t-8 29.5q0 29 16 52.5t38 40.5q-29 -1 -58.5 -3.5t-58.5 -2.5q-8 0 -14.5 3t-6.5 12q0 12 11.5 16t25 9.5t25 16.5t11.5 37q0 23 -11 45l-38 79q-11 23 -27 27t-39 4h-140q-31 0 -48.5 -7t-28.5 -20.5
t-18.5 -32.5t-17.5 -44q-4 -9 -7 -18.5t-3 -20.5q0 -27 17.5 -39.5t39 -18.5t39 -11.5t17.5 -19.5q0 -10 -7 -13.5t-15 -3.5q-28 0 -56 3t-56 3q-29 0 -57.5 -3t-57.5 -3q-8 0 -16 3.5t-8 12.5q0 4 9 11.5t20.5 15.5t22.5 16t15 13q14 16 23 35.5t18 38.5l252 538q3 7 10 19
t16 12zM255 306q0 -10 11.5 -11.5t17.5 -1.5h161q6 0 10.5 3t4.5 10q0 3 -6.5 18.5t-16 37t-21 46t-22 46.5t-19 38t-11.5 20q-4 5 -10 7q-3 -2 -11.5 -17.5t-19.5 -38t-23 -48.5t-22 -49t-16.5 -39.5t-6.5 -20.5z" />
    <glyph glyph-name="aogonek" unicode="&#x105;" horiz-adv-x="505" 
d="M181 390q-25 0 -34.5 -7t-12 -18t-1.5 -23t-4 -23t-20 -18t-48 -7q-13 0 -22.5 4.5t-9.5 19.5q0 31 20.5 52.5t49.5 35t62 20t57 6.5q71 0 105.5 -24.5t47 -64.5t11 -91t-1.5 -103q0 -13 -1 -30t1.5 -32.5t10.5 -26.5t26 -11q5 0 9.5 0.5t9.5 0.5q7 0 12 -2t5 -10
q0 -9 -9.5 -17t-22.5 -14.5t-25.5 -11.5t-19.5 -6q-14 -12 -25.5 -27.5t-11.5 -35.5q0 -21 13 -31t33 -10q22 0 42 7.5t41 7.5q6 0 10.5 -3t4.5 -10q0 -5 -5.5 -10.5t-12.5 -10.5t-14.5 -9.5t-11.5 -6.5q-50 -27 -104 -27q-15 0 -30 4t-28 12t-21 20.5t-8 29.5q0 36 24 63.5
t53 45.5q-14 8 -24 20.5t-19 26.5q-40 -23 -79 -40.5t-87 -17.5q-94 0 -94 97q0 46 25.5 74.5t63 45.5t80 26.5t76.5 17.5q-1 23 -2.5 48t-10 46t-25.5 34.5t-48 13.5zM267 176q0 6 -2 18t-11 12q-17 0 -37.5 -7.5t-38.5 -20t-30 -29.5t-12 -36q0 -26 14.5 -44.5t42.5 -18.5
q11 0 24 3.5t24 10t18.5 16.5t7.5 23v73z" />
    <glyph glyph-name="Cacute" unicode="&#x106;" horiz-adv-x="735" 
d="M22 330q0 80 29 149t79.5 120t119.5 80.5t149 29.5q48 0 94 -10.5t89 -29.5l24 -12t25 -7q7 0 11 4.5t7 10t7 10t11 4.5q12 0 15.5 -10t4.5 -19l5 -63q2 -29 6.5 -58.5t4.5 -58.5q0 -8 -4 -14.5t-13 -6.5q-8 0 -18.5 15.5t-26 39t-37 50.5t-51.5 50.5t-69 39t-89 15.5
q-59 0 -104 -21t-75.5 -57t-46 -84.5t-15.5 -103.5q0 -58 18.5 -116.5t53.5 -105t85.5 -76t114.5 -29.5q61 0 108 20.5t80 44.5t52.5 44.5t26.5 20.5q8 0 12.5 -5.5t4.5 -12.5t-5 -16t-11.5 -18t-14 -17t-12.5 -13q-59 -61 -131 -94t-158 -33q-78 0 -143.5 23.5t-113 68
t-73.5 108t-26 143.5zM484 923q20 0 34 -15.5t14 -35.5q0 -14 -10 -24t-21 -15t-35.5 -17t-52 -24.5t-51 -22t-31.5 -9.5q-7 0 -10.5 5t-3.5 11t18 24.5t40.5 39.5t44 40t27.5 25q8 8 17 13t20 5z" />
    <glyph glyph-name="cacute" unicode="&#x107;" horiz-adv-x="457" 
d="M23 188q0 55 21.5 100t57.5 77t84 49.5t101 17.5q16 0 37.5 -4.5t40.5 -14t32 -24.5t13 -35q0 -6 -9.5 -16.5t-22.5 -20t-25.5 -16.5t-18.5 -7q-9 0 -14.5 15t-15 33t-25 33t-43.5 15q-26 0 -44.5 -12t-30.5 -30.5t-17.5 -41.5t-5.5 -45q0 -35 7.5 -72t25 -68t46 -51
t69.5 -20q23 0 45 8.5t40.5 19t31.5 19.5t18 9q12 0 12 -13q0 -6 -4.5 -12.5t-10.5 -13t-12.5 -12t-10.5 -8.5q-36 -29 -80 -44.5t-90 -15.5q-44 0 -81 15t-64 41.5t-42 63.5t-15 81zM285 645q20 0 33.5 -16t13.5 -35q0 -14 -10 -23.5t-21 -14.5t-36 -17.5t-52 -25t-50 -22
t-32 -9.5q-7 0 -10.5 5.5t-3.5 11.5t18 24.5t40.5 39.5t44 39.5t27.5 24.5q8 8 17.5 13t20.5 5z" />
    <glyph glyph-name="Ccircumflex" unicode="&#x108;" horiz-adv-x="737" 
d="M25 330q0 80 29 149t79.5 120t119.5 80.5t149 29.5q48 0 93.5 -10.5t88.5 -29.5q9 -4 24.5 -11.5t25.5 -7.5q7 0 10.5 4.5t7 10t7.5 10t11 4.5q11 0 15 -10.5t5 -18.5q2 -16 2.5 -31.5t1.5 -31.5q2 -29 7 -58.5t5 -58.5q0 -8 -4 -14.5t-13 -6.5q-11 0 -16.5 9t-10.5 17
q-21 38 -48 71.5t-59.5 58.5t-72 39.5t-85.5 14.5q-59 0 -104 -21t-75 -57t-45.5 -84.5t-15.5 -103.5q0 -59 18.5 -117t53 -105t85 -76t115.5 -29q61 0 108 20.5t80 44.5t52.5 44.5t26.5 20.5t12 -5.5t5 -12.5t-5 -16t-12 -18t-14.5 -17t-12.5 -13q-60 -61 -130.5 -94
t-158.5 -33q-78 0 -143 24t-112.5 68t-73.5 107.5t-26 143.5zM289 756q-16 0 -16 17q0 5 9.5 21.5t22.5 36t24.5 36.5t16.5 23q9 11 20 19.5t27 8.5q11 0 21 -2.5t18 -10.5q6 -6 20 -25t28.5 -40.5t26 -41t11.5 -25.5q0 -17 -16 -17q-5 0 -20.5 10t-32.5 22.5t-32.5 25
t-21.5 17.5l-21 -17.5t-32 -25.5t-32 -22.5t-21 -9.5z" />
    <glyph glyph-name="ccircumflex" unicode="&#x109;" horiz-adv-x="459" 
d="M27 188q0 55 21.5 100t57.5 77t83.5 49.5t100.5 17.5q16 0 37.5 -4.5t40.5 -14t32.5 -24.5t13.5 -35q0 -6 -10 -16.5t-22.5 -20t-25.5 -16.5t-19 -7q-8 0 -14 15t-15 33t-25 33t-44 15q-26 0 -44 -12t-30 -30.5t-17.5 -41.5t-5.5 -45q0 -34 7.5 -71.5t24.5 -68.5
t45.5 -51t69.5 -20q23 0 45.5 8.5t41 19t31 19.5t17.5 9q13 0 13 -13q0 -6 -4.5 -12.5t-10.5 -13t-12.5 -12t-10.5 -8.5q-36 -29 -80 -44.5t-90 -15.5q-45 0 -82 14.5t-63.5 41t-41.5 63.5t-15 82zM123 480q-17 0 -17 17q0 5 9.5 22t22.5 36t24.5 36t16.5 23q9 11 20 20
t27 9q11 0 21 -3t18 -11q6 -6 20 -25t29 -40.5t26 -41t11 -25.5q0 -17 -16 -17q-5 0 -20.5 10t-32.5 22.5t-32.5 25t-21.5 17.5l-21 -17.5t-31.5 -25.5t-31.5 -22.5t-21 -9.5z" />
    <glyph glyph-name="Cdotaccent" unicode="&#x10a;" horiz-adv-x="732" 
d="M24 330q0 80 29 149t79.5 120t119.5 80.5t149 29.5q48 0 93.5 -10.5t88.5 -29.5q10 -5 24.5 -12t25.5 -7q7 0 10.5 4.5t7 10t7.5 10t11 4.5q11 0 15 -10.5t5 -18.5q2 -16 2 -31.5t2 -31.5q2 -29 7 -58.5t5 -58.5q0 -8 -4 -14.5t-13 -6.5q-8 0 -18.5 15.5t-26 39t-37 50.5
t-51.5 50.5t-69 39t-90 15.5q-59 0 -104 -21t-75 -57t-45.5 -84.5t-15.5 -103.5q0 -59 18.5 -117t53 -105t85 -76t115.5 -29q62 0 108.5 20.5t79 44.5t52 44.5t27.5 20.5q7 0 12 -5.5t5 -12.5t-5 -16t-12 -18t-14.5 -17t-12.5 -13q-60 -61 -130.5 -94t-158.5 -33
q-78 0 -143 24t-112.5 68t-73.5 107.5t-26 143.5zM364 911q5 0 17.5 -9t25.5 -21t23 -24t10 -17t-9.5 -17t-22.5 -24t-25 -21t-18 -9q-5 0 -17.5 9t-25.5 21t-22.5 23.5t-9.5 16.5q0 4 10 16t23 24.5t25 22t16 9.5z" />
    <glyph glyph-name="cdotaccent" unicode="&#x10b;" horiz-adv-x="454" 
d="M24 188q0 55 21.5 100t57.5 77t83.5 49.5t100.5 17.5q16 0 37.5 -4.5t40.5 -14t32.5 -24.5t13.5 -35q0 -6 -10 -16.5t-22.5 -20t-25.5 -16.5t-19 -7q-8 0 -14 15t-15 33t-25 33t-44 15q-25 0 -43.5 -12t-30.5 -31t-18 -41.5t-6 -44.5q0 -34 7.5 -71.5t25 -68.5t46 -51
t69.5 -20q23 0 45.5 8.5t41 19t31 19.5t17.5 9q13 0 13 -13q0 -6 -4.5 -12.5t-10.5 -13t-12.5 -12t-10.5 -8.5q-36 -29 -80 -44.5t-90 -15.5q-45 0 -82 14.5t-63.5 41t-41.5 63.5t-15 82zM224 633q5 0 17.5 -9t25.5 -21t23 -24t10 -17t-9.5 -17t-22.5 -24t-25 -21t-18 -9
q-5 0 -17.5 9t-25.5 21t-22.5 23.5t-9.5 16.5q0 4 10 16t23 24.5t25 22t16 9.5z" />
    <glyph glyph-name="Ccaron" unicode="&#x10c;" horiz-adv-x="737" 
d="M25 330q0 80 29 149t79.5 120t119.5 80.5t149 29.5q48 0 93.5 -10.5t88.5 -29.5q9 -4 24.5 -11.5t25.5 -7.5q7 0 10.5 4.5t7 10t7.5 10t11 4.5q11 0 15 -10.5t5 -18.5q2 -16 2.5 -31.5t1.5 -31.5q2 -29 7 -58.5t5 -58.5q0 -8 -4 -14.5t-13 -6.5q-11 0 -16.5 9t-10.5 17
q-21 38 -48 71.5t-59.5 58.5t-72 39.5t-85.5 14.5q-59 0 -104 -21t-75 -57t-45.5 -84.5t-15.5 -103.5q0 -59 18.5 -117t53 -105t85 -76t115.5 -29q61 0 108 20.5t80 44.5t52.5 44.5t26.5 20.5t12 -5.5t5 -12.5t-5 -16t-12 -18t-14.5 -17t-12.5 -13q-60 -61 -130.5 -94
t-158.5 -33q-78 0 -143 24t-112.5 68t-73.5 107.5t-26 143.5zM505 922q16 0 16 -16q0 -7 -9.5 -23.5t-22 -34.5t-24.5 -35t-17 -24q-8 -12 -19 -20.5t-27 -8.5q-12 0 -22 3t-18 11q-5 5 -19 24.5t-29 41t-26.5 41t-11.5 24.5q0 17 16 17q6 0 21 -9.5t31.5 -22t31.5 -25
t22 -17.5q7 5 22 17t32 25t32 22.5t21 9.5z" />
    <glyph glyph-name="ccaron" unicode="&#x10d;" horiz-adv-x="464" 
d="M29 188q0 55 21.5 100t57.5 77t83.5 49.5t100.5 17.5q16 0 37.5 -4.5t40.5 -14t32.5 -24.5t13.5 -35q0 -6 -10 -16.5t-22.5 -20t-25.5 -16.5t-19 -7q-8 0 -14 15t-15 33t-24.5 33t-43.5 15q-26 0 -44.5 -12t-30.5 -30.5t-17.5 -41.5t-5.5 -45q0 -34 7.5 -71.5t24.5 -68.5
t45.5 -51t69.5 -20q23 0 45.5 8.5t41 19t31.5 19.5t18 9q12 0 12 -13q0 -6 -4.5 -12.5t-10.5 -13t-12.5 -12t-10.5 -8.5q-36 -29 -80 -44.5t-91 -15.5q-44 0 -81 15t-63.5 41.5t-41.5 63.5t-15 81zM337 643q16 0 16 -17q0 -7 -9.5 -23.5t-22 -35t-24.5 -35t-17 -23.5
q-8 -11 -19.5 -20t-26.5 -9q-12 0 -21.5 3t-18.5 11q-5 5 -19 24t-29 41.5t-26.5 41.5t-11.5 24q0 8 4.5 13t12.5 5q6 0 21 -10t31.5 -22.5t31.5 -25l21 -17.5q7 5 22 17.5t32 25t32 22.5t21 10z" />
    <glyph glyph-name="Dcaron" unicode="&#x10e;" horiz-adv-x="818" 
d="M23 683q0 12 7.5 15.5t17.5 3.5q29 0 59 -3t59 -3q63 0 125 3.5t125 3.5q73 0 141 -20t120 -60.5t83.5 -100.5t31.5 -140q0 -84 -36 -159q-55 -115 -142 -172t-216 -57q-45 0 -89 3t-89 3q-34 0 -67 -3t-67 -3q-9 0 -18.5 2.5t-9.5 14.5q0 10 8 14.5t19.5 9.5t22.5 12.5
t17 22.5q4 11 5 32t1 34v406q0 22 -2.5 50t-18.5 45q-6 6 -20.5 11.5t-29 10.5t-26 10.5t-11.5 13.5zM263 172q0 -34 5 -58.5t18.5 -40t37 -22.5t60.5 -7q69 0 120.5 20.5t86 59t52 92.5t17.5 120q0 59 -18.5 115t-53.5 99.5t-85 71t-113 29.5q-12 1 -24 1h-24
q-41 0 -60 -12t-19 -57v-411zM528 920q16 0 16 -16q0 -6 -9.5 -22.5t-21.5 -35t-24 -35.5t-17 -24q-8 -12 -19.5 -20.5t-27.5 -8.5q-12 0 -21.5 3t-18.5 11q-5 5 -19 24t-29 41t-26.5 41.5t-11.5 24.5q0 17 17 17q6 0 21 -9.5t31.5 -22.5t31.5 -25t21 -17q7 5 22 17t32 25
t32 22.5t21 9.5z" />
    <glyph glyph-name="dcaron" unicode="&#x10f;" horiz-adv-x="662" 
d="M328 50q-30 -29 -65.5 -46t-78.5 -17q-41 0 -71.5 16t-51 42t-30.5 60.5t-10 72.5q0 50 14.5 96t43 81t70 56t95.5 21q23 0 43 -6t41 -14v99.5t-1 99.5q0 19 -10.5 26.5t-23.5 10.5t-23.5 5.5t-10.5 13.5q0 8 7.5 11t13.5 5q35 9 70 20.5t68 28.5q5 2 8.5 4t8.5 2
q8 0 10.5 -6.5t2.5 -13.5q0 -35 -3 -70t-3 -70l1 -482q0 -20 10.5 -28t23 -11t23 -6t10.5 -14t-10.5 -14t-18.5 -5q-13 -2 -32.5 -7.5t-40 -10.5t-38.5 -9t-28 -4q-8 0 -11 8t-3.5 19t0 21t0.5 15zM328 301q0 19 -10 35.5t-25.5 28.5t-34 18.5t-36.5 6.5q-28 0 -48 -13
t-33.5 -33t-20 -45t-6.5 -49q0 -29 7.5 -63t24 -62.5t41.5 -47.5t60 -19q32 0 56.5 16.5t24.5 51.5v175zM500 485q0 4 8.5 11.5t19 18t19.5 25.5t9 36q0 15 -8.5 26t-18 19t-18 14.5t-8.5 12.5t9 17t21 22t24 19t18 8q14 0 25 -9t19 -22t12.5 -28t4.5 -27q0 -20 -7.5 -40
t-19.5 -38t-27.5 -33t-31.5 -25q-6 -4 -18 -11t-19 -7q-13 0 -13 11z" />
    <glyph glyph-name="Dcroat" unicode="&#x110;" horiz-adv-x="841" 
d="M42 378h103v164q0 22 -2.5 50t-18.5 45q-6 6 -20 11t-29 10.5t-26 11t-11 13.5q0 12 7 15.5t17 3.5q29 0 59 -3t59 -3q63 0 125 3.5t125 3.5q73 0 141 -20t120 -60.5t83.5 -100.5t31.5 -140q0 -41 -9.5 -81.5t-26.5 -77.5q-54 -115 -142 -172t-216 -57q-45 0 -89 3t-89 3
q-34 0 -67 -3t-67 -3q-9 0 -18.5 2.5t-9.5 14.5q0 10 8 14.5t19 9.5t22 12.5t17 22.5q5 14 6 33.5t1 34.5v168h-103v72zM277 172q0 -34 5 -58.5t18.5 -40t37 -22.5t60.5 -7q69 0 120.5 20.5t86 59t52 92.5t17.5 120q0 60 -18.5 115.5t-54 99t-85.5 71t-113 29.5
q-12 1 -23.5 1h-23.5q-41 0 -60 -12t-19 -57v-205h98v-72h-98v-134z" />
    <glyph glyph-name="dcroat" unicode="&#x111;" horiz-adv-x="539" 
d="M159 578h164v33q0 19 -10.5 26t-23 10t-23 6t-10.5 14q0 8 7 11t13 5q36 10 70.5 21t67.5 28q5 2 9 4t9 2q8 0 10 -7t2 -13q0 -35 -3 -70t-3 -70h53v-73h-53l1 -409q0 -20 10.5 -28t23 -11t23 -6t10.5 -14t-10 -14t-18 -5q-13 -2 -33 -7.5t-40 -10.5t-38.5 -9t-28.5 -4
q-8 0 -11 8t-3.5 19t0 21t0.5 15q-30 -29 -65.5 -46t-77.5 -17q-41 0 -71.5 16t-51 42t-30.5 60.5t-10 72.5q0 50 14.5 96t43 81t69.5 56t95 21q23 0 43 -6t41 -14l-1 93h-164v73zM324 301q0 19 -10 35.5t-25.5 28.5t-34 18.5t-36.5 6.5q-27 0 -47.5 -13t-33.5 -33
t-19.5 -45t-6.5 -49q0 -29 7.5 -62.5t23.5 -62.5t41 -48t60 -19q32 0 56.5 16.5t24.5 51.5v175z" />
    <glyph glyph-name="Emacron" unicode="&#x112;" horiz-adv-x="660" 
d="M18 686q0 9 6 12.5t14 3.5q66 0 131 -3t131 -3q63 0 124.5 3t124.5 3q15 0 22.5 -9t9.5 -22t1.5 -26.5t-0.5 -23.5q0 -14 1 -29t1 -29q0 -22 -22 -22q-10 0 -15 10t-9.5 23.5t-9.5 27.5t-15 22q-9 7 -21 11.5t-25.5 7t-27.5 3t-25 0.5h-105q-24 0 -32 -10.5t-8 -33.5
v-182q0 -18 15 -22t29 -4q11 0 27.5 -0.5t34 0.5t33 3.5t24.5 7.5t18.5 17.5t18.5 25.5t17 23t14 10q11 0 14.5 -10.5t3.5 -18.5q0 -22 -3.5 -43.5t-3.5 -44.5q0 -25 3.5 -49.5t3.5 -49.5q0 -11 -4 -16.5t-15 -5.5q-14 0 -18.5 10t-8.5 24.5t-11 29.5t-24 24q-10 5 -24 8
t-30 4t-31 1h-26q-9 0 -19 -1t-18.5 -4.5t-14 -10.5t-5.5 -19q0 -45 -0.5 -90.5t-0.5 -90.5q0 -35 12.5 -56.5t53.5 -21.5q60 0 120.5 13.5t106.5 56.5q4 4 12.5 13.5t18 20t18 18.5t13.5 8q11 0 13.5 -8t2.5 -17q0 -15 -4 -29t-10 -28q-23 -52 -60 -78t-95 -26q-46 0 -92 3
t-92 3q-50 0 -98.5 -3t-98.5 -3q-8 0 -16.5 3t-8.5 13t9 14t20.5 9.5t23 16.5t16.5 35q4 23 4 51v413q0 17 -1.5 42t-11.5 39q-11 16 -29 23t-35 10.5t-29.5 7.5t-12.5 15zM161 869h332v-73h-332v73z" />
    <glyph glyph-name="emacron" unicode="&#x113;" horiz-adv-x="466" 
d="M146 214q0 -29 11 -58t30 -52.5t45.5 -38.5t56.5 -15q28 0 50 8.5t39 19t28 19.5t17 9q5 0 10 -4.5t5 -9.5q0 -7 -4.5 -14.5t-11 -14.5t-14 -12.5t-12.5 -9.5q-35 -26 -75 -40t-85 -14q-46 0 -83.5 15.5t-64.5 43t-42 66t-15 83.5q0 44 15 86.5t42 76t65.5 54t86.5 20.5
q33 0 68 -13t64 -35.5t47.5 -53.5t18.5 -67q0 -17 -14.5 -21t-27.5 -4h-230q-11 0 -15.5 -7t-4.5 -17zM62 591h333v-73h-333v73zM299 276q13 0 19 4t6 18q0 18 -7 35t-19.5 29.5t-29 20t-34.5 7.5q-41 0 -65 -28.5t-24 -67.5q0 -18 18 -18h136z" />
    <glyph glyph-name="Ebreve" unicode="&#x114;" horiz-adv-x="668" 
d="M20 686q0 10 6.5 13t14.5 3q66 0 130.5 -3t130.5 -3q63 0 124.5 3t124.5 3q15 0 22.5 -9t9.5 -22t1.5 -26.5t-0.5 -23.5q0 -14 1 -29t1 -29q0 -22 -22 -22q-10 0 -15 10t-9.5 23.5t-9.5 27.5t-15 22q-18 15 -47 18.5t-52 3.5h-105q-24 0 -32 -10.5t-8 -33.5v-182
q0 -18 15 -22t29 -4q11 0 27.5 -0.5t34 0.5t33 3.5t24.5 7.5t18.5 17.5t18.5 25.5t17 23t14 10q11 0 14.5 -10t3.5 -19q0 -22 -3.5 -43.5t-3.5 -44.5q0 -25 3.5 -49.5t3.5 -49.5q0 -22 -20 -22q-13 0 -18 10t-8.5 24.5t-10.5 29.5t-24 24q-10 5 -24 8t-30 4t-31 1h-26
q-9 0 -19 -1t-18.5 -4.5t-14 -10.5t-5.5 -19q0 -45 -0.5 -90.5t-0.5 -90.5q0 -35 12.5 -56.5t53.5 -21.5q60 0 120.5 13.5t106.5 56.5q4 4 12.5 13.5t18 20t18 18.5t12.5 8q12 0 15 -7.5t3 -17.5q0 -15 -4.5 -29t-10.5 -28q-23 -52 -60 -78t-95 -26q-46 0 -92 3t-92 3
q-50 0 -98.5 -3t-98.5 -3q-8 0 -16.5 3t-8.5 13t9 14t20.5 9.5t23 16.5t16.5 35q3 16 4 31.5t1 31.5v401q0 18 -2 42t-13 39q-11 16 -29 23t-35 10.5t-29 7.5t-12 15zM221 919q10 0 16.5 -13.5t17 -30t27.5 -30t48 -13.5q33 0 50.5 13.5t27 30t15.5 30t18 13.5q5 0 8.5 -4
t5.5 -10t3 -12t1 -10q0 -58 -36 -91.5t-93 -33.5q-27 0 -50.5 8t-41 23.5t-27.5 37.5t-10 50q0 5 0.5 12.5t2 14t5.5 11t12 4.5z" />
    <glyph glyph-name="ebreve" unicode="&#x115;" horiz-adv-x="469" 
d="M146 214q0 -29 11 -58t30.5 -52.5t46 -38.5t56.5 -15q27 0 49.5 8.5t39.5 19t28 19.5t17 9q5 0 10 -4.5t5 -9.5q0 -7 -5 -14.5t-11.5 -14.5t-14 -12.5t-12.5 -9.5q-36 -26 -75 -40t-84 -14q-46 0 -83.5 15.5t-64.5 43t-42 66t-15 83.5q0 44 15 86.5t42 76t65.5 54
t86.5 20.5q33 0 68 -13t64 -35.5t47.5 -53.5t18.5 -67q0 -8 -4.5 -13t-11 -7.5t-14 -3.5t-13.5 -1h-230q-11 0 -15.5 -7t-4.5 -17zM122 642q10 0 16.5 -14t16.5 -30.5t27 -30t48 -13.5q33 0 50.5 13.5t27 30t16 30.5t18.5 14q11 -5 14.5 -15.5t3.5 -21.5q0 -58 -36.5 -91.5
t-93.5 -33.5q-26 0 -49.5 8.5t-41 24t-27.5 37.5t-10 49v12.5t2 14t6 11.5t12 5zM299 276q13 0 19.5 4t6.5 18q0 18 -7 35t-19.5 29.5t-29 20t-35.5 7.5q-41 0 -65 -28.5t-24 -67.5q0 -11 4.5 -14.5t14.5 -3.5h135z" />
    <glyph glyph-name="Edotaccent" unicode="&#x116;" horiz-adv-x="660" 
d="M18 686q0 9 6 12.5t14 3.5q66 0 131 -3t131 -3q63 0 124.5 3t124.5 3q12 0 19 -6t10.5 -15t4 -19.5t0.5 -19.5q0 -20 0.5 -39.5t0.5 -39.5q0 -22 -22 -22q-10 0 -15 10t-9.5 23.5t-9.5 27.5t-15 22q-9 7 -21 11.5t-25.5 7t-27.5 3t-25 0.5h-105q-24 0 -32 -10.5t-8 -33.5
v-182q0 -18 15 -22t29 -4q11 0 27.5 -0.5t34 0.5t33 3.5t24.5 7.5t18.5 17.5t18.5 25.5t17 23t14 10q11 0 14.5 -10.5t3.5 -18.5q0 -22 -3.5 -43.5t-3.5 -44.5q0 -25 3.5 -49.5t3.5 -49.5q0 -11 -4 -16.5t-15 -5.5q-14 0 -18.5 10t-8.5 24.5t-11 29.5t-24 24q-10 5 -24 8
t-29.5 4t-30.5 1h-27q-9 0 -19 -1t-18.5 -4.5t-14 -10.5t-5.5 -19q0 -45 -0.5 -90.5t-0.5 -90.5q0 -35 12.5 -56.5t53.5 -21.5q60 0 120.5 13.5t106.5 56.5q4 4 12.5 13.5t18 20t18 18.5t13.5 8q11 0 13.5 -8t2.5 -17q0 -15 -4 -29t-10 -28q-23 -52 -60 -78t-95 -26
q-46 0 -92 3t-92 3q-50 0 -98.5 -3t-98.5 -3q-8 0 -16.5 3t-8.5 13t9 14t20.5 9.5t23 16.5t16.5 35q3 15 3.5 30t0.5 30v404q0 17 -1.5 42t-11.5 39q-11 16 -29 23t-35 10.5t-29.5 7.5t-12.5 15zM326 911q5 0 17.5 -9.5t25.5 -21.5t23 -23.5t10 -16.5t-9.5 -17t-22.5 -24
t-25 -21t-18 -9q-5 0 -17.5 9t-25.5 21t-23 23.5t-10 16.5q0 4 10 16t23 24.5t25 22t17 9.5z" />
    <glyph glyph-name="edotaccent" unicode="&#x117;" horiz-adv-x="454" 
d="M140 214q0 -29 11 -58t30 -52.5t45 -38.5t57 -15q27 0 49.5 8.5t39.5 19t28 19.5t17 9q5 0 10 -4.5t5 -9.5q0 -7 -5 -14.5t-11.5 -14.5t-14 -12.5t-12.5 -9.5q-36 -26 -75 -40t-84 -14q-46 0 -83.5 15.5t-64.5 43t-42 66t-15 83.5q0 44 15 86.5t42 76t65.5 54t86.5 20.5
q33 0 68 -13t64 -35.5t47.5 -53.5t18.5 -67q0 -8 -4.5 -13t-11 -7.5t-14 -3.5t-13.5 -1h-229q-11 0 -15.5 -7t-4.5 -17zM293 276q13 0 19 4t6 18q0 18 -7 35t-19.5 29.5t-29 20t-34.5 7.5q-41 0 -65.5 -28.5t-24.5 -67.5q0 -11 4.5 -14.5t14.5 -3.5h136zM222 633
q5 0 17.5 -9.5t25.5 -21.5t23 -23.5t10 -16.5t-9.5 -17t-22.5 -24t-25 -21t-18 -9q-5 0 -17.5 9t-25.5 21t-23 23.5t-10 16.5q0 4 10 16t23 24.5t25 22t17 9.5z" />
    <glyph glyph-name="Eogonek" unicode="&#x118;" horiz-adv-x="673" 
d="M15 686q0 10 6.5 13t14.5 3q66 0 130.5 -3t130.5 -3q63 0 124.5 3t124.5 3q14 0 21 -8t10 -19.5t3 -24v-22.5q0 -17 1 -32.5t1 -32.5q0 -9 -6.5 -15.5t-15.5 -6.5q-10 0 -15.5 10t-10 23.5t-10 27.5t-14.5 22q-18 15 -47 18.5t-52 3.5h-104q-23 0 -32 -10t-9 -32l1 -184
q0 -18 15 -22t29 -4h27.5t34 0.5t33 3t24.5 7.5t18.5 17.5t18.5 25.5t17 23t14 10q11 0 14 -10.5t3 -18.5q0 -22 -3.5 -43.5t-3.5 -44.5q0 -25 3.5 -49.5t3.5 -49.5q0 -11 -4 -16.5t-15 -5.5q-14 0 -18.5 10t-8.5 24t-10.5 29t-23.5 25q-10 5 -24 8t-30 4t-31 1h-26
q-9 0 -19.5 -1t-18.5 -4.5t-13.5 -10.5t-5.5 -19q0 -46 -0.5 -91.5t-0.5 -91.5q0 -35 13 -55.5t53 -20.5q61 0 120.5 13.5t105.5 56.5q4 4 12.5 13.5t18.5 20t18.5 18.5t12.5 8q11 0 14 -8t3 -17q0 -27 -10.5 -47.5t-26.5 -37t-35 -31t-35 -29t-26.5 -30.5t-10.5 -36
q0 -21 13 -31t33 -10q22 0 42 7.5t42 7.5q14 0 14 -13q0 -5 -5.5 -10.5t-12.5 -10.5t-14.5 -9.5t-11.5 -6.5q-50 -27 -104 -27q-15 0 -30 4t-28 12t-21 20.5t-8 29.5q0 26 13.5 48t33.5 39q-42 1 -83 3.5t-83 2.5q-50 0 -98.5 -3t-98.5 -3q-8 0 -16 3t-8 13t9 14t20.5 9.5
t23 16.5t16.5 35q3 15 3.5 30t0.5 30v404q0 17 -2 42t-12 39q-11 16 -29 23t-35 10.5t-29.5 7.5t-12.5 15z" />
    <glyph glyph-name="eogonek" unicode="&#x119;" horiz-adv-x="465" 
d="M137 214q0 -29 11 -58t30.5 -52.5t46 -38.5t56.5 -15q27 0 49.5 8.5t39.5 19t28 19.5t17 9q5 0 10 -4.5t5 -9.5q0 -12 -13.5 -26t-31.5 -27t-37 -22.5t-29 -13.5q-14 -12 -23.5 -26t-9.5 -33q0 -21 13 -31t33 -10q22 0 42 7.5t42 7.5q6 0 10.5 -3t4.5 -10
q0 -5 -5.5 -10.5t-13 -10.5t-14.5 -9.5t-11 -6.5q-48 -27 -105 -27q-15 0 -30 4t-28 12t-21 20.5t-8 29.5q0 24 11.5 44t28.5 36q-47 0 -86 14.5t-67 41.5t-43.5 65.5t-15.5 86.5q0 44 15 86.5t42 76t65.5 54t86.5 20.5q33 0 68 -13t64 -35.5t47.5 -53.5t18.5 -67
q0 -8 -4.5 -13t-11 -7.5t-14 -3.5t-13.5 -1h-230q-11 0 -15.5 -7t-4.5 -17zM291 276q13 0 19 4t6 18q0 18 -7 35t-19.5 29.5t-29 20t-34.5 7.5q-41 0 -65.5 -28.5t-24.5 -67.5q0 -11 4.5 -14.5t14.5 -3.5h136z" />
    <glyph glyph-name="Ecaron" unicode="&#x11a;" horiz-adv-x="666" 
d="M20 686q0 9 6 12.5t14 3.5q66 0 131 -3t131 -3q63 0 124.5 3t124.5 3q15 0 22.5 -9t9.5 -22t1.5 -26.5t-0.5 -23.5q0 -14 1 -29t1 -29q0 -22 -22 -22q-10 0 -15 10t-9.5 23.5t-9.5 27.5t-15 22q-18 15 -47 18.5t-52 3.5h-105q-24 0 -32 -10.5t-8 -33.5v-182q0 -18 15 -22
t29 -4q11 0 27.5 -0.5t34 0.5t33 3.5t24.5 7.5t18.5 17.5t18.5 25.5t17 23t14 10q11 0 14.5 -10.5t3.5 -18.5q0 -22 -3.5 -43.5t-3.5 -44.5q0 -25 3.5 -49.5t3.5 -49.5q0 -22 -20 -22q-13 0 -18 10t-8.5 24.5t-10.5 29.5t-24 24q-10 5 -24 8t-30 4t-31 1h-26q-9 0 -19 -1
t-18.5 -4.5t-14 -10.5t-5.5 -19q0 -45 -0.5 -90.5t-0.5 -90.5q0 -35 12.5 -56.5t53.5 -21.5q60 0 120.5 13.5t106.5 56.5q4 4 12.5 13.5t18 20t18 18.5t13.5 8q11 0 14 -8t3 -17q0 -15 -4.5 -29t-10.5 -28q-23 -52 -60 -78t-95 -26q-46 0 -92 3t-92 3q-50 0 -98.5 -3
t-98.5 -3q-8 0 -16.5 3t-8.5 13t9 14t20.5 9.5t23 16.5t16.5 35q3 16 4 31.5t1 31.5v401q0 18 -2 42t-13 39q-11 16 -29 23t-35 10.5t-29 7.5t-12 15zM435 920q16 0 16 -16q0 -7 -9.5 -23.5t-22 -34.5t-24.5 -35t-17 -24q-8 -12 -19 -20.5t-27 -8.5q-12 0 -22 3t-18 11
q-5 5 -19 24.5t-29 41t-26.5 41t-11.5 24.5q0 17 17 17q6 0 21 -9.5t31.5 -22.5t31.5 -25t21 -17q7 5 22 17t32 25t32 22.5t21 9.5z" />
    <glyph glyph-name="ecaron" unicode="&#x11b;" horiz-adv-x="465" 
d="M144 214q0 -29 11 -58t30.5 -52.5t46 -38.5t56.5 -15q27 0 49.5 8.5t39 19t28 19.5t17.5 9q5 0 10 -4.5t5 -9.5q0 -7 -5 -14.5t-11.5 -14.5t-14 -12.5t-12.5 -9.5q-36 -26 -75 -40t-84 -14q-46 0 -84 15.5t-65 43t-41.5 65.5t-14.5 84q0 44 15 86.5t42 76t65.5 54
t86.5 20.5q33 0 68 -13t64 -35.5t47.5 -53.5t18.5 -67q0 -8 -4.5 -13t-11 -7.5t-14 -3.5t-13.5 -1h-230q-11 0 -15.5 -7t-4.5 -17zM334 643q16 0 16 -17q0 -7 -9.5 -23.5t-22 -35t-24.5 -35t-17 -23.5q-8 -12 -20 -20.5t-27 -8.5q-11 0 -21 3t-18 11q-5 5 -19 24t-29 41.5
t-26.5 41.5t-11.5 24q0 8 4.5 13t12.5 5q6 0 21 -10t31.5 -22.5t31.5 -25l21 -17.5q7 5 22 17.5t32 25t32 22.5t21 10zM297 276q13 0 19 4t6 18q0 18 -7 35t-19 29.5t-28.5 20t-35.5 7.5q-41 0 -65 -28.5t-24 -67.5q0 -11 4 -14.5t15 -3.5h135z" />
    <glyph glyph-name="Gcircumflex" unicode="&#x11c;" horiz-adv-x="800" 
d="M27 315q0 81 27 152.5t76 125.5t117.5 85t152.5 31q54 0 106 -12t101 -35q8 -3 21 -10t21 -7q7 0 11 4.5t7.5 10.5t7.5 10.5t11 4.5q13 0 16.5 -9.5t3.5 -19.5q0 -24 -2.5 -47.5t-2.5 -47.5q0 -20 3 -40.5t3 -40.5q0 -9 -3.5 -17.5t-15.5 -8.5q-11 0 -15.5 7.5t-8.5 15.5
q-8 19 -16 37t-19 35q-38 57 -100 88.5t-130 31.5q-66 0 -111.5 -25t-74 -66t-41.5 -94.5t-13 -111.5q0 -56 13.5 -113.5t42.5 -104.5t75 -77t112 -30q22 0 43.5 4t41.5 11q27 9 44 19t26.5 24t13.5 33.5t4 47.5q0 30 -2.5 50t-11.5 33t-27 20t-50 12q-8 2 -18.5 4.5
t-10.5 14.5q0 11 9 14t17 3q38 0 75.5 -3t75.5 -3q31 0 61 3t61 3q9 0 17.5 -3t8.5 -14q0 -10 -7.5 -13.5t-14.5 -5.5q-31 -11 -41 -31t-10 -52v-98q0 -11 -6 -19.5t-16 -13.5q-25 -14 -53.5 -25t-55.5 -21q-53 -20 -105.5 -32t-109.5 -12q-73 0 -137 27q-103 42 -150 116.5
t-47 184.5zM282 758q-17 0 -17 17q0 5 9.5 21.5t22.5 36t24.5 36.5t16.5 23q9 11 20 19.5t27 8.5q11 0 21 -2.5t18 -10.5q6 -6 20 -25t28.5 -40.5t26 -41t11.5 -25.5q0 -17 -16 -17q-5 0 -20.5 10t-32.5 22.5t-32.5 25t-21.5 17.5l-21 -17.5t-31.5 -25.5t-31.5 -22.5
t-21 -9.5z" />
    <glyph glyph-name="gcircumflex" unicode="&#x11d;" horiz-adv-x="493" 
d="M64 54q0 36 15 57t38 45q-38 23 -59 50.5t-21 73.5q0 38 17 66.5t44.5 47.5t61.5 28.5t68 9.5q38 0 70 -9.5t66 -25.5q25 0 38.5 9.5t21.5 21t13 21t13 9.5t10.5 -6t2.5 -12q0 -19 -0.5 -35.5t-5 -30.5t-14 -26.5t-27.5 -22.5q2 -8 2 -17v-17q0 -41 -17.5 -70t-46 -47
t-64 -26.5t-70.5 -8.5q-15 0 -29.5 2t-29.5 2q-19 0 -26 -11.5t-7 -28.5q0 -26 24.5 -33.5t61.5 -8.5t79.5 0t79.5 -6.5t61.5 -29.5t24.5 -69q0 -46 -23.5 -76t-59 -47.5t-77.5 -24.5t-79 -7q-25 0 -57 1.5t-61 10.5t-49 28t-20 54q0 32 21.5 50t48.5 27q-17 20 -28 37
t-11 45zM122 -89q0 -24 11.5 -39t28.5 -23t38 -10.5t40 -2.5q17 0 39.5 3t42.5 10.5t34 21.5t14 36q0 14 -12 23.5t-30.5 15.5t-41.5 8.5t-44.5 4t-40 1.5h-27.5q-52 0 -52 -49zM145 292q0 -21 3.5 -42t13 -38t26 -27.5t41.5 -10.5q22 0 37.5 9t25.5 23t14.5 32.5t4.5 37.5
q0 22 -3.5 43.5t-12.5 38.5t-25.5 27.5t-43.5 10.5q-24 0 -39.5 -8.5t-24.5 -23t-13 -33.5t-4 -39zM125 480q-17 0 -17 17q0 6 9.5 22.5t22.5 35t25 35.5t17 24q9 12 19.5 20.5t26.5 8.5q11 0 21 -3t18 -11q6 -6 20 -25t29 -40.5t26 -41t11 -25.5q0 -17 -16 -17
q-5 0 -20.5 10t-32.5 22.5t-32.5 25t-21.5 17.5l-21 -17.5t-31.5 -25.5t-31.5 -22.5t-21 -9.5z" />
    <glyph glyph-name="Gbreve" unicode="&#x11e;" horiz-adv-x="803" 
d="M29 315q0 81 27 152.5t76 125.5t117.5 85t152.5 31q55 0 105.5 -12t101.5 -35q8 -4 21.5 -10.5t21.5 -6.5q7 0 10.5 4.5t7 10.5t7.5 10.5t11 4.5q13 0 16.5 -9.5t3.5 -19.5q0 -24 -2 -47.5t-2 -47.5q0 -20 2.5 -40.5t2.5 -40.5q0 -9 -3.5 -17.5t-15.5 -8.5
q-11 0 -15.5 7.5t-8.5 15.5q-8 18 -15.5 36.5t-18.5 35.5q-18 28 -44 50.5t-56.5 38t-64 23.5t-66.5 8q-66 0 -111.5 -25t-74 -66t-41.5 -94.5t-13 -111.5q0 -56 13.5 -113.5t42.5 -104.5t75 -77t112 -30q22 0 43.5 4t41.5 11q27 9 44 19t26.5 24t13.5 33.5t4 47.5
q0 30 -2.5 50t-11.5 33t-27 20t-50 12q-8 2 -18.5 4.5t-10.5 14.5q0 11 9 14t17 3q38 0 75.5 -3t75.5 -3q31 0 61 3t61 3q9 0 17.5 -3t8.5 -14q0 -10 -7.5 -13.5t-14.5 -5.5q-30 -11 -41 -31t-11 -52l1 -98q0 -12 -6 -20t-16 -13q-25 -15 -53.5 -25.5t-55.5 -20.5
q-53 -19 -105.5 -31.5t-109.5 -12.5q-73 0 -137 27q-103 42 -150 116.5t-47 184.5zM281 919q10 0 17 -13.5t17 -30t27 -30t48 -13.5q33 0 50.5 13.5t27 30t16 30t18.5 13.5q5 0 8.5 -4.5t5.5 -10.5t3 -12t1 -9q0 -58 -36.5 -91.5t-93.5 -33.5q-26 0 -49.5 8.5t-41 24
t-28 37.5t-10.5 49q0 5 0.5 12.5t2 14t5.5 11t12 4.5z" />
    <glyph glyph-name="gbreve" unicode="&#x11f;" horiz-adv-x="500" 
d="M67 54q0 36 15.5 57t38.5 45q-38 23 -59 50.5t-21 73.5q0 38 17 66.5t44 47.5t61 28.5t68 9.5q39 0 70.5 -9t66.5 -26q25 0 38.5 9.5t21 21t13 21t13.5 9.5q7 0 10 -6t3 -12q0 -19 -0.5 -35.5t-5 -30.5t-14 -26.5t-27.5 -22.5q1 -8 1.5 -17t0.5 -17q0 -41 -17.5 -69.5
t-46 -47t-64 -27t-70.5 -8.5q-15 0 -30 2t-30 2q-19 0 -25.5 -11.5t-6.5 -28.5q0 -26 24.5 -34t61 -8.5t79.5 0.5t79.5 -6.5t61 -29.5t24.5 -69q0 -46 -23.5 -76t-59 -47.5t-77 -24.5t-78.5 -7q-25 0 -57 1.5t-61 10.5t-49 28t-20 54q0 32 21 50t48 27q-17 20 -28 37.5
t-11 44.5zM126 -89q0 -24 11.5 -39t28.5 -23t38 -10.5t40 -2.5q16 0 38.5 3t43 10.5t34.5 21.5t14 36q0 21 -25.5 32t-59 15.5t-66 5t-46.5 0.5q-24 0 -37.5 -12t-13.5 -37zM148 292q0 -21 4 -42t13.5 -38t26 -27.5t41.5 -10.5q21 0 36.5 9t25.5 23.5t14.5 32.5t4.5 37
q0 22 -3 43.5t-12.5 38.5t-26 27.5t-43.5 10.5q-24 0 -39.5 -8.5t-24.5 -23t-13 -33.5t-4 -39zM126 642q10 0 16.5 -14t17 -30.5t27.5 -30t48 -13.5q33 0 50.5 13.5t27 30t16 30.5t18.5 14q11 -5 14 -15.5t3 -21.5q0 -57 -36 -91t-93 -34q-26 0 -49.5 8.5t-41 24t-28 37.5
t-10.5 49v12.5t2 14t6 11.5t12 5z" />
    <glyph glyph-name="Gdotaccent" unicode="&#x120;" horiz-adv-x="797" 
d="M25 315q0 81 27 153t76.5 125.5t118 84.5t152.5 31q54 0 106 -12t101 -35q8 -3 21 -10t21 -7q7 0 11 4.5t7.5 10.5t7.5 10.5t12 4.5q12 0 15.5 -10t3.5 -19q0 -24 -2.5 -47.5t-2.5 -47.5q0 -20 3 -40.5t3 -40.5q0 -9 -3.5 -17.5t-15.5 -8.5q-11 0 -15.5 7.5t-8.5 15.5
q-8 19 -16 37t-19 35q-38 57 -100 88.5t-130 31.5q-65 0 -111 -24.5t-75 -66t-42 -95t-13 -111.5q0 -56 13.5 -114t43 -105t75.5 -76.5t112 -29.5q22 0 43 4t41 11q27 9 44 18.5t27 24t14 34t4 47.5q0 30 -2.5 50t-11.5 33t-27 20t-50 12q-8 2 -18.5 4.5t-10.5 14.5
q0 11 9 14t17 3q38 0 75 -3t75 -3q31 0 61 3t61 3q9 0 18 -2.5t9 -14.5q0 -10 -7.5 -13.5t-14.5 -5.5q-31 -11 -41 -31t-10 -52v-98q0 -11 -6 -19.5t-16 -13.5q-25 -14 -53.5 -25t-55.5 -21q-53 -19 -105.5 -31.5t-109.5 -12.5q-73 0 -137 27q-103 42 -150.5 116.5
t-47.5 184.5zM385 911q5 0 17.5 -9t25.5 -21t23 -24t10 -17t-9.5 -17t-22.5 -24t-25 -21t-18 -9q-5 0 -17.5 9t-25.5 21t-22.5 23.5t-9.5 16.5q0 4 10 16t23 24.5t25 22t16 9.5z" />
    <glyph glyph-name="gdotaccent" unicode="&#x121;" horiz-adv-x="487" 
d="M61 54q0 35 14.5 56.5t37.5 45.5q-37 23 -58.5 50.5t-21.5 73.5q0 38 17 66.5t44.5 47.5t61.5 28.5t68 9.5q38 0 69.5 -9t66.5 -26q25 0 39 9.5t22 21t13 21t13 9.5q7 0 10 -6t3 -12q0 -18 -1 -34.5t-5.5 -31t-14 -27t-26.5 -22.5q1 -8 1.5 -17t0.5 -17
q0 -41 -17.5 -69.5t-46 -47t-64 -27t-70.5 -8.5q-15 0 -30 2t-30 2q-19 0 -25.5 -11.5t-6.5 -28.5q0 -26 24.5 -34t61 -8.5t79.5 0.5t79.5 -6.5t61 -29.5t24.5 -69t-23.5 -77t-59 -47t-77.5 -24t-79 -7q-25 0 -57 1.5t-60.5 10.5t-48.5 28t-20 54q0 32 21.5 50t48.5 27
q-18 20 -28.5 37t-10.5 45zM119 -89q0 -24 11.5 -39t28.5 -23t38 -10.5t40 -2.5q16 0 38.5 3t43 10.5t34.5 21.5t14 36q0 21 -25.5 32t-59 15.5t-66 5t-46.5 0.5q-51 0 -51 -49zM141 292q0 -21 4 -42t13.5 -38t26 -27.5t41.5 -10.5q21 0 36.5 9t25.5 23.5t14.5 32.5t4.5 37
q0 22 -3 43.5t-12.5 38.5t-26 27.5t-43.5 10.5q-24 0 -39.5 -8.5t-24.5 -23t-13 -33.5t-4 -39zM226 633q5 0 17.5 -9.5t25.5 -21.5t23 -23.5t10 -16.5t-9.5 -17t-22.5 -24t-25 -21t-18 -9q-5 0 -17.5 9t-25.5 21t-23 23.5t-10 16.5q0 4 10 16t23 24.5t25 22t17 9.5z" />
    <glyph glyph-name="Gcommaaccent" unicode="&#x122;" horiz-adv-x="793" 
d="M23 315q0 81 27 152.5t76 125.5t117.5 85t152.5 31q54 0 106.5 -12t101.5 -35l21 -10.5t21 -6.5q7 0 11 4.5t7.5 10.5t7.5 10.5t11 4.5q12 0 15.5 -9.5t3.5 -19.5q0 -24 -2 -47.5t-2 -47.5q0 -20 3 -40.5t3 -40.5q0 -9 -4 -17.5t-15 -8.5q-9 0 -17 11.5t-15.5 27
t-14 31.5t-12.5 25q-37 57 -100 88.5t-130 31.5q-66 0 -111.5 -24.5t-74.5 -66t-42 -95t-13 -111.5q0 -56 13.5 -113.5t42.5 -104.5t75 -77t112 -30q22 0 43.5 4t41.5 11q27 9 44 19t27 24t13.5 33.5t3.5 47.5q0 30 -2.5 50t-11.5 33t-27 20t-50 12q-8 2 -18.5 4.5
t-10.5 14.5t9.5 14.5t17.5 2.5q38 0 75 -3t75 -3q31 0 61 3t61 3q9 0 17.5 -3t8.5 -14q0 -10 -7 -13l-14 -6q-31 -11 -41.5 -31t-10.5 -52l1 -98q0 -14 -16.5 -26.5t-38 -23t-43.5 -18t-33 -11.5q-52 -20 -105.5 -32t-109.5 -12q-72 0 -138 27q-102 42 -149.5 117t-47.5 184
zM342 -309q0 4 9.5 12t21.5 20t21.5 29t9.5 39q0 17 -9 29t-20.5 21t-20.5 15.5t-9 14.5q0 6 10 18t23.5 24t26.5 21t19 9q14 0 26 -9.5t21 -23t14.5 -29t5.5 -27.5q0 -51 -26 -89.5t-68 -65.5q-3 -2 -8.5 -5t-11.5 -7t-11.5 -6.5t-8.5 -2.5q-8 0 -11.5 2t-3.5 11z" />
    <glyph glyph-name="gcommaaccent" unicode="&#x123;" horiz-adv-x="483" 
d="M55 54q0 36 15 57t38 45q-37 23 -58.5 50.5t-21.5 73.5q0 38 17 66.5t44.5 47.5t61.5 28.5t68 9.5q38 0 69.5 -9t66.5 -26q25 0 38.5 9.5t21.5 21t13 21t13 9.5t11 -6t3 -12q0 -19 -0.5 -35.5t-5 -30.5t-14 -26.5t-27.5 -22.5q1 -8 1.5 -17t0.5 -17q0 -41 -17.5 -69.5
t-46 -47t-64 -27t-70.5 -8.5q-15 0 -30 2t-30 2q-19 0 -25.5 -11.5t-6.5 -28.5q0 -26 24.5 -34t61 -8.5t79.5 0.5t79.5 -6.5t61 -29.5t24.5 -69t-23.5 -77t-59 -47t-77.5 -24t-79 -7q-25 0 -57 1.5t-61 10.5t-49 28t-20 54q0 32 21.5 50t48.5 27q-17 20 -28 37t-11 45z
M113 -89q0 -24 11.5 -39t28.5 -23t38 -10.5t40 -2.5q17 0 39.5 3t42.5 10.5t34 21.5t14 36q0 14 -12 23.5t-30.5 15.5t-41.5 8.5t-44.5 4t-39.5 1.5h-28q-52 0 -52 -49zM136 292q0 -21 3.5 -42t13 -38t26 -27.5t41.5 -10.5q22 0 37.5 9t25.5 23t14.5 32.5t4.5 37.5
q0 22 -3 43.5t-12.5 38.5t-26 27.5t-43.5 10.5q-24 0 -39.5 -8.5t-24.5 -23t-13 -33.5t-4 -39zM328 701q0 -3 -9 -10.5t-20.5 -19t-20.5 -27.5t-9 -37q0 -15 8.5 -26.5t18.5 -20.5t18.5 -15.5t8.5 -12.5t-9.5 -17t-21.5 -22.5t-24.5 -19.5t-18.5 -8q-15 0 -26.5 9t-20 22.5
t-13 28.5t-4.5 28q0 25 10 48.5t26 44t37 36.5t42 26q2 1 6.5 3t6.5 2q6 0 10.5 -2.5t4.5 -9.5z" />
    <glyph glyph-name="Hcircumflex" unicode="&#x124;" horiz-adv-x="909" 
d="M143 546q0 25 -3 45t-12 35t-25.5 25t-44.5 15q-5 1 -11 1.5t-11.5 2.5t-9.5 5.5t-4 9.5q0 9 8.5 13t16.5 4q37 0 74 -3t74 -3q33 0 66 3t66 3q8 0 14.5 -3.5t6.5 -13.5q0 -5 -4 -9.5t-10 -8t-12 -6t-10 -4.5q-25 -13 -32 -33.5t-7 -46.5l1 -128q0 -18 0.5 -29t5 -17
t15 -7.5t30.5 -1.5h278q21 0 26.5 9.5t5.5 28.5v114q0 26 -3 46t-12 34.5t-25.5 24t-44.5 15.5q-4 1 -10 2t-11.5 3t-9.5 5.5t-4 8.5q0 12 9 14.5t18 2.5q37 0 74 -3t74 -3q32 0 64 3t64 3q9 0 15.5 -3t6.5 -14q0 -12 -14 -18t-22 -10q-24 -12 -31 -33.5t-7 -46.5l1 -426
q0 -26 2.5 -46t11.5 -35.5t26 -25.5t45 -14q9 -2 21.5 -3.5t12.5 -14.5q0 -11 -8 -14.5t-17 -3.5q-41 0 -81.5 3t-81.5 3q-29 0 -58 -3t-58 -3q-20 0 -20 17q0 12 13.5 18t21.5 10q25 12 32 33.5t7 47.5l-1 177q0 14 -5 30t-24 16h-304q-18 0 -23 -9t-5 -25v-158
q0 -19 2 -41.5t12 -39.5q11 -19 29 -26.5t35 -11t29.5 -7t12.5 -13.5q0 -11 -8 -14.5t-17 -3.5q-40 0 -79 3t-79 3q-32 0 -62.5 -3t-62.5 -3q-17 0 -17 17q0 10 8.5 15t20 10t22.5 12.5t16 21.5q5 16 6 41t1 42v393zM349 758q-17 0 -17 17q0 6 9.5 22.5t22.5 35.5t25 36
t17 23q9 11 19.5 19.5t26.5 8.5q11 0 21 -2.5t18 -10.5q6 -6 20 -25t28.5 -40.5t26 -41t11.5 -25.5q0 -17 -16 -17q-5 0 -20.5 10t-32.5 22.5t-32.5 25t-21.5 17.5l-21 -17.5t-31.5 -25.5t-31.5 -22.5t-21 -9.5z" />
    <glyph glyph-name="hcircumflex" unicode="&#x125;" horiz-adv-x="603" 
d="M367 432q71 0 116 -54q19 -23 27 -56.5t10 -70.5t1 -73t-1 -64v-12.5t1 -12.5q2 -27 13.5 -38.5t25 -16t24 -7.5t10.5 -15q0 -10 -6 -14t-15 -4q-20 0 -39.5 3t-39.5 3q-30 0 -59.5 -3t-59.5 -3q-8 0 -15 3t-7 13t7.5 13.5t17 9.5t18 18t10.5 39q1 14 1 28.5v29.5v65
t-8.5 70t-29.5 55.5t-62 22.5q-15 0 -30 -4t-27 -12.5t-20 -21t-8 -28.5v-149q0 -9 0.5 -22t2 -26.5t5 -25t9.5 -17.5q6 -5 15.5 -8t18.5 -6.5t15.5 -9t6.5 -14.5q0 -23 -22 -23q-23 0 -44.5 3t-44.5 3q-31 0 -62 -3t-62 -3q-8 0 -14 4t-6 12t6.5 12.5t15.5 8t18.5 8
t15.5 12.5q8 11 9.5 30t1.5 33q0 125 -0.5 248.5t-0.5 248.5q0 18 -10.5 25t-22.5 10.5t-22.5 6.5t-10.5 14q0 8 6.5 11t13.5 5q36 9 70.5 20.5t67.5 28.5l8 4t9 2q1 0 3 -1t3 -1l4 -4q1 -3 2 -6.5t1 -6.5q0 -35 -3 -71t-3 -72v-210q32 27 66.5 46.5t78.5 19.5zM55 750
q-16 0 -16 17q0 6 9.5 22t22 35t24.5 36t17 23q9 12 19.5 20.5t26.5 8.5q11 0 21 -2.5t18 -10.5q6 -6 20 -25t28.5 -40.5t26 -41t11.5 -25.5q0 -17 -16 -17q-5 0 -20 10t-32.5 22.5t-33 24.5t-20.5 17q-7 -5 -22 -17.5t-31.5 -25t-31.5 -22t-21 -9.5z" />
    <glyph glyph-name="Hbar" unicode="&#x126;" horiz-adv-x="935" 
d="M98 535h57v11q0 26 -3 46t-12 34.5t-25.5 24.5t-44.5 15q-8 1 -21 4t-13 15q0 9 8 13t16 4q37 0 73.5 -3t73.5 -3q33 0 66.5 3t66.5 3q20 0 20 -17q0 -5 -4 -9.5t-9.5 -8t-11.5 -6t-10 -4.5q-25 -13 -32 -33.5t-7 -46.5l1 -42h360v11q0 26 -2.5 46t-11.5 34.5t-26 24
t-45 15.5q-4 1 -9.5 2t-11 3t-9.5 5.5t-4 8.5q0 12 8.5 14.5t17.5 2.5q38 0 74.5 -3t74.5 -3q32 0 64 3t64 3q8 0 15 -3.5t7 -13.5q0 -12 -14 -18t-22 -10q-25 -12 -32 -33.5t-7 -46.5l1 -42h81v-40h-81v-344q0 -25 3 -45.5t12 -35.5t25.5 -25.5t44.5 -14.5q4 -1 10.5 -1.5
t11.5 -2t9 -4.5t4 -10q0 -11 -8 -14.5t-17 -3.5q-41 0 -81.5 3t-81.5 3q-29 0 -58 -3t-58 -3q-8 0 -14.5 3.5t-6.5 13.5q0 6 4 10.5t10 7.5t12 5.5t10 4.5q24 11 31 32t7 45q0 46 -0.5 91t-0.5 90q0 14 -4.5 30t-23.5 16h-304q-18 0 -23 -9t-5 -25q0 -9 -1 -42t-0.5 -72
t3.5 -75t11 -50q11 -18 29 -26t35.5 -11.5t30 -7t12.5 -13.5q0 -11 -8 -14.5t-17 -3.5q-40 0 -79 3t-79 3q-32 0 -62.5 -3t-62.5 -3q-17 0 -17 17q0 9 8.5 14.5t19.5 10.5t22.5 12.5t16.5 21.5q5 12 5.5 32t0.5 34v359h-57v40zM338 394h277q21 0 26.5 9.5t5.5 28.5v63h-360
v-63q0 -15 3 -23t9 -11t15.5 -3.5t23.5 -0.5z" />
    <glyph glyph-name="hbar" unicode="&#x127;" horiz-adv-x="604" 
d="M38 576h67v35q0 18 -10.5 25t-23 10.5t-23 6.5t-10.5 14q0 9 7 11.5t14 4.5q35 8 70.5 20t67.5 29q4 2 7.5 4t8.5 2q1 0 3 -1t3 -1l5 -4q1 -3 2 -6.5t1 -6.5q0 -35 -3.5 -71t-3.5 -72h150v-50h-150v-160q32 27 66.5 46.5t79.5 19.5q70 0 115 -54q19 -23 27.5 -56.5
t10.5 -70t1 -72.5t-1 -65v-12.5t1 -12.5q2 -27 13.5 -38.5t25 -16t24 -7.5t10.5 -15q0 -10 -6 -14t-15 -4q-20 0 -39.5 3t-39.5 3q-30 0 -60 -3t-60 -3q-8 0 -15 3t-7 13t7.5 13.5t17 9.5t18 18t10.5 39q1 14 1 28.5v29.5v65t-8.5 70t-29.5 55.5t-62 22.5q-15 0 -30 -4
t-27 -12.5t-20 -21t-8 -28.5v-149q0 -8 0.5 -21.5t2 -27t5 -25t9.5 -17.5q6 -5 15.5 -8t18.5 -6.5t16 -9t7 -14.5q0 -23 -23 -23t-44.5 3t-44.5 3q-31 0 -62 -3t-62 -3q-8 0 -14 4t-6 12t6.5 12.5t16 8t19 8t15.5 12.5q4 6 6.5 15t3.5 18.5t1 19v16.5q0 103 -0.5 203.5
t-0.5 202.5h-67v50z" />
    <glyph glyph-name="Itilde" unicode="&#x128;" horiz-adv-x="403" 
d="M15 685q0 13 12.5 15t21.5 2q35 0 70 -3t70 -3q32 0 64.5 3t64.5 3q9 0 15.5 -3t6.5 -14q0 -6 -5.5 -11.5t-13.5 -9.5t-16 -7.5t-12 -6.5q-18 -12 -22.5 -32.5t-4.5 -40.5q0 -107 0.5 -213t0.5 -213q0 -17 2 -41.5t11 -39.5q11 -18 29 -26t35.5 -11.5t30 -7t12.5 -13.5
q0 -11 -8.5 -14.5t-17.5 -3.5q-39 0 -77.5 3t-77.5 3q-31 0 -62 -3t-62 -3q-8 0 -14 4t-6 13q0 11 13.5 17.5t21.5 10.5q25 12 32 34t7 47l-1 426q0 17 -2 41t-11 39q-11 18 -29 25.5t-35 12t-30 8.5t-13 13zM45 808q0 13 11.5 29.5t28 31t35 24t31.5 9.5q16 0 30.5 -5.5
t27.5 -12t26 -12t28 -5.5t24.5 5.5t18 11.5t16.5 11.5t20 5.5q8 0 11.5 -6t3.5 -13q0 -15 -11 -31.5t-27.5 -30t-35 -22.5t-32.5 -9q-16 0 -31.5 5.5t-30.5 12.5t-29.5 12.5t-28.5 5.5q-10 0 -18.5 -5.5t-16.5 -12.5t-16 -12.5t-16 -5.5q-19 0 -19 19z" />
    <glyph glyph-name="itilde" unicode="&#x129;" horiz-adv-x="371" 
d="M57 358q0 8 7 11.5t14 5.5q35 8 70.5 20t67.5 29q4 2 7.5 4t8.5 2q14 0 14 -13q0 -11 -1.5 -21t-2.5 -21q-2 -24 -2 -48.5v-48.5v-138v-21t1.5 -26.5t5 -25.5t9.5 -18q4 -4 13.5 -7.5t19.5 -7.5t17 -9t7 -12q0 -19 -22 -19q-23 0 -45 3t-45 3q-29 0 -58.5 -3t-58.5 -3
q-8 0 -17.5 3.5t-9.5 13.5q0 7 7.5 12t17 9.5l19 9t14.5 10.5q4 6 6 17.5t3 25t1 26v19.5q0 42 0.5 82.5t-1.5 81.5q-1 19 -11.5 26t-23 10t-22.5 5.5t-10 12.5zM30 530q0 14 11.5 30.5t28 31t34.5 24t32 9.5q16 0 30 -5.5t27 -12.5t26 -12.5t28 -5.5t25 5.5t18 12t16.5 12
t20.5 5.5q8 0 11 -6.5t3 -13.5q0 -15 -11 -31t-27.5 -30t-34.5 -23t-32 -9q-17 0 -32.5 5.5t-30.5 12.5t-29.5 12.5t-27.5 5.5q-11 0 -19.5 -5.5t-16.5 -12.5t-15.5 -12.5t-16.5 -5.5q-18 0 -18 19z" />
    <glyph glyph-name="Imacron" unicode="&#x12a;" horiz-adv-x="396" 
d="M12 685q0 13 12.5 15t21.5 2q35 0 70.5 -3t70.5 -3q32 0 64 3t64 3q9 0 15.5 -3t6.5 -14q0 -6 -5.5 -11.5t-13.5 -9.5t-16 -7.5t-12 -6.5q-18 -12 -22.5 -32.5t-4.5 -40.5q0 -107 0.5 -213t0.5 -213q0 -17 2 -41.5t11 -39.5q11 -18 29 -26t35 -11.5t29.5 -7t12.5 -13.5
q0 -11 -8 -14.5t-17 -3.5q-39 0 -77.5 3t-77.5 3q-31 0 -62 -3t-62 -3q-20 0 -20 17q0 11 13.5 17.5t21.5 10.5q25 12 32 34t7 47l-1 426q0 17 -2 41t-11 39q-11 18 -29 25.5t-35 12t-30 8.5t-13 13zM31 869h332v-73h-332v73z" />
    <glyph glyph-name="imacron" unicode="&#x12b;" horiz-adv-x="375" 
d="M60 358q0 8 7 11.5t14 5.5q35 8 70.5 20t67.5 29q4 2 7.5 4t8.5 2q14 0 14 -13q0 -11 -1.5 -21t-2.5 -21q-2 -24 -2 -48.5v-48.5v-138v-21t1.5 -26.5t5 -25.5t9.5 -18q4 -4 13.5 -7.5t19.5 -7.5t17 -9t7 -12q0 -19 -22 -19q-23 0 -45 3t-45 3q-29 0 -58.5 -3t-58.5 -3
q-8 0 -17.5 3.5t-9.5 13.5q0 7 7.5 12t17 9.5l19 9t14.5 10.5q4 6 6 17.5t3 25t1 26v19.5q0 42 0.5 82.5t-1.5 81.5q-1 19 -11.5 26t-23 10t-22.5 5.5t-10 12.5zM22 591h332v-73h-332v73z" />
    <glyph glyph-name="Ibreve" unicode="&#x12c;" horiz-adv-x="412" 
d="M19 685q0 13 12.5 15t21.5 2q35 0 70 -3t70 -3q32 0 64.5 3t64.5 3q8 0 15 -3.5t7 -13.5q0 -6 -5.5 -11.5t-13.5 -9.5t-16 -7.5t-12 -6.5q-19 -13 -23 -34.5t-4 -42.5v-422q0 -19 2 -41.5t12 -39.5q11 -19 29 -26.5t35 -11t29.5 -7t12.5 -13.5q0 -11 -8 -14.5t-17 -3.5
q-39 0 -78 3t-78 3q-31 0 -62 -3t-62 -3q-8 0 -14 4t-6 13q0 6 4 10t10 7.5t12 6t10 4.5q26 13 32 35.5t6 48.5v423q0 18 -2.5 41t-11.5 39q-11 18 -28.5 25.5t-35 12t-30 8t-12.5 13.5zM96 919q10 0 17 -13.5t17 -30t27 -30t48 -13.5q33 0 50.5 13.5t27 30t16 30t18.5 13.5
q5 0 8.5 -4.5t5.5 -10.5t3 -12t1 -9q0 -58 -36.5 -91.5t-93.5 -33.5q-56 0 -92 33t-36 90q0 10 2.5 24t16.5 14z" />
    <glyph glyph-name="ibreve" unicode="&#x12d;" horiz-adv-x="335" 
d="M40 358q0 8 7 11.5t14 5.5q35 8 70.5 20t67.5 29q4 2 7.5 4t8.5 2q14 0 14 -13q0 -11 -1.5 -21t-2.5 -21q-2 -24 -2 -48.5v-48.5v-138v-21t1.5 -26.5t5 -25.5t9.5 -18q4 -4 13.5 -7.5t19.5 -7.5t17 -9t7 -12q0 -19 -22 -19q-23 0 -45 3t-45 3q-29 0 -58.5 -3t-58.5 -3
q-8 0 -17.5 3.5t-9.5 13.5q0 7 7.5 12t17 9.5l19 9t14.5 10.5q4 6 6 17.5t3 25t1 26v19.5q0 42 0.5 82.5t-1.5 81.5q-1 19 -11.5 26t-23 10t-22.5 5.5t-10 12.5zM59 642q10 0 16.5 -14t17 -30.5t27.5 -30t48 -13.5q33 0 50.5 13.5t27 30t16 30.5t18.5 14q11 -5 14.5 -15.5
t3.5 -21.5q0 -58 -36.5 -91.5t-93.5 -33.5q-26 0 -49.5 8.5t-41 24t-28 37.5t-10.5 49q0 5 0.5 12.5t2 14t5.5 11.5t12 5z" />
    <glyph glyph-name="Iogonek" unicode="&#x12e;" horiz-adv-x="405" 
d="M12 685q0 13 13 15t22 2q35 0 70 -3t70 -3q32 0 64.5 3t64.5 3q8 0 14.5 -3.5t6.5 -13.5q0 -6 -5.5 -11.5t-13 -9.5t-15.5 -7.5t-12 -6.5q-19 -13 -23 -34.5t-4 -42.5v-422q0 -26 4 -55t27 -46l11 5v-11q6 -3 18.5 -6t26 -7t23.5 -8.5t10 -10.5q0 -11 -8 -14.5t-17 -3.5
q-23 0 -46 1.5t-46 2.5q-11 -11 -19 -24t-8 -30q0 -21 13.5 -31t33.5 -10q21 0 41.5 7.5t41.5 7.5q6 0 10.5 -3t4.5 -10q0 -5 -5.5 -10.5t-12.5 -10.5t-14.5 -9.5t-11.5 -6.5q-50 -27 -105 -27q-15 0 -30 4t-27.5 12t-20.5 20.5t-8 29.5q0 29 16 52.5t39 40.5h-2
q-31 0 -61.5 -3t-61.5 -3q-8 0 -14.5 3.5t-6.5 13.5q0 11 13.5 17.5t21.5 10.5q25 12 32 34t7 47l-1 426q0 18 -2 41t-11 39q-11 18 -29 25.5t-35 12t-30 8t-13 13.5z" />
    <glyph glyph-name="iogonek" unicode="&#x12f;" horiz-adv-x="296" 
d="M27 357q0 11 6.5 14.5t14.5 5.5q35 9 71 20t67 29q5 2 8.5 4t8.5 2q13 0 13 -13q0 -11 -1 -21.5t-3 -21.5q-3 -24 -3 -48.5v-48.5v-139q0 -9 0.5 -22t2 -26.5t5 -25t10.5 -17.5q5 -5 13.5 -8.5t17 -6.5t15.5 -7t10 -10v-4q0 -11 -6.5 -15t-16.5 -4q-27 0 -54 3t-55 3
q-12 -11 -20 -25t-8 -31q0 -20 12.5 -30.5t32.5 -10.5q22 0 42 7.5t42 7.5q6 0 10.5 -3t4.5 -10q0 -5 -5.5 -10.5t-12.5 -10.5t-14.5 -9.5t-11.5 -6.5q-50 -27 -105 -27q-15 0 -30 4t-27.5 12t-20.5 20.5t-8 29.5q0 27 14 49t34 39q-7 -1 -13.5 -1h-13.5q-8 0 -17 3.5
t-9 13.5q0 9 7 13t16.5 7.5t19 7.5t15.5 13q4 6 6 17.5t3 25t1 25.5v20q0 42 0.5 82.5t-1.5 82.5q-1 19 -11.5 26.5t-23 10.5t-22.5 5t-10 10zM79 586q0 6 9 20.5t21 28.5t24.5 25t19.5 11q6 0 18 -11t24 -25t21 -27.5t9 -19.5t-9.5 -20t-22.5 -27.5t-25.5 -24t-19.5 -10.5
q-6 0 -18 10t-23 23.5t-19.5 26.5t-8.5 20z" />
    <glyph glyph-name="Idotaccent" unicode="&#x130;" horiz-adv-x="394" 
d="M11 685q0 13 12.5 15t21.5 2q35 0 70.5 -3t70.5 -3q32 0 64 3t64 3q9 0 15.5 -3t6.5 -14q0 -6 -5.5 -11.5t-13.5 -9.5t-16 -7.5t-12 -6.5q-18 -12 -22.5 -32.5t-4.5 -40.5q0 -107 0.5 -213t0.5 -213q0 -17 2 -41.5t11 -39.5q11 -18 29 -26t35 -11.5t29.5 -7t12.5 -13.5
q0 -11 -8 -14.5t-17 -3.5q-39 0 -77.5 3t-77.5 3q-31 0 -62 -3t-62 -3q-20 0 -20 17q0 11 13.5 17.5t21.5 10.5q26 13 32 35.5t6 48.5v423q0 19 -2 41t-12 39q-11 18 -29 26t-35 12t-29.5 7.5t-12.5 13.5zM195 911q5 0 17.5 -9t25.5 -21t23 -24t10 -17t-9.5 -17t-22.5 -24
t-25 -21t-18 -9q-5 0 -17.5 9t-25.5 21t-22.5 23.5t-9.5 16.5q0 4 10 16t23 24.5t25 22t16 9.5z" />
    <glyph glyph-name="dotlessi" unicode="&#x131;" horiz-adv-x="304" 
d="M24 358q0 8 7 11.5t14 5.5q35 8 70.5 20t67.5 29q4 2 7.5 4t8.5 2q14 0 14 -13q0 -11 -1.5 -21t-2.5 -21q-2 -24 -2 -48.5v-48.5v-138v-21t1.5 -26.5t5 -25.5t9.5 -18q4 -4 13.5 -7.5t19.5 -7.5t17 -9t7 -12q0 -19 -22 -19q-23 0 -45 3t-45 3q-29 0 -58.5 -3t-58.5 -3
q-8 0 -17.5 3.5t-9.5 13.5q0 7 7.5 12t17 9.5l19 9t14.5 10.5q4 6 6 17.5t3 25t1 26v19.5q0 42 0.5 82.5t-1.5 81.5q-1 19 -11.5 26t-23 10t-22.5 5.5t-10 12.5z" />
    <glyph glyph-name="IJ" unicode="&#x132;" horiz-adv-x="795" 
d="M438 685q0 9 8 13t16 4q37 0 74 -3t74 -3q33 0 66 3t66 3q8 0 14.5 -3.5t6.5 -13.5q0 -7 -5.5 -11.5t-10.5 -7.5q-25 -15 -37.5 -26t-17 -23.5t-4 -29.5t0.5 -44v-441q0 -72 -25 -128.5t-79 -105.5q-21 -20 -48.5 -37t-57.5 -17q-9 0 -24 3t-29 9t-24.5 14.5t-10.5 20.5
q0 6 3 22.5t7.5 34t11 30.5t14.5 13q9 0 20 -11t23 -23.5t24.5 -23.5t23.5 -11q15 0 23.5 19.5t12 44.5t4 49.5t0.5 34.5v506q0 19 -2 41t-12 39q-11 18 -29 26t-35 12t-29.5 8t-12.5 13zM19 685q0 13 13 15t22 2q35 0 70 -3t70 -3q32 0 64 3t64 3q9 0 15.5 -3t6.5 -14
q0 -6 -5.5 -11.5t-13.5 -9.5t-16 -7.5t-12 -6.5q-18 -13 -22 -34.5t-4 -41.5v-423q0 -19 1.5 -41.5t11.5 -39.5q11 -18 29 -26t35.5 -11.5t30 -7t12.5 -13.5q0 -11 -8 -14.5t-17 -3.5q-39 0 -78.5 3t-78.5 3q-31 0 -61.5 -3t-61.5 -3q-8 0 -14.5 4t-6.5 13q0 6 4 10t10 7.5
t12 6t10 4.5q26 13 32 35.5t6 48.5v423q0 19 -2 41t-12 39q-11 18 -29 26t-35 12t-29.5 7.5t-12.5 13.5z" />
    <glyph glyph-name="ij" unicode="&#x133;" horiz-adv-x="498" 
d="M24 357q0 11 6 14.5t15 5.5q36 10 70 21t67 28l8 4t9 2q14 0 14 -13q0 -26 -3 -52t-3 -52v-175v-21t1.5 -26.5t5 -25.5t9.5 -18q5 -5 13.5 -8.5t17.5 -6.5t16 -7t10 -10v-4q0 -11 -6.5 -15t-16.5 -4q-23 0 -44.5 3t-44.5 3q-30 0 -59.5 -3t-59.5 -3q-8 0 -16.5 3.5
t-8.5 13.5q0 8 7 12.5t16.5 8t19 7.5t15.5 13q4 6 6 17.5t3 25t1 25.5v20q0 42 0.5 82.5t-1.5 82.5q-1 19 -11.5 26.5t-23 10.5t-22.5 5t-10 10zM76 586q0 6 9 20.5t21 28.5t24.5 25t19.5 11q6 0 18 -11t24 -25t21 -27.5t9 -19.5t-9.5 -19.5t-22 -27.5t-25.5 -24.5
t-19 -10.5q-7 0 -18.5 10t-23 23.5t-20 26.5t-8.5 20zM262 360q0 10 8 12.5t16 4.5q35 7 68.5 19.5t65.5 29.5l8 4t9 2q1 0 3 -1t3 -1q4 -2 5.5 -6.5t1.5 -9.5q0 -10 -1 -19t-3 -19q-4 -26 -3 -51.5t1 -51.5v-180q0 -78 -36 -140.5t-92 -113.5q-9 -9 -24.5 -15t-32.5 -10
t-33.5 -6t-29.5 -2q-29 0 -46.5 8t-17.5 41q0 7 0.5 19t3 24t8 20.5t15.5 8.5t18 -9t15 -20t15 -20t18 -9q34 0 55 10t32 27.5t14.5 42t3.5 54.5q0 76 -0.5 151t-0.5 151q0 18 -10.5 25t-23 10t-23 6.5t-10.5 13.5zM314 586q0 6 9 20.5t21 28.5t24 25t19 11q6 0 18.5 -10.5
t24.5 -25t21 -28t9 -19.5t-9.5 -20t-22.5 -27.5t-25.5 -24t-19.5 -10.5t-18.5 10t-23 23.5t-19.5 26.5t-8 20z" />
    <glyph glyph-name="Jcircumflex" unicode="&#x134;" horiz-adv-x="406" 
d="M62 685q0 9 8 13t16 4q37 0 74 -3t74 -3q33 0 66.5 3t66.5 3q8 0 14 -4t6 -13q0 -7 -5.5 -11.5t-10.5 -7.5q-26 -15 -38 -25.5t-16 -23t-3.5 -30t0.5 -44.5v-441q0 -72 -26 -128.5t-79 -105.5q-21 -20 -48.5 -37t-57.5 -17q-9 0 -24 3t-29 9t-24.5 14.5t-10.5 20.5
q0 6 3 22.5t7.5 34t11 30.5t14.5 13q9 0 20 -11t23 -23.5t24.5 -23.5t23.5 -11q15 0 23.5 19.5t12 44.5t4 49.5t0.5 34.5v506q0 19 -2 41t-12 39q-11 18 -29 26t-35 12t-29.5 7.5t-12.5 13.5zM131 758q-16 0 -16 17q0 5 9.5 21.5t22.5 36t24.5 36.5t16.5 23q9 11 20 19.5
t27 8.5q11 0 21 -2.5t18 -10.5q6 -6 20 -25t28.5 -40.5t25.5 -41t11 -25.5q0 -17 -16 -17q-5 0 -20 10t-32.5 23t-33 25t-20.5 17l-21 -17.5t-32 -25.5t-32 -22.5t-21 -9.5z" />
    <glyph glyph-name="jcircumflex" unicode="&#x135;" horiz-adv-x="337" 
d="M86 360q0 10 8.5 12.5t16.5 4.5q35 7 68.5 19.5t65.5 29.5l8 4t9 2q1 0 3 -1t3 -1q4 -2 5.5 -6.5t1.5 -9.5q0 -10 -1 -19t-3 -19q-4 -26 -3 -51.5t1 -51.5v-180q0 -39 -3.5 -72t-14 -63t-28.5 -57.5t-47 -54.5q-18 -17 -40 -31t-48 -14q-28 0 -46 8t-18 40q0 7 0.5 19
t3 24t8 21t15.5 9t17.5 -9t15 -20t15.5 -20t18 -9q14 0 22 13.5t11.5 31.5t4 36.5t0.5 27.5q0 84 -0.5 166t-0.5 166q0 18 -10.5 25t-23.5 10t-23.5 6.5t-10.5 13.5zM87 480q-16 0 -16 17q0 5 9.5 22t22.5 36t24.5 36t16.5 23q9 11 20 20t27 9q11 0 20.5 -3t17.5 -11
q6 -6 20 -25t29 -40.5t26 -40.5t11 -26q0 -17 -16 -17q-5 0 -20 10t-32.5 23t-33 25t-20.5 17q-7 -5 -22 -17.5t-31.5 -25.5t-31.5 -22.5t-21 -9.5z" />
    <glyph glyph-name="Kcommaaccent" unicode="&#x136;" horiz-adv-x="779" 
d="M19 687q0 9 8 12t15 3q40 0 79.5 -3t80.5 -3q28 0 55 3t54 3q8 0 14 -4t6 -13q0 -6 -6.5 -11.5t-15 -10.5t-17.5 -9t-13 -8q-15 -13 -18 -33.5t-3 -38.5q0 -15 -1 -49t-1 -70t1 -65.5t4 -36.5l6 -3q4 0 19.5 13t36 32t44.5 41.5t46 43.5t38.5 37.5l23.5 23.5q8 7 21 20
t26 27t22 28.5t9 25.5q0 13 -9.5 18t-21.5 7t-21.5 5t-9.5 14q0 10 6.5 13t14.5 3q28 0 56 -3t56 -3t55 3t55 3q8 0 15 -3t7 -12q0 -8 -13.5 -15t-20.5 -9q-12 -5 -24.5 -9t-23.5 -11q-67 -45 -123 -102t-115 -112q-5 -5 -10 -9t-5 -12q0 -5 16 -27.5t40.5 -55t54 -70
t56.5 -72t48 -60.5t28 -36q14 -18 30.5 -33.5t38.5 -23.5q6 -2 19 -7t13 -13q0 -9 -6.5 -12.5t-14.5 -3.5q-20 0 -39 3t-39 3q-17 0 -34 -3t-34 -3q-12 0 -23.5 9t-22 21t-19 25t-15.5 22l-177 234q-5 6 -10.5 11t-13.5 5l-19.5 -13t-19.5 -16t-14.5 -19t-5.5 -22v-99
q0 -21 3.5 -48t18.5 -44q7 -8 21.5 -13t28.5 -10t25 -10.5t11 -13.5q0 -19 -21 -19q-40 0 -80 3t-80 3q-29 0 -57.5 -3t-57.5 -3q-8 0 -12.5 5t-4.5 13q0 5 4 9.5t9.5 7.5t11.5 5.5t10 4.5q25 13 32 32.5t7 45.5l-1 429q0 16 -1 31.5t-5 29.5t-13.5 25t-25.5 19
q-6 3 -16.5 5.5t-20.5 6t-17.5 9.5t-7.5 15zM311 -309q0 4 9.5 12t21.5 20t21.5 29t9.5 39q0 17 -9 29t-20.5 21t-20.5 15.5t-9 14.5q0 6 10 18t23.5 24t26.5 21t19 9q14 0 26 -9.5t21 -23t14.5 -29t5.5 -27.5q0 -51 -26 -89.5t-68 -65.5q-3 -2 -8.5 -5t-11.5 -7t-11.5 -6.5
t-8.5 -2.5q-8 0 -11.5 2t-3.5 11z" />
    <glyph glyph-name="kcommaaccent" unicode="&#x137;" horiz-adv-x="576" 
d="M358 371q0 7 -7.5 10t-17 5.5t-17 6.5t-7.5 14q0 9 6.5 13t14.5 4q24 0 48.5 -3t48.5 -3q22 0 43 3t43 3q8 0 13.5 -4.5t5.5 -12.5q0 -13 -12 -19q-5 -2 -9.5 -3t-9.5 -2q-32 -7 -64 -22t-58 -34l-12 -9t-15.5 -12.5t-13.5 -13.5t-6 -12q0 -7 8.5 -22.5t22 -35.5t30 -42
t32 -42t28.5 -35.5t19 -22.5q12 -14 21.5 -21.5t19.5 -13t21.5 -9t27.5 -9.5q11 -4 11 -17q0 -8 -6 -12t-14 -4q-20 0 -38.5 3t-38.5 3q-16 0 -30.5 -3t-30.5 -3q-8 0 -22 13.5t-31 34.5t-36 46.5t-35.5 49.5t-29 43t-18.5 28l-38 -32v-63q0 -38 9 -53t21 -20.5t24 -8
t19 -15.5v-4q0 -11 -6.5 -15t-16.5 -4q-23 0 -44.5 3t-44.5 3q-31 0 -62 -3t-62 -3q-8 0 -14 4.5t-6 12.5t7 12.5t14 6.5q32 11 39.5 32t7.5 51q0 125 -0.5 249t-0.5 249q0 18 -10.5 25.5t-23 11t-23 5.5t-10.5 10q0 10 6 14t14 6q35 10 71 20.5t68 28.5q4 2 7.5 4t8.5 2
q8 0 11 -6t3 -13q0 -36 -3 -71.5t-3 -71.5v-341l94 76q5 4 15 11.5t19.5 16.5t17 17.5t7.5 14.5zM212 -309q0 4 9.5 12t21.5 20t21.5 29t9.5 39q0 17 -9 29t-20.5 21t-20.5 15.5t-9 14.5q0 6 10 18t23.5 24t26.5 21t19 9q14 0 26 -9.5t21 -23t14.5 -29t5.5 -27.5
q0 -51 -26 -89.5t-68 -65.5q-3 -2 -8.5 -5t-11.5 -7t-11.5 -6.5t-8.5 -2.5q-8 0 -11.5 2t-3.5 11z" />
    <glyph glyph-name="kgreenlandic" unicode="&#x138;" horiz-adv-x="622" 
d="M373 371q0 7 -7.5 10t-17 5.5t-17 6.5t-7.5 14q0 9 6.5 13t14.5 4q24 0 48.5 -3t48.5 -3q22 0 43 3t43 3q8 0 13.5 -4.5t5.5 -12.5q0 -13 -13 -19q-5 -2 -9 -3t-9 -2q-13 -3 -41 -14t-56.5 -26.5t-50 -32.5t-21.5 -30q0 -7 8.5 -22.5t22 -35.5t30 -42t32 -42t28.5 -35.5
t19 -22.5q12 -14 21.5 -21.5t19.5 -12.5t21.5 -9t27.5 -10q11 -4 11 -17q0 -9 -6.5 -12.5t-14.5 -3.5q-19 0 -38 3t-38 3q-16 0 -30.5 -3t-30.5 -3q-8 0 -22 13.5t-31.5 34.5t-36 46.5t-35 49.5t-29.5 43t-18 28l-39 -32v-60q0 -40 9.5 -55.5t21.5 -21t24.5 -8t18.5 -15.5
v-4q0 -11 -6.5 -15t-16.5 -4q-23 0 -44.5 3t-44.5 3q-31 0 -62 -3t-62 -3q-8 0 -14 4.5t-6 12.5t7 12.5t14 6.5q32 11 39.5 32t7.5 51q0 48 -0.5 96.5t-0.5 96.5q0 18 -10.5 25.5t-23 11t-23 5.5t-10.5 10q0 11 6.5 14.5t14.5 5.5q35 10 70.5 20.5t67.5 28.5q4 2 7.5 4
t8.5 2q8 0 11 -5.5t3 -12.5q0 -34 -3.5 -69t-3.5 -71v-40l95 76q5 4 15 11.5t19.5 16.5t17 17.5t7.5 14.5z" />
    <glyph glyph-name="Lacute" unicode="&#x139;" horiz-adv-x="662" 
d="M138 546q0 17 -2 41t-11 39q-11 17 -29 25t-35 12.5t-30 8.5t-13 13t8 13t16 4q38 0 74.5 -3t74.5 -3q33 0 65.5 3t65.5 3q8 0 14.5 -3.5t6.5 -12.5q0 -12 -13.5 -18t-22.5 -11q-26 -14 -31.5 -39.5t-5.5 -51.5q0 -112 0.5 -224t0.5 -225q0 -38 13 -52.5t53 -14.5
q54 0 108.5 10.5t99.5 42.5q20 15 35.5 33t32.5 37q5 7 12 7q9 0 13.5 -7t4.5 -15q0 -34 -14 -63t-35 -54q-24 -28 -54 -37.5t-65 -9.5q-47 0 -93 3t-93 3q-51 0 -101.5 -3t-101.5 -3q-7 0 -14.5 4t-7.5 12q0 9 7.5 13t18 9t22 13.5t18.5 25.5q3 7 4.5 20.5t2.5 27.5t1 27.5
v22.5v377zM386 923q20 0 33.5 -16t13.5 -35q0 -14 -10 -24t-21 -15t-35.5 -17t-52 -24.5t-51 -22t-31.5 -9.5q-7 0 -10.5 5t-3.5 11t18 24.5t40.5 39.5t44 40t27.5 25q8 8 17.5 13t20.5 5z" />
    <glyph glyph-name="lacute" unicode="&#x13a;" horiz-adv-x="295" 
d="M84 596q0 29 -10.5 38.5t-23 12.5t-23 5t-10.5 15q0 8 6.5 11t13.5 5q35 8 71 19.5t67 29.5q4 2 7 4t8 2q9 0 12 -5t3 -13q0 -36 -3 -72t-3 -72l1 -487q0 -26 11 -36.5t24.5 -15.5t25 -8.5t11.5 -15.5q0 -11 -5.5 -15t-16.5 -4q-23 0 -45 3t-45 3q-30 0 -59.5 -3
t-59.5 -3q-8 0 -16 4t-8 13q0 8 7 12t16 8t18.5 8t15.5 12q8 11 9 28.5t1 30.5v486zM212 901q20 0 33.5 -16t13.5 -35q0 -14 -10 -23.5t-21 -14.5t-35.5 -17t-51 -24.5t-50 -22t-32.5 -9.5q-15 0 -15 16q0 6 18 24.5t40.5 39.5t44 40t27.5 25q8 8 17.5 12.5t20.5 4.5z" />
    <glyph glyph-name="Lcommaaccent" unicode="&#x13b;" horiz-adv-x="644" 
d="M135 546q0 17 -2 41t-11 39q-10 17 -28 25t-35 12.5t-30 8.5t-13 13t8 13t16 4q37 0 74 -3t74 -3q33 0 65.5 3t65.5 3q8 0 14.5 -3t6.5 -13q0 -12 -13.5 -18.5t-21.5 -10.5q-26 -14 -32 -39t-6 -52q0 -113 0.5 -224.5t0.5 -224.5q0 -39 13.5 -53t53.5 -14
q54 0 108.5 10.5t99.5 42.5q20 14 35.5 32.5t31.5 37.5q3 3 5.5 5t7.5 2q9 0 13.5 -7t4.5 -15q0 -33 -14 -62.5t-35 -54.5q-23 -28 -53.5 -37.5t-65.5 -9.5q-47 0 -93 3t-93 3q-51 0 -102 -3t-102 -3q-7 0 -14 4t-7 12q0 9 8 13t18.5 9.5t21.5 13.5t18 25q3 6 4 19.5t2 28
t1 28.5v22v377zM249 -309q0 4 9.5 12t21.5 20t21.5 29t9.5 39q0 17 -9 29t-20 21t-20 15.5t-9 14.5q0 6 10 18t23 24t26 21t19 9q14 0 26 -9.5t21 -23t14.5 -29t5.5 -27.5q0 -51 -25.5 -89.5t-67.5 -65.5q-2 -2 -8 -5t-12 -7t-12 -6.5t-8 -2.5q-8 0 -12 2t-4 11z" />
    <glyph glyph-name="lcommaaccent" unicode="&#x13c;" horiz-adv-x="283" 
d="M15 667q0 8 6.5 11t13.5 5q35 8 71 19.5t68 29.5q8 6 14 6q16 0 16 -18q0 -36 -3.5 -72t-3.5 -72l1 -487q0 -26 11.5 -36.5t25 -15.5t25 -8.5t11.5 -15.5q0 -19 -22 -19q-23 0 -45.5 3t-45.5 3q-29 0 -59 -3t-59 -3q-8 0 -16.5 4t-8.5 13q0 8 7 12.5t16 7.5t18.5 7.5
t15.5 12.5q8 11 9.5 31.5t1.5 34.5v462q0 9 -0.5 23t-2.5 22q-4 12 -14.5 16.5t-22 7t-20 6t-8.5 13.5zM62 -309q0 4 10 12t21.5 20t21.5 29t10 39q0 17 -9 29t-20.5 21t-20.5 15.5t-9 14.5q0 6 10 18t23.5 24t26.5 21t19 9q14 0 26 -9.5t21 -23t14.5 -29t5.5 -27.5
q0 -51 -26 -90t-68 -65q-2 -2 -8 -5t-12 -7t-12 -6.5t-8 -2.5q-8 0 -12 2t-4 11z" />
    <glyph glyph-name="Lcaron" unicode="&#x13d;" horiz-adv-x="687" 
d="M151 546q0 17 -2 41t-11 39q-11 17 -29 25t-35 12.5t-30 8.5t-13 13q0 10 8.5 13.5t16.5 3.5q37 0 74 -3t74 -3q33 0 65.5 3t65.5 3q8 0 14.5 -3t6.5 -13q0 -12 -13.5 -18t-22.5 -11q-26 -14 -31.5 -39.5t-5.5 -51.5q0 -112 0.5 -224t0.5 -225q0 -39 13.5 -53t53.5 -14
q53 0 108.5 10.5t99.5 42.5q20 14 35.5 32.5t31.5 37.5q3 3 5.5 5t7.5 2q9 0 13 -7t4 -15q0 -35 -13.5 -63t-35.5 -54q-23 -28 -53 -37.5t-65 -9.5q-47 0 -93.5 3t-93.5 3q-51 0 -101 -3t-101 -3q-8 0 -15 3.5t-7 12.5t8 13t18.5 9.5t21.5 13.5t18 25q3 6 4 19.5t2 28
t1 28.5v22v377zM417 426q0 5 9.5 13t21.5 20.5t21.5 30.5t9.5 42q0 16 -9 29t-20 23t-20 18t-9 14t10 18.5t23 25.5t26 22.5t19 9.5q16 0 28 -11t20 -26.5t12.5 -32.5t4.5 -30q0 -23 -7.5 -45.5t-20 -43.5t-29.5 -38.5t-35 -29.5q-3 -2 -8.5 -5.5t-11.5 -7.5t-11 -6.5
t-8 -2.5q-16 0 -16 13z" />
    <glyph glyph-name="lcaron" unicode="&#x13e;" horiz-adv-x="432" 
d="M30 667q0 8 7 11t14 5q35 8 70.5 19.5t67.5 29.5q4 2 7 4t8 2q8 0 11.5 -5t3.5 -13q0 -36 -3 -72t-3 -72l1 -487q0 -26 11 -36.5t24.5 -15.5t25 -8.5t11.5 -15.5q0 -19 -21 -19q-23 0 -46 3t-46 3q-29 0 -59 -3t-59 -3q-8 0 -16.5 4t-8.5 13q0 8 7 12.5t16.5 8t19 7.5
t15.5 12q8 11 9.5 31.5t1.5 34.5v462q0 11 -0.5 23t-3.5 22q-4 12 -14.5 16.5t-22 7t-20 6t-8.5 13.5zM276 502q0 4 9 11.5t20 18.5t20 26.5t9 36.5q0 14 -8.5 25t-19 20t-19 15.5t-8.5 12.5t9.5 17t21.5 22t24 19.5t18 8.5q14 0 25.5 -9t19.5 -22t12.5 -28.5t4.5 -27.5
q0 -20 -7.5 -40.5t-19.5 -38.5t-27.5 -33.5t-32.5 -25.5q-6 -4 -18.5 -11.5t-18.5 -7.5q-14 0 -14 11z" />
    <glyph glyph-name="Ldot" unicode="&#x13f;" horiz-adv-x="669" 
d="M151 546q0 17 -2 41t-11 39q-11 17 -29 25t-35 12.5t-30 8.5t-13 13q0 10 8.5 13.5t16.5 3.5q37 0 74 -3t74 -3q33 0 65.5 3t65.5 3q8 0 14.5 -3t6.5 -13q0 -12 -13.5 -18t-22.5 -11q-26 -14 -31.5 -39.5t-5.5 -51.5q0 -112 0.5 -224t0.5 -225q0 -39 13.5 -53t53.5 -14
q53 0 108.5 10.5t99.5 42.5q20 14 35.5 32.5t31.5 37.5q3 3 5.5 5t7.5 2q9 0 13 -7t4 -15q0 -35 -13.5 -63t-35.5 -54q-23 -28 -53 -37.5t-65 -9.5q-47 0 -93.5 3t-93.5 3q-51 0 -101 -3t-101 -3q-8 0 -15 3.5t-7 12.5t8 13t18.5 9.5t21.5 13.5t18 25q3 6 4 19.5t2 28
t1 28.5v22v377zM429 465q5 0 17.5 -9.5t25.5 -21.5t23 -23.5t10 -16.5t-9.5 -17t-22 -24t-25 -21t-18.5 -9t-18.5 9t-25 21t-22.5 23.5t-10 16.5q0 4 10 15.5t23 24t25.5 22.5t16.5 10z" />
    <glyph glyph-name="ldot" unicode="&#x140;" horiz-adv-x="404" 
d="M98 593q0 31 -10.5 41t-23.5 13t-23.5 4.5t-10.5 15.5q0 8 7 11t14 5q35 8 71 19.5t67 29.5q4 2 7 4t8 2q8 0 11.5 -5t3.5 -13q0 -36 -3 -72t-3 -72l1 -487q0 -26 11 -36.5t24.5 -15.5t25 -8.5t11.5 -15.5q0 -19 -21 -19q-23 0 -46 3t-46 3q-29 0 -59 -3t-59 -3
q-8 0 -16.5 4t-8.5 13q0 8 6.5 12t16 7.5t19 8t15.5 12.5q8 11 9.5 28.5t1.5 31.5v482zM251 378q0 6 9 20t21.5 28.5t25 25t19.5 10.5t19 -10.5t24 -25t20.5 -28t8.5 -19.5t-9.5 -19.5t-22.5 -27t-25.5 -24t-19.5 -10.5t-18.5 10t-23 23.5t-20 26.5t-8.5 20z" />
    <glyph glyph-name="Lslash" unicode="&#x141;" horiz-adv-x="693" 
d="M375 50q54 0 108 10.5t99 42.5q21 14 35 32.5t31 36.5q5 7 13 7q10 0 14 -7t4 -15q0 -32 -14.5 -61.5t-34.5 -54.5q-23 -27 -53 -37t-65 -10q-45 0 -90 3t-90 3q-51 0 -100.5 -3t-100.5 -3q-8 0 -18 2.5t-10 13.5q0 8 7.5 12t17.5 9.5t21 14t19 25.5q3 7 4.5 20t2.5 27
t1 28v22v149q-7 -4 -27 -17t-42 -26.5t-40.5 -24t-22.5 -10.5q-8 0 -9.5 7.5t-1.5 12.5q0 11 1.5 25t12.5 21l129 79v160q0 8 -0.5 19t-2 22t-4 21.5t-6.5 17.5q-10 17 -27.5 25t-35 12.5t-30.5 8t-13 12.5t8 13t16 4q37 0 73.5 -3t73.5 -3q33 0 65.5 3t65.5 3
q8 0 14.5 -3.5t6.5 -12.5q0 -12 -13.5 -18.5t-21.5 -10.5q-26 -14 -32 -39t-6 -51v-101q6 4 25.5 16t41.5 25t40 23t21 10q10 0 13 -6.5t3 -14.5q0 -17 -2 -26t-18 -19l-124 -75l1 -279q0 -39 13.5 -53t53.5 -14z" />
    <glyph glyph-name="lslash" unicode="&#x142;" horiz-adv-x="341" 
d="M114 575q0 11 -0.5 23t-3.5 23q-4 13 -14.5 17.5t-22 7t-20 5.5t-8.5 14q0 7 7.5 10l12.5 5q35 9 71 19.5t68 29.5q4 2 7.5 4t8.5 2q8 0 11 -6t3 -12q0 -36 -3 -72.5t-3 -72.5v-94q5 3 15.5 9.5t22.5 13t22.5 11.5t15.5 5q9 0 11.5 -6.5t2.5 -13.5q0 -17 -2.5 -26.5
t-18.5 -17.5l-69 -37l1 -328q0 -25 11 -35.5t24.5 -15.5t25 -9t11.5 -15q0 -19 -22 -19q-23 0 -46 3t-46 3q-29 0 -58.5 -3t-58.5 -3q-8 0 -16.5 3.5t-8.5 13.5q0 12 11 15t24 9t24 20t11 47q0 63 -0.5 125t-0.5 125q-6 -3 -17 -9.5t-23 -13.5t-23 -12t-16 -5q-2 0 -2.5 0.5
t-2.5 0.5q-8 5 -8 12.5v15.5q0 10 3 18.5t13 13.5l76 42v160z" />
    <glyph glyph-name="Nacute" unicode="&#x143;" horiz-adv-x="889" 
d="M142 532q0 27 -8 53t-28 46q-10 9 -18.5 14.5t-17.5 9.5t-18.5 7t-21.5 7q-6 2 -7.5 5.5t-1.5 9.5q0 12 10 15t19 3q17 0 34.5 -3.5t35.5 -3.5q21 0 42 3.5t42 3.5q14 0 25 -7t21 -16.5t18.5 -20.5t17.5 -20l390 -401q5 -5 14 -13t17 -8q4 0 6.5 9t3.5 21t1 23v14v210
q0 26 -1 53t-9 52q-9 31 -30 44t-42 18.5t-37 9t-16 15.5q0 11 8 14t17 3q26 0 51 -3t51 -3q31 0 62 3t62 3q8 0 19.5 -2t11.5 -13t-11 -15.5t-25 -11t-29 -20.5t-22 -43q-6 -23 -6.5 -48t-0.5 -49v-483q0 -8 -4 -19t-14 -11q-11 0 -19.5 10.5t-15.5 17.5l-512 516l-3 -1
q-3 -3 -5 -10.5t-3 -15.5t-1 -16v-12q0 -28 -1 -74t-1 -96.5t2 -99.5t8 -83q8 -45 33.5 -65t68.5 -28q8 -2 16.5 -5t8.5 -13q0 -12 -9 -15t-18 -3q-35 0 -71 3t-71 3q-23 0 -45 -3t-45 -3q-8 0 -15.5 2t-7.5 12q0 11 9.5 15t17.5 7q32 13 44 41.5t16 59.5q4 35 6 69t2 69
v263zM511 923q20 0 34 -16t14 -35q0 -14 -10.5 -24t-21.5 -15q-10 -5 -35 -17t-52 -24.5t-50.5 -22t-31.5 -9.5q-15 0 -15 16q0 6 18 24.5t41 40t44.5 40t27.5 24.5q8 8 17 13t20 5z" />
    <glyph glyph-name="nacute" unicode="&#x144;" horiz-adv-x="598" 
d="M348 432q46 0 75 -17t46 -45t24.5 -64t9.5 -74t0.5 -75.5t-1.5 -67.5q0 -27 11.5 -37.5t25 -15.5t25 -9t11.5 -16q0 -9 -6.5 -13t-14.5 -4q-22 0 -43 3t-43 3q-28 0 -55.5 -3t-55.5 -3q-8 0 -15.5 3t-7.5 13t7 13.5t16 8.5t17.5 15t11.5 31q2 15 2 30v30v68q0 24 -4 51.5
t-15 50.5t-30 38t-50 15q-15 0 -30.5 -5t-28 -14.5t-20 -23t-7.5 -30.5l1 -193q0 -18 6 -28t16 -16t22.5 -10t24.5 -11q3 -4 3 -14q0 -22 -22 -22q-23 0 -44.5 3t-44.5 3q-30 0 -60 -3t-60 -3q-8 0 -16 3.5t-8 12.5q0 12 11 16t23.5 10t23.5 20t11 48q0 42 -0.5 84t-0.5 84
v23t-4 22q-5 13 -15.5 18t-21 7t-19 5t-8.5 14q0 8 6.5 11t13.5 5q37 9 72 21t69 29q8 4 12 5l5 -2l3 -4q2 -15 1.5 -30t-0.5 -30q32 27 66.5 46.5t78.5 19.5zM355 645q20 0 34 -16t14 -35q0 -14 -10 -23.5t-21 -14.5t-36 -17.5t-52 -25t-50 -22t-32 -9.5q-8 0 -11.5 5
t-3.5 12q0 6 18 24.5t41 39.5t44.5 39.5t27.5 24.5q8 8 17 13t20 5z" />
    <glyph glyph-name="Ncommaaccent" unicode="&#x145;" horiz-adv-x="883" 
d="M139 532q0 27 -8 53t-28 46q-20 19 -36 24t-40 14q-5 2 -6.5 6t-1.5 9q0 12 9 15t19 3q17 0 34.5 -3.5t35.5 -3.5q21 0 42 3.5t42 3.5q14 0 25 -7t21 -16.5t18.5 -20.5t17.5 -20l390 -401q5 -5 14 -13t17 -8q4 0 6.5 9t3.5 21t1 23v14v217q0 23 -1 49t-8 49
q-9 31 -29.5 44t-42 18.5t-37.5 9t-16 15.5q0 11 7.5 14t16.5 3q26 0 51 -3t51 -3q32 0 62.5 3t62.5 3q8 0 19 -2t11 -13t-11 -15.5t-25 -11t-29 -20.5t-22 -43q-6 -23 -6.5 -48t-0.5 -49v-483q0 -8 -4 -19t-14 -11q-11 0 -19.5 10.5t-15.5 17.5l-512 516l-3 -1
q-3 -3 -5 -10.5t-3 -15.5t-1 -16v-12q0 -31 -1 -76.5t-1 -95t2 -97.5t8 -84q8 -45 33 -65.5t68 -27.5q8 -2 17 -5t9 -13q0 -12 -9 -15t-18 -3q-35 0 -71 3t-71 3q-23 0 -45 -3t-45 -3q-8 0 -16 2t-8 12q0 11 10 15t18 7q31 13 43.5 42t16.5 59q4 35 6 69t2 69v263zM374 -309
q0 4 9.5 12t21.5 20t21.5 29t9.5 39q0 17 -9 29t-20 21t-20 15.5t-9 14.5q0 6 10 18t23.5 24t26.5 21t19 9q14 0 26 -9.5t21 -23t14 -29t5 -27.5q0 -51 -25.5 -89.5t-67.5 -65.5q-2 -2 -8 -5t-12 -7t-12 -6.5t-8 -2.5q-8 0 -12 2t-4 11z" />
    <glyph glyph-name="ncommaaccent" unicode="&#x146;" horiz-adv-x="589" 
d="M347 432q46 0 75 -17t46 -45t24.5 -64t9.5 -74t0.5 -75.5t-1.5 -67.5q0 -27 11.5 -37.5t25 -15.5t25 -9t11.5 -16q0 -9 -6.5 -13t-14.5 -4q-22 0 -43.5 3t-43.5 3q-28 0 -55 -3t-55 -3q-8 0 -15.5 3t-7.5 13t7 13.5t15.5 8.5t17 14.5t11.5 31.5q2 15 2.5 30t0.5 30v68
q0 24 -4 51.5t-15 50.5t-30 38t-50 15q-15 0 -30.5 -5t-28 -14.5t-20 -23t-7.5 -30.5l1 -193q0 -18 6 -28t16 -16t22.5 -10t24.5 -11q3 -4 3 -14q0 -22 -22 -22q-23 0 -44.5 3t-44.5 3q-30 0 -60 -3t-60 -3q-8 0 -16 3.5t-8 12.5q0 12 11 16t23.5 10t23.5 20t11 48
q0 42 -0.5 84t-0.5 84v23t-4 22q-5 13 -15.5 18t-21 7t-19 5t-8.5 14q0 8 6.5 11t13.5 5q37 9 72 21t69 29q8 4 12 5l5 -2l3 -4q2 -15 1.5 -30t-0.5 -30q32 27 66.5 46.5t78.5 19.5zM220 -309q0 4 9.5 12t21.5 20t21.5 29t9.5 39q0 17 -9 29t-20 21t-20 15.5t-9 14.5
q0 6 10 18t23 24t26 21t19 9q14 0 26 -9.5t21 -23t14.5 -29t5.5 -27.5q0 -52 -26 -89.5t-68 -65.5q-3 -2 -8.5 -5.5t-11.5 -7t-11.5 -6t-8.5 -2.5q-8 0 -11.5 2t-3.5 11z" />
    <glyph glyph-name="Ncaron" unicode="&#x147;" horiz-adv-x="892" 
d="M143 532q0 27 -7.5 53t-27.5 46q-10 9 -18.5 14.5t-17.5 9.5t-18.5 7t-21.5 7q-6 2 -7.5 5.5t-1.5 9.5q0 12 9.5 15t19.5 3q17 0 34.5 -3.5t35.5 -3.5q21 0 42 3.5t42 3.5q14 0 25.5 -7t21 -16.5t17.5 -20.5t17 -20l391 -401q5 -5 13.5 -13t16.5 -8q4 0 6.5 9t3.5 21
t1 23v14v239q0 18 -2 38.5t-7 37.5q-9 31 -30 44t-42 18.5t-37 9t-16 15.5q0 11 7.5 14t16.5 3q26 0 51.5 -3t51.5 -3q31 0 62 3t62 3q8 0 19.5 -2t11.5 -13t-10.5 -15.5t-25 -11t-29 -20t-22.5 -43.5q-6 -24 -7 -48.5t-1 -48.5v-483q0 -8 -3.5 -19t-13.5 -11t-19.5 10.5
t-16.5 17.5l-511 516l-4 -1q-3 -3 -4.5 -10t-2.5 -15t-1 -16v-12v-234q0 -31 1.5 -60.5t6.5 -59.5q8 -45 32.5 -65t68.5 -28q8 -2 16.5 -5t8.5 -13q0 -11 -8.5 -14.5t-17.5 -3.5q-35 0 -71 3t-71 3q-23 0 -45.5 -3t-45.5 -3q-8 0 -15.5 2t-7.5 12q0 11 10 15t18 7
q15 6 26 17t17.5 25t10.5 29t6 30q4 35 5.5 69t1.5 69v263zM560 920q15 0 15 -16q0 -7 -9.5 -23t-21.5 -34.5t-24 -35.5t-17 -24q-8 -12 -19.5 -20.5t-27.5 -8.5q-11 0 -21 3t-18 11q-5 5 -19 24.5t-29 41t-26.5 41t-11.5 24.5q0 17 16 17q6 0 21 -9.5t31.5 -22.5t31.5 -25
t22 -17q7 5 22 17.5t32 25t32 22t21 9.5z" />
    <glyph glyph-name="ncaron" unicode="&#x148;" horiz-adv-x="605" 
d="M354 432q46 0 75.5 -17t46.5 -44.5t24 -63.5t9 -74.5t0.5 -75.5t-1.5 -68q0 -27 11.5 -37.5t25.5 -15.5t25.5 -9t11.5 -16q0 -9 -6.5 -13t-14.5 -4q-22 0 -43.5 3t-43.5 3q-28 0 -55.5 -3t-55.5 -3q-8 0 -15.5 3t-7.5 13t7 13.5t16 8.5t17.5 15t11.5 31q2 15 2 30v30v68
q0 24 -4 51.5t-15 50.5t-30 38t-50 15q-15 0 -30.5 -5t-28 -14.5t-20 -23t-7.5 -30.5q0 -48 0.5 -96.5t0.5 -96.5q0 -19 6 -28.5t16 -15.5t22.5 -10t24.5 -11q3 -4 3 -14q0 -22 -22 -22q-23 0 -44.5 3t-44.5 3q-30 0 -60 -3t-60 -3q-8 0 -16.5 3.5t-8.5 12.5q0 12 11 16
t24 10t24 20t11 48q0 42 -0.5 84t-0.5 84q0 10 -0.5 23t-2.5 22q-4 13 -14.5 17.5t-22 7t-20.5 5.5t-9 14q0 8 7 11t14 5q38 9 72.5 21t68.5 29q8 4 12 5l6 -2l2 -4q2 -15 1.5 -30t-0.5 -30q32 27 66.5 46.5t78.5 19.5zM408 643q16 0 16 -17q0 -6 -9.5 -22.5t-21.5 -35
t-24 -35.5t-17 -24q-8 -11 -20 -20t-27 -9q-11 0 -21.5 3t-18.5 11q-5 5 -19 24t-29 41.5t-26.5 41.5t-11.5 24q0 8 4.5 13t12.5 5q6 0 21 -10t31.5 -22.5t31.5 -25l21 -17.5q7 5 22 17.5t32 25t32 22.5t21 10z" />
    <glyph glyph-name="napostrophe" unicode="&#x149;" horiz-adv-x="606" 
d="M369 432q46 0 75 -17t46 -45t24 -64t9 -74t0.5 -75.5t-1.5 -67.5q0 -27 11.5 -37.5t25.5 -15.5t25.5 -9t11.5 -16q0 -9 -6.5 -13t-14.5 -4q-22 0 -43.5 3t-43.5 3q-28 0 -55.5 -3t-55.5 -3q-8 0 -15.5 3t-7.5 13t7 13.5t16 8.5t17.5 14.5t11.5 31.5q2 9 2 18v18
q0 28 1 70t-6.5 81.5t-28.5 67.5t-65 28q-15 0 -30.5 -5t-27.5 -14.5t-19.5 -23t-7.5 -30.5q0 -48 0.5 -96.5t0.5 -96.5q0 -19 6 -28.5t15.5 -15.5t22 -10t25.5 -11q3 -6 3 -14q0 -22 -23 -22q-22 0 -44 3t-44 3q-30 0 -60.5 -3t-60.5 -3q-8 0 -16 3.5t-8 12.5q0 12 11 16
t23.5 10t23.5 20t11 48q0 42 -0.5 84t-0.5 84v22.5t-3 22.5q-4 13 -14.5 17.5t-22 7t-20 5.5t-8.5 14q0 9 7 11.5t14 4.5q36 8 72.5 20t68.5 30q3 2 5.5 3t5.5 2l6 -2l3 -4q2 -15 1.5 -30t-0.5 -30q32 28 66 47t79 19zM48 417q0 4 9.5 12t21.5 20t21.5 28.5t9.5 38.5
q0 17 -9 29t-20.5 21t-20.5 15.5t-9 14.5q0 6 10 18t23 24t26.5 21t19.5 9q14 0 26 -9.5t21 -23t14.5 -29t5.5 -27.5q0 -53 -26 -89t-68 -65q-3 -2 -8.5 -5.5t-11.5 -7t-11.5 -6t-8.5 -2.5q-8 0 -11.5 2t-3.5 11z" />
    <glyph glyph-name="Omacron" unicode="&#x14c;" horiz-adv-x="800" 
d="M26 327q0 88 28 159t79.5 120.5t123.5 76t159 26.5q73 0 138.5 -23.5t114 -67t77 -105.5t28.5 -138q0 -88 -28 -159.5t-79 -122.5t-123 -78.5t-159 -27.5q-77 0 -143 23t-114 67t-75 107t-27 143zM158 384q0 -59 12.5 -120.5t41.5 -111.5t76.5 -82.5t117.5 -32.5
q63 0 107.5 24.5t73.5 65.5t42.5 93.5t13.5 108.5q0 59 -16 118t-49 106t-82.5 76.5t-116.5 29.5q-63 0 -105.5 -22.5t-68 -60t-36.5 -87.5t-11 -105zM234 869h332v-73h-332v73z" />
    <glyph glyph-name="omacron" unicode="&#x14d;" horiz-adv-x="529" 
d="M29 205q0 51 19 92.5t51.5 71.5t76 46.5t92.5 16.5q47 0 89.5 -15.5t74 -43.5t50 -68t18.5 -89q0 -51 -19.5 -93.5t-52.5 -72.5t-77 -46.5t-94 -16.5q-48 0 -89.5 15.5t-72.5 44t-48.5 69t-17.5 89.5zM144 260q0 -29 6.5 -69t22.5 -76t41.5 -61t63.5 -25q56 0 82 35
t26 87q0 31 -6.5 72.5t-22.5 78.5t-42.5 62.5t-66.5 25.5q-30 0 -50 -10.5t-32 -28.5t-17 -41.5t-5 -49.5zM99 591h332v-73h-332v73z" />
    <glyph glyph-name="Obreve" unicode="&#x14e;" horiz-adv-x="803" 
d="M28 327q0 88 28 159t79.5 120.5t123.5 76t159 26.5q74 0 139 -23.5t114 -67t77 -105.5t28 -138q0 -88 -28 -159.5t-79 -122.5t-123 -78.5t-159 -27.5q-77 0 -143 23t-114 67t-75 107t-27 143zM160 384q0 -59 12.5 -120.5t41.5 -111.5t76.5 -82.5t117.5 -32.5
q63 0 107.5 24.5t73.5 65.5t42.5 93.5t13.5 108.5q0 59 -16 118t-49 106t-82.5 76.5t-116.5 29.5q-63 0 -105.5 -22t-68 -60t-36.5 -88t-11 -105zM294 919q10 0 16.5 -13.5t17 -30t27.5 -30t48 -13.5q33 0 50.5 13.5t27 30t16 30t18.5 13.5q5 0 8.5 -4.5t5.5 -10.5t3 -12
t1 -9q0 -58 -36.5 -91.5t-93.5 -33.5q-26 0 -49.5 8.5t-41 24t-28 37.5t-10.5 49q0 5 0.5 12.5t2 14t5.5 11t12 4.5z" />
    <glyph glyph-name="obreve" unicode="&#x14f;" horiz-adv-x="530" 
d="M30 205q0 51 19 92.5t51.5 71.5t76 46.5t92.5 16.5q47 0 89 -15.5t73.5 -43.5t50 -68t18.5 -89q0 -51 -19 -93.5t-52 -72.5t-77 -46.5t-94 -16.5q-48 0 -89.5 15.5t-72.5 44t-48.5 69t-17.5 89.5zM144 260q0 -29 7 -69t22.5 -76t41.5 -61t64 -25q56 0 81.5 35t25.5 87
q0 31 -6.5 72.5t-22.5 78.5t-42.5 62.5t-66.5 25.5q-30 0 -50 -10.5t-32 -28.5t-17 -41.5t-5 -49.5zM157 642q10 0 17 -14t17 -30.5t27 -30t48 -13.5q33 0 50.5 13.5t27 30t16 30.5t18.5 14q11 -5 14.5 -15.5t3.5 -21.5q0 -58 -36.5 -91.5t-93.5 -33.5q-26 0 -49.5 8.5
t-41 24t-28 37.5t-10.5 49q0 5 0.5 12.5t2 14t5.5 11.5t12 5z" />
    </font>
</defs>
</svg>
