<svg xmlns="http://www.w3.org/2000/svg" viewBox="0 0 788.93798 284.31299" height="284.313" width="788.938"><path d="M110.475 281l-4.266-9.48-54.484-121.599-1.119-2.493-2.476 1.143-1.653.76-9.7 4.762c-1.43-2.4-3.806-6.419-5.456-9.207L9.39 107.824l-5.736-9.676 9.488-6.011c8.975-5.724 19.11-11.012 30.136-15.72 21.954-9.352 44.363-14.298 64.797-14.298 6.722 0 13.226.543 19.336 1.606 10.186 1.161 19.606 4.504 27.387 9.687 11.596 6.484 20.725 16.543 25.882 28.442 4.234 9.779 5.059 21.232 2.37 33.114l-1.58 6.98 5.798-4.205a67.192 67.192 0 0 1 12.617-7.202c7.72-3.263 15.705-4.928 23.706-4.928 7.574 0 14.734 1.5 21.286 4.447l4.225 1.894-.424-4.61-1.838-19.924-.297-3.159-3.076.799-9.23 2.393-1.618-33.925 67.612-21.6-.546 26.365 5.091 1.306 14.767-28.298 44.226 39.224 1.844 1.641 1.799-1.692c6.06-5.694 13.24-10.263 21.342-13.58l3.385-1.383-2.319-2.829-7.974-9.72 50.775-58.527 26.592 39.678-40.705 21.88-9.04 4.863 10.263.217c19.297.407 36.386 8.57 48.11 22.984l4.239 5.229 2.731 3.357-4.536 4.816-3.025 3.212-10.172 10.848-1.89 2.016 2.045 1.846 9.533 8.583 3.687 3.316.79-4.892 3.657-22.643.935-5.813.03.032.962-5.937 5.46-33.429h51.027l.386-2.253.953-5.724h43.894l10.634 67.157.692 4.35 3.562-2.586a61.396 61.396 0 0 1 14.15-7.648c6.766-2.553 13.73-3.857 20.683-3.857 8.277 0 16.314 1.912 23.264 5.525.184.134.445.306.801.449l3.299 1.324.389-3.539.795-7.318.262-2.399-2.36-.525-8.901-1.99-.434-35.008 67.858 14.936 5.098 25.19 5.27.105 5.257-21.679 56.585 13.76-57.826 174.278-41.379-12.994-.294-16.052-.041-2.301-2.283-.32-41.29-5.829 2.336-20.986.555-4.994-4.468 2.29c-2.117 1.077-4.165 1.983-6.1 2.695-6.752 2.553-13.666 3.845-20.55 3.845a53.15 53.15 0 0 1-5.941-.33l-3.527-.395.552 3.503 2.906 18.457-60.24-10.625-3.156-27.39-1.015-8.779-4.058 7.847-6.935 13.374-12.77-23.572-3.838-7.08-1.211 7.956-2.782 18.246-52.797-8.31 4.094-25.042.935-5.741-4.99 2.983c-8.643 5.181-18.567 9.079-30.333 11.92a82.922 82.922 0 0 1-12.78 2.06l-2.476.208v49.743l-103.977-51.387-3.906-1.927.003 4.355.07 43.95-46.488 6.85-1.953-21.106-.529-5.647-4.052 3.973c-6.142 6.011-13.063 10.672-20.565 13.855-7.674 3.263-15.592 4.913-23.528 4.913-7.923 0-15.37-1.656-22.132-4.895-12.528-6.027-21.565-16.96-25.443-30.757-1.846-6.48-2.348-13.324-1.49-20.348l.917-7.481-5.456 5.195a131.614 131.614 0 0 1-12.327 10.343l-1.47 1.084.464 1.766 15.66 60.113 2.767 10.666-10.486 3.334-29.486 9.441-9.868 3.177zm13.235-161.372c-1.52 0-3.09.14-4.673.424l-2.007.386-2.963.57.894 2.886.582 1.876 8.431 27.59.843 2.65 1.253 3.979 3.117-2.773 2.07-1.844c8.173-7.345 11.038-14.802 9.313-24.208-1.087-5.643-5.457-8.455-7.969-9.63-2.624-1.265-5.628-1.906-8.891-1.906zm226.03.905l-5.27 5.13-13.88 13.488-3.022 2.936 3.934 1.52 14.886 5.744 4.572 1.76-.944-4.803c-1.23-6.204-1.55-12.415-.974-18.457l.697-7.318zm60.61-15.34c-5.756 0-11.325 2.476-15.283 6.787-6.003 6.555-7.17 16.225-2.9 24.056l1.13 2.123 1.82 3.393 2.563-2.868 1.647-1.825 20.36-23.246 1.6-1.84 2.569-2.952-3.664-1.356-2.283-.844a20.74 20.74 0 0 0-7.559-1.428z" fill="#ffcb05"/><path d="M441.496 139.626a3.346 3.346 0 0 0-.531.617c.205-.187.404-.35.614-.522l-.083-.095zm-109.023 1.454l.154.066-.154-.066z" fill="#7d7f68"/><path d="M146.691 131.987c-2.669-14.322-21.396-22.216-39.963-12.09l4.786 16.392 7.529 24.222 3.435 11.032c13.93-8.957 27.93-19.719 24.213-39.556zm-18.442 22.022a7365.934 7365.934 0 0 0-6.475-20.906c.021.065-.876-3.058-1.938-6.632 3.936-.704 7.718-.419 10.83 1.077 1.74.829 4.797 2.761 5.465 6.425 1.538 8.235-1.238 14.114-7.882 20.036zm299.395-44.745c-10.38-9.521-26.512-8.782-35.98 1.588-9.523 10.352-8.775 26.494 1.619 35.976.846.816 1.76 1.484 2.68 2.14l33.48-37.914a35.707 35.707 0 0 0-1.8-1.79zm-31.612 26.668c-3.275-6.011-2.613-13.644 2.283-18.994 4.708-5.13 11.923-6.59 18.074-4.219l-20.357 23.213z" fill="#3567b0"/><path d="M644.295 143.375c.282 1.125.427 2.239.392 3.423-.309 7.084-6.968 12.552-14.907 12.181-7.932-.273-14.164-6.294-13.852-13.36.267-6.623 6.17-11.866 13.458-12.201-1.384-.312-2.83-.475-4.338-.529-13.28-.573-24.133 8.833-24.59 20.541-.511 12.523 9.526 22.733 22.595 23.3 13.297.531 24.145-8.907 24.674-21.37.154-4.32-1.122-8.46-3.432-11.985" fill="#3466af"/><path d="M241.444 157.676c0 7.113-6.47 12.813-14.393 12.813-7.945 0-14.39-5.703-14.39-12.813 0-6.63 5.67-12.095 12.938-12.73a24.294 24.294 0 0 0-4.337-.398c-13.277 0-23.75 9.847-23.75 21.574 0 12.514 10.476 22.328 23.536 22.328 13.288 0 23.753-9.82 23.753-22.328 0-4.331-1.43-8.413-3.892-11.774.333 1.012.535 2.134.535 3.328" fill="#3567b0"/><path d="M726.89 85.83l-5.896 24.3-5.445-26.906-72.91-16.049.51 40.542 10.987 2.464-.792 7.312c-.143-.056-.232-.142-.309-.205-13.62-7.187-30.507-7.923-46.4-1.92a63.994 63.994 0 0 0-14.77 7.98l-10.999-69.435h-48.489l-1.336 7.983h-51.037l-5.827 35.694-4.234-5.228c-12.368-15.194-30.296-23.563-50.158-23.979l43.333-23.29L432.9 0l-54.593 62.906 9.423 11.49c-8.535 3.487-15.993 8.297-22.17 14.107l-46.81-41.53-16.367 31.368.63-30.146-73.184 23.38 1.876 39.319 12.451-3.23 1.84 19.926c-14.226-6.389-31.326-6.231-47.185.47a69.915 69.915 0 0 0-13.12 7.492c2.744-12.14 2.094-24.106-2.532-34.78-5.462-12.61-15.075-23.034-26.862-29.61-8.262-5.504-18.11-8.933-28.414-10.1-25.324-4.426-55.733.119-85.662 12.87C31.22 78.626 20.957 83.952 11.7 89.848L0 97.267l7.066 11.931 21.927 37.06s6.71 11.356 6.754 11.35l11.858-5.828 1.653-.76 54.487 121.605 5.254 11.688 12.167-3.919 29.48-9.444 12.92-4.105-3.408-13.152-15.658-60.104a132.017 132.017 0 0 0 12.588-10.571c-.876 7.181-.416 14.452 1.562 21.41 4.094 14.571 13.635 26.081 26.876 32.458 14.301 6.873 31.749 6.891 47.89.045 8.096-3.435 15.295-8.446 21.396-14.41l2.224 23.937 51.627-7.603-.08-46.293L416.46 245.88v-51.625a85.102 85.102 0 0 0 13.188-2.134c11.88-2.871 22.049-6.808 31.083-12.22l-4.53 27.726 58.164 9.153 3.192-20.93 15.191 28.064 9.287-17.893 3.393 29.379 65.946 11.626-3.497-22.186c9.028 1.021 18.543-.19 27.734-3.658 2.176-.804 4.326-1.784 6.383-2.835l-2.627 23.605 43.89 6.193.327 18 45.767 14.366 59.587-179.598-62.048-15.081zm-257.671 26.69l3.025-3.215-3.655 22.643-9.532-8.586 10.162-10.842zM430.57 20.024l15.978 21.705-45.68 22.646-3.157-4.794 32.859-39.557zM128.083 187.397l18.225 69.93-29.498 9.423-60.53-135.182c-3.293 1.731-9.373 4.635-14.957 7.372l-21.919-37.027c8.716-5.567 18.276-10.5 28.444-14.797 28.536-12.136 55.763-15.758 77.54-11.91 7.703.866 15.859 3.138 23.002 7.879 9.8 5.519 17.296 13.374 21.618 23.38 10.543 24.361-7.068 59.42-41.925 80.932zM263.7 174.95c-.339 10.412-4.163 20.844-10.563 29.67-6.09 8.536-14.595 15.58-24.603 19.888-25.59 10.843-51.182 0-58.019-24.296-6.623-23.492 8.788-51.458 33.583-62.14 15.836-6.686 31.725-5.1 43.107 2.633 7.03 4.768 12.392 11.938 14.894 20.921.315.953.523 1.954.734 2.934a42.692 42.692 0 0 1 .867 10.39zm139.24 49.44L295.9 170.854l.19 56.093-27.69 3.776-1.93-23.12c8.55-14.66 11.676-31.936 7.214-47.778-2.45-8.707-6.974-16.266-13.122-22.322L256.59 90.36l-12.433 3.224-.55-11.92 44.468-13.24 2.725 45.862 32.758-46.025 32.024 30.498-44.784 47.18 42.074 16.643c4.7 8.907 11.869 16.474 20.864 22.05 8.696 5.367 18.66 8.54 29.198 9.583l.006 30.175zm-55.58-77.563l-14.888-5.745 13.88-13.49c-.595 6.193-.289 12.668 1.008 19.235zm116.487 14.024c-10.272 8.497-21.98 14.037-37.451 17.775-3.382.775-6.695 1.339-9.937 1.624-24.555 2.413-45.155-8.862-52.972-27.15a39.4 39.4 0 0 1-2.292-6.85c-3.616-15.401-.528-29.168 7.08-39.953 2.192-3.147 4.792-6.015 7.714-8.598 7.166-6.395 16.316-11.044 26.719-13.543 23.391-5.641 43.991 1.499 56.62 16.996l-44.573 47.444c3.022.57 7.829-.222 11.377-1.071 10.616-2.59 16.557-8.224 21.79-14.364l17.813 16.026 5.398 4.875a96.033 96.033 0 0 1-7.286 6.79zm94.565 63.316l-9.696-64.23-13.713 35.433-20.532-44.286h-.231l-8.114 51.286-34.221-5.955 4.812-28.62a118.08 118.08 0 0 0 3.812-3.716l11.091-11.421-10.78-9.655 11.454-68.155h34.527l8.643 47.18 9.684-54.676h24.697l10.249 66.614c-13.042 14.856-19.378 34.827-15.02 53.097 3.37 14.164 12.075 25.57 24.552 32.232 1.256.633 2.557 1.259 3.898 1.8l1.307 8.636-36.419-5.564zm85.28-20.927c-3.774 2.687-7.927 4.97-12.393 6.617-8.814 3.358-17.58 4.056-25.392 2.503-5.444-1.075-10.408-3.197-14.728-6.27-6.87-4.97-11.929-12.309-14.158-21.524-2.6-11.07-.205-22.892 5.75-33.247a59.774 59.774 0 0 1 11.285-13.918c5.026-4.507 10.854-8.197 17.338-10.69 15.09-5.63 29.973-3.688 40.45 3.844 3.853 2.731 7.05 6.208 9.571 10.248a36.789 36.789 0 0 1 4.296 10.551c3.21 13.295-.612 27.533-8.999 39.004-3.592 4.89-7.97 9.284-13.02 12.882zm77.054 60.54l-25.306-7.538-2.205-93.298-12.728 71.973-27.607-4.406 1.978-20.722c18.026-15.233 27.583-39.262 22.346-61.038-2.301-9.643-7.259-18.039-14.247-24.422l2.33-24.439-10.438-2.779.697-13.048 47.564 9.56 15.992 75.841 16.403-67.994 36.184 7.995-50.963 154.315z" fill="#3567b0"/><path d="M741.543 272.623v-7.043h-2.631v-.943h6.33v.943H742.6v7.043zm4.755 0v-7.986h1.59l1.891 5.654c.174.527.301.921.381 1.183.091-.291.233-.718.425-1.28l1.912-5.557h1.422v7.986H752.9v-6.684l-2.32 6.684h-.953l-2.31-6.798v6.798z" style="line-height:125%;-inkscape-font-specification:Arial" font-weight="400" font-size="4" font-family="Arial" letter-spacing="0" word-spacing="0"/></svg>